M48
; DRILL file {KiCad 8.0.0} date 2024-03-12T12:46:15+0300
; FORMAT={-:-/ absolute / inch / decimal}
; #@! TF.CreationDate,2024-03-12T12:46:15+03:00
; #@! TF.GenerationSoftware,Kicad,Pcbnew,8.0.0
; #@! TF.FileFunction,Plated,1,2,PTH
FMAT,2
INCH
; #@! TA.AperFunction,Plated,PTH,ViaDrill
T1C0.0118
; #@! TA.AperFunction,Plated,PTH,ComponentDrill
T2C0.0295
; #@! TA.AperFunction,Plated,PTH,ComponentDrill
T3C0.0354
; #@! TA.AperFunction,Plated,PTH,ComponentDrill
T4C0.0709
; #@! TA.AperFunction,Plated,PTH,ComponentDrill
T5C0.1280
%
G90
G05
T1
X4.2087Y-4.4587
X4.3386Y-4.3601
X4.3386Y-4.4232
X4.4016Y-4.6732
X4.5Y-4.5
X4.5039Y-4.2795
X4.5059Y-3.9803
X4.5098Y-4.5591
X4.5157Y-3.9154
X4.5394Y-4.3839
X4.5846Y-4.2599
X4.6142Y-4.2856
X4.6299Y-4.1102
X4.689Y-4.6201
X4.6988Y-4.1122
X4.6988Y-4.7559
X4.7638Y-4.7008
X4.8169Y-3.8583
X4.8484Y-4.0118
X4.8741Y-4.0846
X4.9528Y-3.8602
X5.002Y-3.9094
X5.0925Y-3.8524
X5.1437Y-3.7854
X5.1437Y-4.628
X5.2038Y-4.1229
X5.2323Y-3.8583
X5.25Y-4.6319
X5.252Y-4.1201
X5.252Y-4.3287
X5.314Y-4.1211
X5.3681Y-4.0276
X5.4488Y-4.1535
X5.4488Y-4.3445
X5.7578Y-4.1766
T2
X5.6929Y-3.9724
X5.6929Y-4.0512
X5.6929Y-4.1299
X5.6929Y-4.2087
X5.6929Y-4.4272
X5.6929Y-4.5059
X5.6929Y-4.5846
X5.6929Y-4.6634
T3
X4.0157Y-4.211
X4.0157Y-4.2913
X4.0157Y-4.3717
X4.0157Y-4.452
X4.0858Y-4.1709
X4.0858Y-4.2512
X4.0858Y-4.3315
X4.0858Y-4.4118
X4.2752Y-4.0413
X4.2752Y-4.1315
X4.2752Y-4.4913
X4.2752Y-4.5815
T4
X4.0559Y-3.9913
X4.0559Y-4.6315
T5
X3.9157Y-4.0614
X3.9157Y-4.5614
M30
