G04 #@! TF.GenerationSoftware,KiCad,Pcbnew,8.0.0*
G04 #@! TF.CreationDate,2024-03-12T12:46:24+03:00*
G04 #@! TF.ProjectId,Maxxfan_ethernet_controller,4d617878-6661-46e5-9f65-746865726e65,rev?*
G04 #@! TF.SameCoordinates,Original*
G04 #@! TF.FileFunction,Copper,L2,Bot*
G04 #@! TF.FilePolarity,Positive*
%FSLAX46Y46*%
G04 Gerber Fmt 4.6, Leading zero omitted, Abs format (unit mm)*
G04 Created by KiCad (PCBNEW 8.0.0) date 2024-03-12 12:46:24*
%MOMM*%
%LPD*%
G01*
G04 APERTURE LIST*
G04 Aperture macros list*
%AMRoundRect*
0 Rectangle with rounded corners*
0 $1 Rounding radius*
0 $2 $3 $4 $5 $6 $7 $8 $9 X,Y pos of 4 corners*
0 Add a 4 corners polygon primitive as box body*
4,1,4,$2,$3,$4,$5,$6,$7,$8,$9,$2,$3,0*
0 Add four circle primitives for the rounded corners*
1,1,$1+$1,$2,$3*
1,1,$1+$1,$4,$5*
1,1,$1+$1,$6,$7*
1,1,$1+$1,$8,$9*
0 Add four rect primitives between the rounded corners*
20,1,$1+$1,$2,$3,$4,$5,0*
20,1,$1+$1,$4,$5,$6,$7,0*
20,1,$1+$1,$6,$7,$8,$9,0*
20,1,$1+$1,$8,$9,$2,$3,0*%
G04 Aperture macros list end*
G04 #@! TA.AperFunction,ComponentPad*
%ADD10RoundRect,0.250000X0.625000X-0.350000X0.625000X0.350000X-0.625000X0.350000X-0.625000X-0.350000X0*%
G04 #@! TD*
G04 #@! TA.AperFunction,ComponentPad*
%ADD11O,1.750000X1.200000*%
G04 #@! TD*
G04 #@! TA.AperFunction,ComponentPad*
%ADD12C,1.400000*%
G04 #@! TD*
G04 #@! TA.AperFunction,ComponentPad*
%ADD13C,1.625000*%
G04 #@! TD*
G04 #@! TA.AperFunction,ComponentPad*
%ADD14C,2.700000*%
G04 #@! TD*
G04 #@! TA.AperFunction,ViaPad*
%ADD15C,0.600000*%
G04 #@! TD*
G04 #@! TA.AperFunction,Conductor*
%ADD16C,0.304800*%
G04 #@! TD*
G04 #@! TA.AperFunction,Conductor*
%ADD17C,0.381000*%
G04 #@! TD*
G04 APERTURE END LIST*
D10*
X144600000Y-118450000D03*
D11*
X144600000Y-116450000D03*
X144600000Y-114450000D03*
X144600000Y-112450000D03*
X144600000Y-100900000D03*
X144600000Y-102900000D03*
X144600000Y-104900000D03*
D10*
X144600000Y-106900000D03*
D12*
X103780000Y-105940000D03*
X102000000Y-106960000D03*
X103780000Y-107980000D03*
X102000000Y-109000000D03*
X103780000Y-110020000D03*
X102000000Y-111040000D03*
X103780000Y-112060000D03*
X102000000Y-113080000D03*
X108590000Y-102650000D03*
X108590000Y-104940000D03*
X108590000Y-114080000D03*
X108590000Y-116370000D03*
D13*
X99460000Y-103160000D03*
X99460000Y-115860000D03*
D14*
X103020000Y-101380000D03*
X103020000Y-117640000D03*
D15*
X123802400Y-103750000D03*
X132900000Y-98000000D03*
X127050000Y-99300000D03*
X122350000Y-98000000D03*
X117600000Y-104400000D03*
X117200000Y-108854800D03*
X114700000Y-99450000D03*
X116450000Y-108202400D03*
X115300000Y-111350000D03*
X123150000Y-101900000D03*
X114550000Y-115800000D03*
X119100000Y-117350000D03*
X125800000Y-98050000D03*
X129350000Y-97850000D03*
X130650000Y-96150000D03*
X134975000Y-104675000D03*
X132177500Y-104722500D03*
X133400000Y-104650000D03*
X136350000Y-102300000D03*
X138400000Y-105500000D03*
X138400000Y-110350000D03*
X146247600Y-106086317D03*
X133350000Y-117650000D03*
X133400000Y-109950000D03*
X114300000Y-114300000D03*
X114400000Y-108700000D03*
X114450000Y-101100000D03*
X119350000Y-104450000D03*
X110200000Y-110747600D03*
X110200000Y-112350000D03*
X130650000Y-117550000D03*
X119350000Y-120800000D03*
X111800000Y-118700000D03*
X121000000Y-119400000D03*
X106900000Y-113250000D03*
D16*
X121000000Y-119400000D02*
X121000000Y-112400000D01*
X123654800Y-111095200D02*
X123654800Y-103897600D01*
X121000000Y-112400000D02*
X121545200Y-111854800D01*
X121545200Y-111854800D02*
X122895200Y-111854800D01*
X122895200Y-111854800D02*
X123654800Y-111095200D01*
X123654800Y-103897600D02*
X123802400Y-103750000D01*
X115300000Y-111350000D02*
X122686104Y-111350000D01*
X122686104Y-111350000D02*
X123150000Y-110886104D01*
X123150000Y-110886104D02*
X123150000Y-101900000D01*
X117200000Y-108854800D02*
X117200000Y-108029766D01*
X117300000Y-104400000D02*
X117600000Y-104400000D01*
X117200000Y-108029766D02*
X116985117Y-107814883D01*
X116985117Y-104714883D02*
X117300000Y-104400000D01*
X116985117Y-107814883D02*
X116985117Y-104714883D01*
X115700000Y-99450000D02*
X114700000Y-99450000D01*
X115750000Y-99500000D02*
X115700000Y-99450000D01*
X116450000Y-100200000D02*
X115750000Y-99500000D01*
X116450000Y-108202400D02*
X116450000Y-100200000D01*
X119100000Y-117350000D02*
X119100000Y-116450000D01*
X119100000Y-116450000D02*
X118450000Y-115800000D01*
X118450000Y-115800000D02*
X114550000Y-115800000D01*
X133400000Y-104650000D02*
X133400000Y-103500000D01*
X133400000Y-103500000D02*
X132904800Y-103004800D01*
X132904800Y-103004800D02*
X130854800Y-103004800D01*
X130145200Y-102295200D02*
X130145200Y-98195200D01*
X130854800Y-103004800D02*
X130145200Y-102295200D01*
X130145200Y-98195200D02*
X129800000Y-97850000D01*
X129800000Y-97850000D02*
X129350000Y-97850000D01*
X134975000Y-104675000D02*
X134975000Y-103075000D01*
X134975000Y-103075000D02*
X134400000Y-102500000D01*
X134400000Y-102500000D02*
X131400000Y-102500000D01*
X131400000Y-102500000D02*
X130650000Y-101750000D01*
X130650000Y-101750000D02*
X130650000Y-96150000D01*
X132177500Y-104722500D02*
X132177500Y-103927500D01*
X131759600Y-103509600D02*
X130409600Y-103509600D01*
X129050000Y-98550000D02*
X126100000Y-98550000D01*
X125800000Y-98250000D02*
X125800000Y-98050000D01*
X132177500Y-103927500D02*
X131759600Y-103509600D01*
X130409600Y-103509600D02*
X129640400Y-102740400D01*
X129640400Y-102740400D02*
X129640400Y-99140400D01*
X129640400Y-99140400D02*
X129050000Y-98550000D01*
X126100000Y-98550000D02*
X125800000Y-98250000D01*
X138400000Y-110350000D02*
X138400000Y-105500000D01*
D17*
X144600000Y-118450000D02*
X146750000Y-118450000D01*
X146750000Y-118450000D02*
X147750000Y-117450000D01*
X147100000Y-106900000D02*
X144600000Y-106900000D01*
X147750000Y-117450000D02*
X147750000Y-107550000D01*
X147750000Y-107550000D02*
X147100000Y-106900000D01*
D16*
X146247600Y-106086317D02*
X146247600Y-103497600D01*
X146247600Y-103497600D02*
X145650000Y-102900000D01*
X145650000Y-102900000D02*
X144600000Y-102900000D01*
X133400000Y-109950000D02*
X133350000Y-110000000D01*
X133350000Y-110000000D02*
X133350000Y-117650000D01*
X110200000Y-110747600D02*
X110200000Y-112350000D01*
X106900000Y-113250000D02*
X106900000Y-120363896D01*
X106900000Y-120363896D02*
X108240904Y-121704800D01*
X108240904Y-121704800D02*
X120395200Y-121704800D01*
X120395200Y-121704800D02*
X121000000Y-121100000D01*
X121000000Y-121100000D02*
X121000000Y-119400000D01*
X103780000Y-112060000D02*
X106860000Y-112060000D01*
X106860000Y-112060000D02*
X107552400Y-112752400D01*
X107552400Y-113747600D02*
X107404800Y-113895200D01*
X107552400Y-112752400D02*
X107552400Y-113747600D01*
X107404800Y-113895200D02*
X107404800Y-120154800D01*
X107404800Y-120154800D02*
X108450000Y-121200000D01*
X108450000Y-121200000D02*
X111050000Y-121200000D01*
X111800000Y-120450000D02*
X111800000Y-118700000D01*
X111050000Y-121200000D02*
X111800000Y-120450000D01*
G04 #@! TA.AperFunction,Conductor*
G36*
X147003738Y-95000726D02*
G01*
X147293798Y-95018271D01*
X147308661Y-95020076D01*
X147590799Y-95071780D01*
X147605336Y-95075363D01*
X147879173Y-95160695D01*
X147893164Y-95166000D01*
X148154744Y-95283727D01*
X148167990Y-95290680D01*
X148413466Y-95439075D01*
X148425777Y-95447573D01*
X148518458Y-95520184D01*
X148651574Y-95624474D01*
X148662782Y-95634404D01*
X148865596Y-95837218D01*
X148875526Y-95848426D01*
X148995482Y-96001539D01*
X149052423Y-96074218D01*
X149060929Y-96086541D01*
X149209316Y-96332004D01*
X149216275Y-96345263D01*
X149333997Y-96606831D01*
X149339306Y-96620832D01*
X149424635Y-96894664D01*
X149428219Y-96909202D01*
X149479923Y-97191340D01*
X149481728Y-97206205D01*
X149499276Y-97496289D01*
X149499502Y-97503776D01*
X149499502Y-121496251D01*
X149499276Y-121503738D01*
X149481730Y-121793796D01*
X149479925Y-121808661D01*
X149428221Y-122090799D01*
X149424637Y-122105337D01*
X149339308Y-122379168D01*
X149333999Y-122393169D01*
X149216277Y-122654737D01*
X149209318Y-122667996D01*
X149060930Y-122913460D01*
X149052424Y-122925783D01*
X148875527Y-123151575D01*
X148865597Y-123162783D01*
X148662783Y-123365597D01*
X148651575Y-123375527D01*
X148425783Y-123552424D01*
X148413460Y-123560930D01*
X148167996Y-123709318D01*
X148154737Y-123716277D01*
X147893169Y-123833999D01*
X147879168Y-123839308D01*
X147605337Y-123924637D01*
X147590799Y-123928221D01*
X147308661Y-123979925D01*
X147293796Y-123981730D01*
X147003738Y-123999276D01*
X146996251Y-123999502D01*
X97503751Y-123999502D01*
X97496264Y-123999276D01*
X97206204Y-123981730D01*
X97191339Y-123979925D01*
X96909201Y-123928221D01*
X96894663Y-123924637D01*
X96620832Y-123839308D01*
X96606831Y-123833999D01*
X96345263Y-123716277D01*
X96332004Y-123709318D01*
X96086537Y-123560928D01*
X96074217Y-123552424D01*
X95848425Y-123375528D01*
X95837217Y-123365598D01*
X95634402Y-123162783D01*
X95624472Y-123151575D01*
X95447572Y-122925778D01*
X95439074Y-122913467D01*
X95290678Y-122667991D01*
X95283725Y-122654745D01*
X95165998Y-122393165D01*
X95160691Y-122379169D01*
X95111945Y-122222738D01*
X95075361Y-122105336D01*
X95071778Y-122090799D01*
X95020074Y-121808661D01*
X95018269Y-121793796D01*
X95000726Y-121503771D01*
X95000500Y-121496284D01*
X95000500Y-121121288D01*
X96149500Y-121121288D01*
X96181161Y-121361785D01*
X96243947Y-121596104D01*
X96325834Y-121793796D01*
X96336776Y-121820212D01*
X96458064Y-122030289D01*
X96458066Y-122030292D01*
X96458067Y-122030293D01*
X96605733Y-122222736D01*
X96605739Y-122222743D01*
X96777256Y-122394260D01*
X96777262Y-122394265D01*
X96969711Y-122541936D01*
X97179788Y-122663224D01*
X97403900Y-122756054D01*
X97638211Y-122818838D01*
X97818586Y-122842584D01*
X97878711Y-122850500D01*
X97878712Y-122850500D01*
X98121289Y-122850500D01*
X98169388Y-122844167D01*
X98361789Y-122818838D01*
X98596100Y-122756054D01*
X98820212Y-122663224D01*
X99030289Y-122541936D01*
X99222738Y-122394265D01*
X99394265Y-122222738D01*
X99541936Y-122030289D01*
X99663224Y-121820212D01*
X99756054Y-121596100D01*
X99818838Y-121361789D01*
X99850500Y-121121288D01*
X135649500Y-121121288D01*
X135681161Y-121361785D01*
X135743947Y-121596104D01*
X135825834Y-121793796D01*
X135836776Y-121820212D01*
X135958064Y-122030289D01*
X135958066Y-122030292D01*
X135958067Y-122030293D01*
X136105733Y-122222736D01*
X136105739Y-122222743D01*
X136277256Y-122394260D01*
X136277262Y-122394265D01*
X136469711Y-122541936D01*
X136679788Y-122663224D01*
X136903900Y-122756054D01*
X137138211Y-122818838D01*
X137318586Y-122842584D01*
X137378711Y-122850500D01*
X137378712Y-122850500D01*
X137621289Y-122850500D01*
X137669388Y-122844167D01*
X137861789Y-122818838D01*
X138096100Y-122756054D01*
X138320212Y-122663224D01*
X138530289Y-122541936D01*
X138722738Y-122394265D01*
X138894265Y-122222738D01*
X139041936Y-122030289D01*
X139163224Y-121820212D01*
X139256054Y-121596100D01*
X139318838Y-121361789D01*
X139350500Y-121121288D01*
X139350500Y-120878712D01*
X139318838Y-120638211D01*
X139256054Y-120403900D01*
X139163224Y-120179788D01*
X139041936Y-119969711D01*
X138894265Y-119777262D01*
X138894260Y-119777256D01*
X138722743Y-119605739D01*
X138722736Y-119605733D01*
X138530293Y-119458067D01*
X138530292Y-119458066D01*
X138530289Y-119458064D01*
X138320212Y-119336776D01*
X138320205Y-119336773D01*
X138096104Y-119243947D01*
X137861785Y-119181161D01*
X137621289Y-119149500D01*
X137621288Y-119149500D01*
X137378712Y-119149500D01*
X137378711Y-119149500D01*
X137138214Y-119181161D01*
X136903895Y-119243947D01*
X136679794Y-119336773D01*
X136679785Y-119336777D01*
X136469706Y-119458067D01*
X136277263Y-119605733D01*
X136277256Y-119605739D01*
X136105739Y-119777256D01*
X136105733Y-119777263D01*
X135958067Y-119969706D01*
X135836777Y-120179785D01*
X135836773Y-120179794D01*
X135743947Y-120403895D01*
X135681161Y-120638214D01*
X135649500Y-120878711D01*
X135649500Y-121121288D01*
X99850500Y-121121288D01*
X99850500Y-120878712D01*
X99818838Y-120638211D01*
X99756054Y-120403900D01*
X99663224Y-120179788D01*
X99541936Y-119969711D01*
X99394265Y-119777262D01*
X99394260Y-119777256D01*
X99222743Y-119605739D01*
X99222736Y-119605733D01*
X99030293Y-119458067D01*
X99030292Y-119458066D01*
X99030289Y-119458064D01*
X98820212Y-119336776D01*
X98820205Y-119336773D01*
X98596104Y-119243947D01*
X98361785Y-119181161D01*
X98121289Y-119149500D01*
X98121288Y-119149500D01*
X97878712Y-119149500D01*
X97878711Y-119149500D01*
X97638214Y-119181161D01*
X97403895Y-119243947D01*
X97179794Y-119336773D01*
X97179785Y-119336777D01*
X96969706Y-119458067D01*
X96777263Y-119605733D01*
X96777256Y-119605739D01*
X96605739Y-119777256D01*
X96605733Y-119777263D01*
X96458067Y-119969706D01*
X96336777Y-120179785D01*
X96336773Y-120179794D01*
X96243947Y-120403895D01*
X96181161Y-120638214D01*
X96149500Y-120878711D01*
X96149500Y-121121288D01*
X95000500Y-121121288D01*
X95000500Y-115999306D01*
X97334500Y-115999306D01*
X97334501Y-115999322D01*
X97370866Y-116275543D01*
X97370867Y-116275548D01*
X97370868Y-116275554D01*
X97442981Y-116544685D01*
X97442984Y-116544695D01*
X97549604Y-116802098D01*
X97549609Y-116802109D01*
X97688914Y-117043390D01*
X97688925Y-117043406D01*
X97858533Y-117264445D01*
X97858539Y-117264452D01*
X98055547Y-117461460D01*
X98055554Y-117461466D01*
X98115267Y-117507285D01*
X98276602Y-117631081D01*
X98276609Y-117631085D01*
X98517890Y-117770390D01*
X98517895Y-117770392D01*
X98517898Y-117770394D01*
X98775314Y-117877019D01*
X99044446Y-117949132D01*
X99320687Y-117985500D01*
X99320694Y-117985500D01*
X99599306Y-117985500D01*
X99599313Y-117985500D01*
X99875554Y-117949132D01*
X100144686Y-117877019D01*
X100402102Y-117770394D01*
X100643398Y-117631081D01*
X100864447Y-117461465D01*
X100966579Y-117359332D01*
X101027900Y-117325849D01*
X101097592Y-117330833D01*
X101153526Y-117372704D01*
X101177943Y-117438168D01*
X101177943Y-117455861D01*
X101164773Y-117639998D01*
X101164773Y-117640001D01*
X101183657Y-117904027D01*
X101183658Y-117904034D01*
X101239921Y-118162673D01*
X101332426Y-118410690D01*
X101332428Y-118410694D01*
X101459280Y-118643005D01*
X101459285Y-118643013D01*
X101617906Y-118854907D01*
X101617922Y-118854925D01*
X101805074Y-119042077D01*
X101805092Y-119042093D01*
X102016986Y-119200714D01*
X102016994Y-119200719D01*
X102249305Y-119327571D01*
X102249309Y-119327573D01*
X102249311Y-119327574D01*
X102497322Y-119420077D01*
X102497325Y-119420077D01*
X102497326Y-119420078D01*
X102671946Y-119458064D01*
X102755974Y-119476343D01*
X102999660Y-119493772D01*
X103019999Y-119495227D01*
X103020000Y-119495227D01*
X103020001Y-119495227D01*
X103038885Y-119493876D01*
X103284026Y-119476343D01*
X103542678Y-119420077D01*
X103790689Y-119327574D01*
X104023011Y-119200716D01*
X104234915Y-119042087D01*
X104422087Y-118854915D01*
X104425766Y-118850001D01*
X143224500Y-118850001D01*
X143224501Y-118850019D01*
X143235000Y-118952796D01*
X143235001Y-118952799D01*
X143290185Y-119119331D01*
X143290187Y-119119336D01*
X143308792Y-119149500D01*
X143382288Y-119268656D01*
X143506344Y-119392712D01*
X143655666Y-119484814D01*
X143822203Y-119539999D01*
X143924991Y-119550500D01*
X145275008Y-119550499D01*
X145377797Y-119539999D01*
X145544334Y-119484814D01*
X145693656Y-119392712D01*
X145817712Y-119268656D01*
X145860119Y-119199901D01*
X145912066Y-119153179D01*
X145965657Y-119141000D01*
X146818060Y-119141000D01*
X146907870Y-119123134D01*
X146951557Y-119114445D01*
X147077311Y-119062356D01*
X147110021Y-119040500D01*
X147190487Y-118986735D01*
X148286735Y-117890486D01*
X148362356Y-117777311D01*
X148414445Y-117651557D01*
X148430569Y-117570500D01*
X148438670Y-117529776D01*
X148440999Y-117518063D01*
X148441000Y-117518058D01*
X148441000Y-107481939D01*
X148414446Y-107348448D01*
X148414445Y-107348447D01*
X148414445Y-107348443D01*
X148413148Y-107345311D01*
X148362359Y-107222695D01*
X148362355Y-107222688D01*
X148321794Y-107161984D01*
X148286735Y-107109514D01*
X148286733Y-107109511D01*
X148286730Y-107109508D01*
X147540492Y-106363269D01*
X147540485Y-106363263D01*
X147427312Y-106287644D01*
X147427309Y-106287642D01*
X147301560Y-106235556D01*
X147301558Y-106235555D01*
X147301557Y-106235555D01*
X147276979Y-106230666D01*
X147276964Y-106230663D01*
X147168055Y-106208999D01*
X147165001Y-106208698D01*
X147163505Y-106208093D01*
X147162083Y-106207811D01*
X147162136Y-106207541D01*
X147100216Y-106182532D01*
X147059862Y-106125494D01*
X147054477Y-106093175D01*
X147053945Y-106093236D01*
X147032969Y-105907067D01*
X147032966Y-105907054D01*
X146973390Y-105736796D01*
X146919506Y-105651039D01*
X146900500Y-105585068D01*
X146900500Y-103433292D01*
X146875410Y-103307161D01*
X146875409Y-103307160D01*
X146875409Y-103307156D01*
X146826192Y-103188336D01*
X146826191Y-103188335D01*
X146826187Y-103188327D01*
X146807311Y-103160078D01*
X146807309Y-103160076D01*
X146805722Y-103157701D01*
X146754741Y-103081400D01*
X146417784Y-102744443D01*
X146066205Y-102392863D01*
X146066204Y-102392862D01*
X146051452Y-102383005D01*
X145959264Y-102321408D01*
X145840444Y-102272191D01*
X145840442Y-102272190D01*
X145816407Y-102267409D01*
X145754497Y-102235023D01*
X145740286Y-102218681D01*
X145714414Y-102183072D01*
X145591928Y-102060586D01*
X145508550Y-102000008D01*
X145465885Y-101944677D01*
X145459906Y-101875064D01*
X145492512Y-101813269D01*
X145508552Y-101799371D01*
X145591598Y-101739036D01*
X145714032Y-101616602D01*
X145815804Y-101476524D01*
X145894408Y-101322255D01*
X145947914Y-101157584D01*
X145949115Y-101150000D01*
X144880330Y-101150000D01*
X144900075Y-101130255D01*
X144949444Y-101044745D01*
X144975000Y-100949370D01*
X144975000Y-100850630D01*
X144949444Y-100755255D01*
X144900075Y-100669745D01*
X144880330Y-100650000D01*
X145949115Y-100650000D01*
X145949115Y-100649999D01*
X145947914Y-100642415D01*
X145894408Y-100477744D01*
X145815804Y-100323475D01*
X145714032Y-100183397D01*
X145591602Y-100060967D01*
X145451524Y-99959195D01*
X145297257Y-99880591D01*
X145132584Y-99827085D01*
X144961571Y-99800000D01*
X144850000Y-99800000D01*
X144850000Y-100619670D01*
X144830255Y-100599925D01*
X144744745Y-100550556D01*
X144649370Y-100525000D01*
X144550630Y-100525000D01*
X144455255Y-100550556D01*
X144369745Y-100599925D01*
X144350000Y-100619670D01*
X144350000Y-99800000D01*
X144238429Y-99800000D01*
X144067415Y-99827085D01*
X143902742Y-99880591D01*
X143748475Y-99959195D01*
X143608397Y-100060967D01*
X143485967Y-100183397D01*
X143384195Y-100323475D01*
X143305591Y-100477744D01*
X143252085Y-100642415D01*
X143250884Y-100649999D01*
X143250885Y-100650000D01*
X144319670Y-100650000D01*
X144299925Y-100669745D01*
X144250556Y-100755255D01*
X144225000Y-100850630D01*
X144225000Y-100949370D01*
X144250556Y-101044745D01*
X144299925Y-101130255D01*
X144319670Y-101150000D01*
X143250885Y-101150000D01*
X143252085Y-101157584D01*
X143305591Y-101322255D01*
X143384195Y-101476524D01*
X143485967Y-101616602D01*
X143608401Y-101739036D01*
X143691447Y-101799371D01*
X143734114Y-101854701D01*
X143740093Y-101924314D01*
X143707488Y-101986109D01*
X143691450Y-102000007D01*
X143608072Y-102060585D01*
X143485588Y-102183069D01*
X143485588Y-102183070D01*
X143485586Y-102183072D01*
X143460281Y-102217901D01*
X143383768Y-102323211D01*
X143305128Y-102477552D01*
X143251597Y-102642302D01*
X143224500Y-102813389D01*
X143224500Y-102986610D01*
X143251423Y-103156600D01*
X143251598Y-103157701D01*
X143305127Y-103322445D01*
X143383768Y-103476788D01*
X143485586Y-103616928D01*
X143608072Y-103739414D01*
X143623047Y-103750294D01*
X143691023Y-103799683D01*
X143733689Y-103855013D01*
X143739667Y-103924626D01*
X143707061Y-103986421D01*
X143691023Y-104000317D01*
X143608078Y-104060581D01*
X143608069Y-104060588D01*
X143485588Y-104183069D01*
X143485588Y-104183070D01*
X143485586Y-104183072D01*
X143484567Y-104184475D01*
X143383768Y-104323211D01*
X143305128Y-104477552D01*
X143251597Y-104642302D01*
X143224500Y-104813389D01*
X143224500Y-104986610D01*
X143250736Y-105152262D01*
X143251598Y-105157701D01*
X143305127Y-105322445D01*
X143383768Y-105476788D01*
X143485586Y-105616928D01*
X143485588Y-105616930D01*
X143593127Y-105724469D01*
X143626612Y-105785792D01*
X143621628Y-105855484D01*
X143579756Y-105911417D01*
X143570544Y-105917688D01*
X143506344Y-105957287D01*
X143382289Y-106081342D01*
X143290187Y-106230663D01*
X143290186Y-106230665D01*
X143290186Y-106230666D01*
X143235001Y-106397203D01*
X143235001Y-106397204D01*
X143235000Y-106397204D01*
X143224500Y-106499983D01*
X143224500Y-107300001D01*
X143224501Y-107300019D01*
X143235000Y-107402796D01*
X143235001Y-107402799D01*
X143290185Y-107569331D01*
X143290187Y-107569336D01*
X143305821Y-107594683D01*
X143382288Y-107718656D01*
X143506344Y-107842712D01*
X143655666Y-107934814D01*
X143822203Y-107989999D01*
X143924991Y-108000500D01*
X145275008Y-108000499D01*
X145377797Y-107989999D01*
X145544334Y-107934814D01*
X145693656Y-107842712D01*
X145817712Y-107718656D01*
X145860119Y-107649901D01*
X145912066Y-107603179D01*
X145965657Y-107591000D01*
X146762416Y-107591000D01*
X146829455Y-107610685D01*
X146850097Y-107627319D01*
X147022681Y-107799902D01*
X147056166Y-107861225D01*
X147059000Y-107887583D01*
X147059000Y-117112416D01*
X147039315Y-117179455D01*
X147022681Y-117200097D01*
X146500097Y-117722681D01*
X146438774Y-117756166D01*
X146412416Y-117759000D01*
X145965657Y-117759000D01*
X145898618Y-117739315D01*
X145860119Y-117700099D01*
X145817712Y-117631344D01*
X145693656Y-117507288D01*
X145693652Y-117507285D01*
X145629456Y-117467688D01*
X145582731Y-117415740D01*
X145571510Y-117346777D01*
X145599353Y-117282695D01*
X145606850Y-117274491D01*
X145714414Y-117166928D01*
X145816232Y-117026788D01*
X145894873Y-116872445D01*
X145948402Y-116707701D01*
X145975500Y-116536611D01*
X145975500Y-116363389D01*
X145948402Y-116192299D01*
X145894873Y-116027555D01*
X145816232Y-115873212D01*
X145714414Y-115733072D01*
X145591928Y-115610586D01*
X145508975Y-115550317D01*
X145466311Y-115494988D01*
X145460332Y-115425374D01*
X145492938Y-115363579D01*
X145508976Y-115349682D01*
X145591928Y-115289414D01*
X145714414Y-115166928D01*
X145816232Y-115026788D01*
X145894873Y-114872445D01*
X145948402Y-114707701D01*
X145975500Y-114536611D01*
X145975500Y-114363389D01*
X145948402Y-114192299D01*
X145894873Y-114027555D01*
X145816232Y-113873212D01*
X145714414Y-113733072D01*
X145591928Y-113610586D01*
X145508550Y-113550008D01*
X145465885Y-113494677D01*
X145459906Y-113425064D01*
X145492512Y-113363269D01*
X145508552Y-113349371D01*
X145591598Y-113289036D01*
X145714032Y-113166602D01*
X145815804Y-113026524D01*
X145894408Y-112872255D01*
X145947914Y-112707584D01*
X145949115Y-112700000D01*
X144880330Y-112700000D01*
X144900075Y-112680255D01*
X144949444Y-112594745D01*
X144975000Y-112499370D01*
X144975000Y-112400630D01*
X144949444Y-112305255D01*
X144900075Y-112219745D01*
X144880330Y-112200000D01*
X145949115Y-112200000D01*
X145949115Y-112199999D01*
X145947914Y-112192415D01*
X145894408Y-112027744D01*
X145815804Y-111873475D01*
X145714032Y-111733397D01*
X145591602Y-111610967D01*
X145451524Y-111509195D01*
X145297257Y-111430591D01*
X145132584Y-111377085D01*
X144961571Y-111350000D01*
X144850000Y-111350000D01*
X144850000Y-112169670D01*
X144830255Y-112149925D01*
X144744745Y-112100556D01*
X144649370Y-112075000D01*
X144550630Y-112075000D01*
X144455255Y-112100556D01*
X144369745Y-112149925D01*
X144350000Y-112169670D01*
X144350000Y-111350000D01*
X144238429Y-111350000D01*
X144067415Y-111377085D01*
X143902742Y-111430591D01*
X143748475Y-111509195D01*
X143608397Y-111610967D01*
X143485967Y-111733397D01*
X143384195Y-111873475D01*
X143305591Y-112027744D01*
X143252085Y-112192415D01*
X143250884Y-112199999D01*
X143250885Y-112200000D01*
X144319670Y-112200000D01*
X144299925Y-112219745D01*
X144250556Y-112305255D01*
X144225000Y-112400630D01*
X144225000Y-112499370D01*
X144250556Y-112594745D01*
X144299925Y-112680255D01*
X144319670Y-112700000D01*
X143250885Y-112700000D01*
X143252085Y-112707584D01*
X143305591Y-112872255D01*
X143384195Y-113026524D01*
X143485967Y-113166602D01*
X143608401Y-113289036D01*
X143691447Y-113349371D01*
X143734114Y-113404701D01*
X143740093Y-113474314D01*
X143707488Y-113536109D01*
X143691450Y-113550007D01*
X143608072Y-113610585D01*
X143485588Y-113733069D01*
X143485588Y-113733070D01*
X143485586Y-113733072D01*
X143458127Y-113770866D01*
X143383768Y-113873211D01*
X143305128Y-114027552D01*
X143251597Y-114192302D01*
X143224500Y-114363389D01*
X143224500Y-114536610D01*
X143246673Y-114676609D01*
X143251598Y-114707701D01*
X143305127Y-114872445D01*
X143383768Y-115026788D01*
X143485586Y-115166928D01*
X143608072Y-115289414D01*
X143608078Y-115289418D01*
X143691023Y-115349683D01*
X143733689Y-115405013D01*
X143739667Y-115474626D01*
X143707061Y-115536421D01*
X143691023Y-115550317D01*
X143608078Y-115610581D01*
X143608069Y-115610588D01*
X143485588Y-115733069D01*
X143485588Y-115733070D01*
X143485586Y-115733072D01*
X143483956Y-115735316D01*
X143383768Y-115873211D01*
X143305128Y-116027552D01*
X143251597Y-116192302D01*
X143224500Y-116363389D01*
X143224500Y-116536611D01*
X143251598Y-116707701D01*
X143297428Y-116848751D01*
X143305128Y-116872447D01*
X143370363Y-117000479D01*
X143383768Y-117026788D01*
X143485586Y-117166928D01*
X143485588Y-117166930D01*
X143593127Y-117274469D01*
X143626612Y-117335792D01*
X143621628Y-117405484D01*
X143579756Y-117461417D01*
X143570544Y-117467688D01*
X143506344Y-117507287D01*
X143382289Y-117631342D01*
X143290187Y-117780663D01*
X143290185Y-117780668D01*
X143274085Y-117829255D01*
X143235001Y-117947203D01*
X143235001Y-117947204D01*
X143235000Y-117947204D01*
X143224500Y-118049983D01*
X143224500Y-118850001D01*
X104425766Y-118850001D01*
X104580716Y-118643011D01*
X104707574Y-118410689D01*
X104800077Y-118162678D01*
X104856343Y-117904026D01*
X104875227Y-117640000D01*
X104856343Y-117375974D01*
X104832082Y-117264447D01*
X104800078Y-117117326D01*
X104772507Y-117043406D01*
X104707574Y-116869311D01*
X104696347Y-116848751D01*
X104580719Y-116636994D01*
X104580714Y-116636986D01*
X104422093Y-116425092D01*
X104422077Y-116425074D01*
X104367003Y-116370000D01*
X107384357Y-116370000D01*
X107404884Y-116591535D01*
X107404885Y-116591537D01*
X107465769Y-116805523D01*
X107465775Y-116805538D01*
X107564938Y-117004683D01*
X107564943Y-117004691D01*
X107699020Y-117182238D01*
X107863437Y-117332123D01*
X107863439Y-117332125D01*
X108052595Y-117449245D01*
X108052596Y-117449245D01*
X108052599Y-117449247D01*
X108260060Y-117529618D01*
X108478757Y-117570500D01*
X108478759Y-117570500D01*
X108701241Y-117570500D01*
X108701243Y-117570500D01*
X108919940Y-117529618D01*
X109127401Y-117449247D01*
X109316562Y-117332124D01*
X109480981Y-117182236D01*
X109615058Y-117004689D01*
X109714229Y-116805528D01*
X109775115Y-116591536D01*
X109795643Y-116370000D01*
X109795030Y-116363389D01*
X109775115Y-116148464D01*
X109775114Y-116148462D01*
X109772916Y-116140738D01*
X109714229Y-115934472D01*
X109683725Y-115873212D01*
X109647271Y-115800003D01*
X113744435Y-115800003D01*
X113764630Y-115979249D01*
X113764631Y-115979254D01*
X113824211Y-116149523D01*
X113903395Y-116275543D01*
X113920184Y-116302262D01*
X114047738Y-116429816D01*
X114200478Y-116525789D01*
X114370745Y-116585368D01*
X114370750Y-116585369D01*
X114549996Y-116605565D01*
X114550000Y-116605565D01*
X114550004Y-116605565D01*
X114729249Y-116585369D01*
X114729252Y-116585368D01*
X114729255Y-116585368D01*
X114899522Y-116525789D01*
X114985276Y-116471905D01*
X115051248Y-116452900D01*
X118128197Y-116452900D01*
X118195236Y-116472585D01*
X118215878Y-116489219D01*
X118410781Y-116684121D01*
X118444266Y-116745444D01*
X118447100Y-116771802D01*
X118447100Y-116848751D01*
X118428094Y-116914722D01*
X118374209Y-117000479D01*
X118314633Y-117170737D01*
X118314630Y-117170750D01*
X118294435Y-117349996D01*
X118294435Y-117350003D01*
X118314630Y-117529249D01*
X118314631Y-117529254D01*
X118374211Y-117699523D01*
X118423089Y-117777311D01*
X118470184Y-117852262D01*
X118597738Y-117979816D01*
X118750478Y-118075789D01*
X118920745Y-118135368D01*
X118920750Y-118135369D01*
X119099996Y-118155565D01*
X119100000Y-118155565D01*
X119100004Y-118155565D01*
X119279249Y-118135369D01*
X119279252Y-118135368D01*
X119279255Y-118135368D01*
X119449522Y-118075789D01*
X119602262Y-117979816D01*
X119729816Y-117852262D01*
X119825789Y-117699522D01*
X119843116Y-117650003D01*
X132544435Y-117650003D01*
X132564630Y-117829249D01*
X132564631Y-117829254D01*
X132624211Y-117999523D01*
X132709569Y-118135368D01*
X132720184Y-118152262D01*
X132847738Y-118279816D01*
X133000478Y-118375789D01*
X133100231Y-118410694D01*
X133170745Y-118435368D01*
X133170750Y-118435369D01*
X133349996Y-118455565D01*
X133350000Y-118455565D01*
X133350004Y-118455565D01*
X133529249Y-118435369D01*
X133529252Y-118435368D01*
X133529255Y-118435368D01*
X133699522Y-118375789D01*
X133852262Y-118279816D01*
X133979816Y-118152262D01*
X134075789Y-117999522D01*
X134135368Y-117829255D01*
X134135369Y-117829249D01*
X134155565Y-117650003D01*
X134155565Y-117649996D01*
X134135369Y-117470750D01*
X134135366Y-117470737D01*
X134075790Y-117300479D01*
X134021906Y-117214722D01*
X134002900Y-117148751D01*
X134002900Y-110529402D01*
X134022585Y-110462363D01*
X134029720Y-110452413D01*
X134029812Y-110452265D01*
X134029816Y-110452262D01*
X134094070Y-110350003D01*
X137594435Y-110350003D01*
X137614630Y-110529249D01*
X137614631Y-110529254D01*
X137674211Y-110699523D01*
X137748946Y-110818462D01*
X137770184Y-110852262D01*
X137897738Y-110979816D01*
X137946917Y-111010717D01*
X138050471Y-111075785D01*
X138050478Y-111075789D01*
X138220745Y-111135368D01*
X138220750Y-111135369D01*
X138399996Y-111155565D01*
X138400000Y-111155565D01*
X138400004Y-111155565D01*
X138579249Y-111135369D01*
X138579252Y-111135368D01*
X138579255Y-111135368D01*
X138749522Y-111075789D01*
X138902262Y-110979816D01*
X139029816Y-110852262D01*
X139125789Y-110699522D01*
X139185368Y-110529255D01*
X139185369Y-110529249D01*
X139205565Y-110350003D01*
X139205565Y-110349996D01*
X139185369Y-110170750D01*
X139185366Y-110170737D01*
X139125790Y-110000479D01*
X139071906Y-109914722D01*
X139052900Y-109848751D01*
X139052900Y-106001248D01*
X139071906Y-105935276D01*
X139082957Y-105917688D01*
X139125789Y-105849522D01*
X139185368Y-105679255D01*
X139191955Y-105620792D01*
X139205565Y-105500003D01*
X139205565Y-105499996D01*
X139185369Y-105320750D01*
X139185368Y-105320745D01*
X139173035Y-105285500D01*
X139125789Y-105150478D01*
X139029816Y-104997738D01*
X138902262Y-104870184D01*
X138826902Y-104822832D01*
X138749523Y-104774211D01*
X138579254Y-104714631D01*
X138579249Y-104714630D01*
X138400004Y-104694435D01*
X138399996Y-104694435D01*
X138220750Y-104714630D01*
X138220745Y-104714631D01*
X138050476Y-104774211D01*
X137897737Y-104870184D01*
X137770184Y-104997737D01*
X137674211Y-105150476D01*
X137614631Y-105320745D01*
X137614630Y-105320750D01*
X137594435Y-105499996D01*
X137594435Y-105500003D01*
X137614630Y-105679249D01*
X137614631Y-105679254D01*
X137659897Y-105808616D01*
X137674211Y-105849522D01*
X137707262Y-105902123D01*
X137728094Y-105935276D01*
X137747100Y-106001248D01*
X137747100Y-109848751D01*
X137728094Y-109914722D01*
X137674209Y-110000479D01*
X137614633Y-110170737D01*
X137614630Y-110170750D01*
X137594435Y-110349996D01*
X137594435Y-110350003D01*
X134094070Y-110350003D01*
X134125789Y-110299522D01*
X134185368Y-110129255D01*
X134191157Y-110077876D01*
X134205565Y-109950003D01*
X134205565Y-109949996D01*
X134185369Y-109770750D01*
X134185368Y-109770745D01*
X134139677Y-109640168D01*
X134125789Y-109600478D01*
X134029816Y-109447738D01*
X133902262Y-109320184D01*
X133749523Y-109224211D01*
X133579254Y-109164631D01*
X133579249Y-109164630D01*
X133400004Y-109144435D01*
X133399996Y-109144435D01*
X133220750Y-109164630D01*
X133220745Y-109164631D01*
X133050476Y-109224211D01*
X132897737Y-109320184D01*
X132770184Y-109447737D01*
X132674211Y-109600476D01*
X132614631Y-109770745D01*
X132614630Y-109770750D01*
X132594435Y-109949996D01*
X132594435Y-109950003D01*
X132614630Y-110129249D01*
X132614633Y-110129262D01*
X132674210Y-110299521D01*
X132678092Y-110305698D01*
X132697100Y-110371672D01*
X132697100Y-117148751D01*
X132678094Y-117214722D01*
X132624209Y-117300479D01*
X132564633Y-117470737D01*
X132564630Y-117470750D01*
X132544435Y-117649996D01*
X132544435Y-117650003D01*
X119843116Y-117650003D01*
X119885368Y-117529255D01*
X119887843Y-117507288D01*
X119905565Y-117350003D01*
X119905565Y-117349996D01*
X119885369Y-117170750D01*
X119885366Y-117170737D01*
X119825790Y-117000479D01*
X119771906Y-116914722D01*
X119752900Y-116848751D01*
X119752900Y-116385692D01*
X119727810Y-116259561D01*
X119727809Y-116259560D01*
X119727809Y-116259556D01*
X119678592Y-116140736D01*
X119637531Y-116079284D01*
X119607141Y-116033801D01*
X119433261Y-115859921D01*
X118866205Y-115292863D01*
X118866204Y-115292862D01*
X118861044Y-115289414D01*
X118759264Y-115221408D01*
X118640444Y-115172191D01*
X118640440Y-115172190D01*
X118635399Y-115171187D01*
X118630357Y-115170184D01*
X118630354Y-115170183D01*
X118630354Y-115170184D01*
X118514307Y-115147100D01*
X118514305Y-115147100D01*
X115051248Y-115147100D01*
X114985276Y-115128094D01*
X114899522Y-115074211D01*
X114729254Y-115014631D01*
X114729249Y-115014630D01*
X114550004Y-114994435D01*
X114549996Y-114994435D01*
X114370750Y-115014630D01*
X114370745Y-115014631D01*
X114200476Y-115074211D01*
X114047737Y-115170184D01*
X113920184Y-115297737D01*
X113824211Y-115450476D01*
X113764631Y-115620745D01*
X113764630Y-115620750D01*
X113744435Y-115799996D01*
X113744435Y-115800003D01*
X109647271Y-115800003D01*
X109615061Y-115735316D01*
X109615056Y-115735308D01*
X109480979Y-115557761D01*
X109316562Y-115407876D01*
X109316560Y-115407874D01*
X109191477Y-115330427D01*
X109144841Y-115278400D01*
X109133737Y-115209418D01*
X109161690Y-115145383D01*
X109191477Y-115119573D01*
X109316560Y-115042125D01*
X109316559Y-115042125D01*
X109316562Y-115042124D01*
X109480981Y-114892236D01*
X109615058Y-114714689D01*
X109714229Y-114515528D01*
X109775115Y-114301536D01*
X109795643Y-114080000D01*
X109775115Y-113858464D01*
X109714229Y-113644472D01*
X109714224Y-113644461D01*
X109615061Y-113445316D01*
X109615056Y-113445308D01*
X109480979Y-113267761D01*
X109316562Y-113117876D01*
X109316560Y-113117874D01*
X109127404Y-113000754D01*
X109127398Y-113000752D01*
X108919940Y-112920382D01*
X108701243Y-112879500D01*
X108478757Y-112879500D01*
X108260060Y-112920382D01*
X108128864Y-112971207D01*
X108052601Y-113000752D01*
X108052595Y-113000754D01*
X107863439Y-113117874D01*
X107863437Y-113117876D01*
X107699020Y-113267761D01*
X107564943Y-113445308D01*
X107564938Y-113445316D01*
X107465775Y-113644461D01*
X107465769Y-113644476D01*
X107404885Y-113858462D01*
X107404884Y-113858464D01*
X107384357Y-114079999D01*
X107384357Y-114080000D01*
X107404884Y-114301535D01*
X107404885Y-114301537D01*
X107465769Y-114515523D01*
X107465775Y-114515538D01*
X107564938Y-114714683D01*
X107564943Y-114714691D01*
X107699020Y-114892238D01*
X107863437Y-115042123D01*
X107863439Y-115042125D01*
X107988522Y-115119573D01*
X108035158Y-115171601D01*
X108046262Y-115240583D01*
X108018309Y-115304617D01*
X107988522Y-115330427D01*
X107863439Y-115407874D01*
X107863437Y-115407876D01*
X107699020Y-115557761D01*
X107564943Y-115735308D01*
X107564938Y-115735316D01*
X107465775Y-115934461D01*
X107465769Y-115934476D01*
X107404885Y-116148462D01*
X107404884Y-116148464D01*
X107384357Y-116369999D01*
X107384357Y-116370000D01*
X104367003Y-116370000D01*
X104234925Y-116237922D01*
X104234907Y-116237906D01*
X104023013Y-116079285D01*
X104023005Y-116079280D01*
X103790694Y-115952428D01*
X103790690Y-115952426D01*
X103542673Y-115859921D01*
X103284034Y-115803658D01*
X103284027Y-115803657D01*
X103020001Y-115784773D01*
X103019999Y-115784773D01*
X102755972Y-115803657D01*
X102755965Y-115803658D01*
X102497326Y-115859921D01*
X102249309Y-115952426D01*
X102249305Y-115952428D01*
X102016994Y-116079280D01*
X102016986Y-116079285D01*
X101805092Y-116237906D01*
X101805081Y-116237916D01*
X101774332Y-116268665D01*
X101713008Y-116302149D01*
X101643317Y-116297163D01*
X101587384Y-116255291D01*
X101562968Y-116189826D01*
X101563712Y-116164802D01*
X101585500Y-115999313D01*
X101585500Y-115720687D01*
X101549132Y-115444446D01*
X101477019Y-115175314D01*
X101475725Y-115172191D01*
X101410462Y-115014630D01*
X101370394Y-114917898D01*
X101370392Y-114917895D01*
X101370390Y-114917890D01*
X101231085Y-114676609D01*
X101231081Y-114676602D01*
X101107485Y-114515528D01*
X101061466Y-114455554D01*
X101061460Y-114455547D01*
X100864452Y-114258539D01*
X100864445Y-114258533D01*
X100643406Y-114088925D01*
X100643404Y-114088923D01*
X100643398Y-114088919D01*
X100643393Y-114088916D01*
X100643390Y-114088914D01*
X100402109Y-113949609D01*
X100402098Y-113949604D01*
X100144695Y-113842984D01*
X100144688Y-113842982D01*
X100144686Y-113842981D01*
X99875554Y-113770868D01*
X99875548Y-113770867D01*
X99875543Y-113770866D01*
X99599322Y-113734501D01*
X99599319Y-113734500D01*
X99599313Y-113734500D01*
X99320687Y-113734500D01*
X99320681Y-113734500D01*
X99320677Y-113734501D01*
X99044456Y-113770866D01*
X99044449Y-113770867D01*
X99044446Y-113770868D01*
X98775314Y-113842981D01*
X98775304Y-113842984D01*
X98517901Y-113949604D01*
X98517890Y-113949609D01*
X98276609Y-114088914D01*
X98276593Y-114088925D01*
X98055554Y-114258533D01*
X98055547Y-114258539D01*
X97858539Y-114455547D01*
X97858533Y-114455554D01*
X97688925Y-114676593D01*
X97688914Y-114676609D01*
X97549609Y-114917890D01*
X97549604Y-114917901D01*
X97442984Y-115175304D01*
X97442981Y-115175314D01*
X97380668Y-115407874D01*
X97370869Y-115444443D01*
X97370866Y-115444456D01*
X97334501Y-115720677D01*
X97334500Y-115720693D01*
X97334500Y-115999306D01*
X95000500Y-115999306D01*
X95000500Y-111040000D01*
X100794357Y-111040000D01*
X100814884Y-111261535D01*
X100814885Y-111261537D01*
X100875769Y-111475523D01*
X100875775Y-111475538D01*
X100974938Y-111674683D01*
X100974943Y-111674691D01*
X101109020Y-111852238D01*
X101273433Y-112002120D01*
X101273435Y-112002121D01*
X101273438Y-112002124D01*
X101282472Y-112007718D01*
X101303647Y-112031338D01*
X101304269Y-112030717D01*
X101911414Y-112637861D01*
X101826306Y-112660667D01*
X101723694Y-112719910D01*
X101639910Y-112803694D01*
X101580667Y-112906306D01*
X101557861Y-112991414D01*
X100991138Y-112424691D01*
X100991137Y-112424691D01*
X100975368Y-112445574D01*
X100876240Y-112644649D01*
X100815378Y-112858560D01*
X100794859Y-113079999D01*
X100794859Y-113080000D01*
X100815378Y-113301439D01*
X100876240Y-113515350D01*
X100975369Y-113714428D01*
X100991137Y-113735308D01*
X100991138Y-113735308D01*
X101557861Y-113168584D01*
X101580667Y-113253694D01*
X101639910Y-113356306D01*
X101723694Y-113440090D01*
X101826306Y-113499333D01*
X101911414Y-113522137D01*
X101346672Y-114086879D01*
X101346672Y-114086880D01*
X101462821Y-114158797D01*
X101462822Y-114158798D01*
X101670195Y-114239134D01*
X101888807Y-114280000D01*
X102111193Y-114280000D01*
X102329809Y-114239133D01*
X102537168Y-114158801D01*
X102537181Y-114158795D01*
X102653326Y-114086879D01*
X102088585Y-113522137D01*
X102173694Y-113499333D01*
X102276306Y-113440090D01*
X102360090Y-113356306D01*
X102419333Y-113253694D01*
X102442138Y-113168585D01*
X103008861Y-113735308D01*
X103024631Y-113714425D01*
X103024633Y-113714422D01*
X103123759Y-113515350D01*
X103184621Y-113301439D01*
X103186036Y-113286172D01*
X103211822Y-113221234D01*
X103268622Y-113180546D01*
X103338403Y-113177026D01*
X103354301Y-113181986D01*
X103450190Y-113219133D01*
X103668807Y-113260000D01*
X103891193Y-113260000D01*
X104109809Y-113219133D01*
X104317168Y-113138801D01*
X104317181Y-113138795D01*
X104433326Y-113066879D01*
X103868585Y-112502138D01*
X103953694Y-112479333D01*
X104056306Y-112420090D01*
X104140090Y-112336306D01*
X104199333Y-112233694D01*
X104222138Y-112148585D01*
X104788861Y-112715308D01*
X104804631Y-112694425D01*
X104804633Y-112694422D01*
X104903759Y-112495350D01*
X104964621Y-112281439D01*
X104985141Y-112060000D01*
X104985141Y-112059999D01*
X104964621Y-111838560D01*
X104903759Y-111624649D01*
X104804635Y-111425580D01*
X104804630Y-111425572D01*
X104788860Y-111404690D01*
X104222137Y-111971413D01*
X104199333Y-111886306D01*
X104140090Y-111783694D01*
X104056306Y-111699910D01*
X103953694Y-111640667D01*
X103868585Y-111617861D01*
X104136446Y-111350000D01*
X114494435Y-111350000D01*
X114514630Y-111529249D01*
X114514631Y-111529254D01*
X114574211Y-111699523D01*
X114595496Y-111733397D01*
X114670184Y-111852262D01*
X114797738Y-111979816D01*
X114950478Y-112075789D01*
X115074665Y-112119244D01*
X115120745Y-112135368D01*
X115120750Y-112135369D01*
X115299996Y-112155565D01*
X115300000Y-112155565D01*
X115300004Y-112155565D01*
X115479249Y-112135369D01*
X115479252Y-112135368D01*
X115479255Y-112135368D01*
X115649522Y-112075789D01*
X115735276Y-112021905D01*
X115801248Y-112002900D01*
X122750411Y-112002900D01*
X122866463Y-111979815D01*
X122876548Y-111977809D01*
X122995368Y-111928592D01*
X123102304Y-111857141D01*
X123657141Y-111302304D01*
X123728592Y-111195368D01*
X123777809Y-111076548D01*
X123777960Y-111075789D01*
X123795479Y-110987716D01*
X123802900Y-110950411D01*
X123802900Y-102401248D01*
X123821906Y-102335276D01*
X123830620Y-102321408D01*
X123875789Y-102249522D01*
X123935368Y-102079255D01*
X123935369Y-102079249D01*
X123955565Y-101900003D01*
X123955565Y-101899996D01*
X123935369Y-101720750D01*
X123935368Y-101720745D01*
X123908523Y-101644026D01*
X123875789Y-101550478D01*
X123779816Y-101397738D01*
X123652262Y-101270184D01*
X123619517Y-101249609D01*
X123499523Y-101174211D01*
X123329254Y-101114631D01*
X123329249Y-101114630D01*
X123150004Y-101094435D01*
X123149996Y-101094435D01*
X122970750Y-101114630D01*
X122970745Y-101114631D01*
X122800476Y-101174211D01*
X122647737Y-101270184D01*
X122520184Y-101397737D01*
X122424211Y-101550476D01*
X122364631Y-101720745D01*
X122364630Y-101720750D01*
X122344435Y-101899996D01*
X122344435Y-101900003D01*
X122364630Y-102079249D01*
X122364631Y-102079254D01*
X122424211Y-102249522D01*
X122478094Y-102335276D01*
X122497100Y-102401248D01*
X122497100Y-110564301D01*
X122477415Y-110631340D01*
X122460781Y-110651982D01*
X122451982Y-110660781D01*
X122390659Y-110694266D01*
X122364301Y-110697100D01*
X115801248Y-110697100D01*
X115735276Y-110678094D01*
X115698030Y-110654691D01*
X115649522Y-110624211D01*
X115593123Y-110604476D01*
X115479254Y-110564631D01*
X115479249Y-110564630D01*
X115300004Y-110544435D01*
X115299996Y-110544435D01*
X115120750Y-110564630D01*
X115120745Y-110564631D01*
X114950476Y-110624211D01*
X114797737Y-110720184D01*
X114670184Y-110847737D01*
X114574211Y-111000476D01*
X114514631Y-111170745D01*
X114514630Y-111170750D01*
X114494435Y-111349996D01*
X114494435Y-111350000D01*
X104136446Y-111350000D01*
X104475730Y-111010717D01*
X104476236Y-111011223D01*
X104497526Y-110987718D01*
X104506562Y-110982124D01*
X104670981Y-110832236D01*
X104805058Y-110654689D01*
X104816685Y-110631340D01*
X104904224Y-110455538D01*
X104904223Y-110455538D01*
X104904229Y-110455528D01*
X104965115Y-110241536D01*
X104985643Y-110020000D01*
X104965115Y-109798464D01*
X104904229Y-109584472D01*
X104904224Y-109584461D01*
X104805061Y-109385316D01*
X104805056Y-109385308D01*
X104670979Y-109207761D01*
X104543596Y-109091637D01*
X104507314Y-109031926D01*
X104509075Y-108962079D01*
X104543596Y-108908363D01*
X104670979Y-108792238D01*
X104681383Y-108778462D01*
X104805058Y-108614689D01*
X104904229Y-108415528D01*
X104965115Y-108201536D01*
X104985643Y-107980000D01*
X104972607Y-107839322D01*
X104965115Y-107758464D01*
X104965114Y-107758462D01*
X104954313Y-107720502D01*
X104904229Y-107544472D01*
X104904224Y-107544461D01*
X104805061Y-107345316D01*
X104805056Y-107345308D01*
X104670979Y-107167761D01*
X104543596Y-107051637D01*
X104507314Y-106991926D01*
X104509075Y-106922079D01*
X104543596Y-106868363D01*
X104670979Y-106752238D01*
X104681383Y-106738462D01*
X104805058Y-106574689D01*
X104904229Y-106375528D01*
X104965115Y-106161536D01*
X104985643Y-105940000D01*
X104982994Y-105911417D01*
X104965115Y-105718464D01*
X104965114Y-105718462D01*
X104953958Y-105679254D01*
X104904229Y-105504472D01*
X104902004Y-105500003D01*
X104805061Y-105305316D01*
X104805056Y-105305308D01*
X104670979Y-105127761D01*
X104506562Y-104977876D01*
X104506560Y-104977874D01*
X104445391Y-104940000D01*
X107384357Y-104940000D01*
X107404884Y-105161535D01*
X107404885Y-105161537D01*
X107465769Y-105375523D01*
X107465775Y-105375538D01*
X107564938Y-105574683D01*
X107564943Y-105574691D01*
X107699020Y-105752238D01*
X107863437Y-105902123D01*
X107863439Y-105902125D01*
X108052595Y-106019245D01*
X108052596Y-106019245D01*
X108052599Y-106019247D01*
X108260060Y-106099618D01*
X108478757Y-106140500D01*
X108478759Y-106140500D01*
X108701241Y-106140500D01*
X108701243Y-106140500D01*
X108919940Y-106099618D01*
X109127401Y-106019247D01*
X109316562Y-105902124D01*
X109480981Y-105752236D01*
X109615058Y-105574689D01*
X109714229Y-105375528D01*
X109775115Y-105161536D01*
X109795643Y-104940000D01*
X109775115Y-104718464D01*
X109714229Y-104504472D01*
X109714224Y-104504461D01*
X109615061Y-104305316D01*
X109615056Y-104305308D01*
X109480979Y-104127761D01*
X109316562Y-103977876D01*
X109316560Y-103977874D01*
X109191477Y-103900427D01*
X109144841Y-103848400D01*
X109133737Y-103779418D01*
X109161690Y-103715383D01*
X109191477Y-103689573D01*
X109216288Y-103674211D01*
X109316562Y-103612124D01*
X109480981Y-103462236D01*
X109615058Y-103284689D01*
X109714229Y-103085528D01*
X109775115Y-102871536D01*
X109795643Y-102650000D01*
X109775115Y-102428464D01*
X109714229Y-102214472D01*
X109698593Y-102183070D01*
X109615061Y-102015316D01*
X109615056Y-102015308D01*
X109480979Y-101837761D01*
X109316562Y-101687876D01*
X109316560Y-101687874D01*
X109127404Y-101570754D01*
X109127398Y-101570752D01*
X108919940Y-101490382D01*
X108701243Y-101449500D01*
X108478757Y-101449500D01*
X108260060Y-101490382D01*
X108128864Y-101541207D01*
X108052601Y-101570752D01*
X108052595Y-101570754D01*
X107863439Y-101687874D01*
X107863437Y-101687876D01*
X107699020Y-101837761D01*
X107564943Y-102015308D01*
X107564938Y-102015316D01*
X107465775Y-102214461D01*
X107465769Y-102214476D01*
X107404885Y-102428462D01*
X107404884Y-102428464D01*
X107384357Y-102649999D01*
X107384357Y-102650000D01*
X107404884Y-102871535D01*
X107404885Y-102871537D01*
X107465769Y-103085523D01*
X107465775Y-103085538D01*
X107564938Y-103284683D01*
X107564943Y-103284691D01*
X107699020Y-103462238D01*
X107863437Y-103612123D01*
X107863439Y-103612125D01*
X107988522Y-103689573D01*
X108035158Y-103741601D01*
X108046262Y-103810583D01*
X108018309Y-103874617D01*
X107988522Y-103900427D01*
X107863439Y-103977874D01*
X107863437Y-103977876D01*
X107699020Y-104127761D01*
X107564943Y-104305308D01*
X107564938Y-104305316D01*
X107465775Y-104504461D01*
X107465769Y-104504476D01*
X107404885Y-104718462D01*
X107404884Y-104718464D01*
X107384357Y-104939999D01*
X107384357Y-104940000D01*
X104445391Y-104940000D01*
X104317404Y-104860754D01*
X104317398Y-104860752D01*
X104109940Y-104780382D01*
X103891243Y-104739500D01*
X103668757Y-104739500D01*
X103450060Y-104780382D01*
X103340484Y-104822832D01*
X103242601Y-104860752D01*
X103242595Y-104860754D01*
X103053439Y-104977874D01*
X103053437Y-104977876D01*
X102889020Y-105127761D01*
X102754943Y-105305308D01*
X102754938Y-105305316D01*
X102655775Y-105504461D01*
X102655769Y-105504476D01*
X102594885Y-105718462D01*
X102594885Y-105718463D01*
X102593526Y-105733127D01*
X102567738Y-105798064D01*
X102510936Y-105838750D01*
X102441155Y-105842268D01*
X102425262Y-105837310D01*
X102351194Y-105808616D01*
X102329940Y-105800382D01*
X102111243Y-105759500D01*
X101888757Y-105759500D01*
X101670060Y-105800382D01*
X101648806Y-105808616D01*
X101462601Y-105880752D01*
X101462595Y-105880754D01*
X101273439Y-105997874D01*
X101273437Y-105997876D01*
X101109020Y-106147761D01*
X100974943Y-106325308D01*
X100974938Y-106325316D01*
X100875775Y-106524461D01*
X100875769Y-106524476D01*
X100814885Y-106738462D01*
X100814884Y-106738464D01*
X100794357Y-106959999D01*
X100794357Y-106960000D01*
X100814884Y-107181535D01*
X100814885Y-107181537D01*
X100875769Y-107395523D01*
X100875775Y-107395538D01*
X100974938Y-107594683D01*
X100974943Y-107594691D01*
X101109020Y-107772238D01*
X101236403Y-107888363D01*
X101272685Y-107948074D01*
X101270924Y-108017922D01*
X101236403Y-108071637D01*
X101109020Y-108187761D01*
X100974943Y-108365308D01*
X100974938Y-108365316D01*
X100875775Y-108564461D01*
X100875769Y-108564476D01*
X100814885Y-108778462D01*
X100814884Y-108778464D01*
X100794357Y-108999999D01*
X100794357Y-109000000D01*
X100814884Y-109221535D01*
X100814885Y-109221537D01*
X100875769Y-109435523D01*
X100875775Y-109435538D01*
X100974938Y-109634683D01*
X100974943Y-109634691D01*
X101109020Y-109812238D01*
X101236403Y-109928363D01*
X101272685Y-109988074D01*
X101270924Y-110057922D01*
X101236403Y-110111637D01*
X101109020Y-110227761D01*
X100974943Y-110405308D01*
X100974938Y-110405316D01*
X100875775Y-110604461D01*
X100875769Y-110604476D01*
X100814885Y-110818462D01*
X100814884Y-110818464D01*
X100794357Y-111039999D01*
X100794357Y-111040000D01*
X95000500Y-111040000D01*
X95000500Y-103299306D01*
X97334500Y-103299306D01*
X97334501Y-103299322D01*
X97370866Y-103575543D01*
X97370867Y-103575548D01*
X97370868Y-103575554D01*
X97442056Y-103841232D01*
X97442981Y-103844685D01*
X97442984Y-103844695D01*
X97549604Y-104102098D01*
X97549609Y-104102109D01*
X97688914Y-104343390D01*
X97688925Y-104343406D01*
X97858533Y-104564445D01*
X97858539Y-104564452D01*
X98055547Y-104761460D01*
X98055553Y-104761465D01*
X98276602Y-104931081D01*
X98276609Y-104931085D01*
X98517890Y-105070390D01*
X98517895Y-105070392D01*
X98517898Y-105070394D01*
X98656402Y-105127764D01*
X98737934Y-105161536D01*
X98775314Y-105177019D01*
X99044446Y-105249132D01*
X99320687Y-105285500D01*
X99320694Y-105285500D01*
X99599306Y-105285500D01*
X99599313Y-105285500D01*
X99875554Y-105249132D01*
X100144686Y-105177019D01*
X100402102Y-105070394D01*
X100643398Y-104931081D01*
X100864447Y-104761465D01*
X101061465Y-104564447D01*
X101231081Y-104343398D01*
X101370394Y-104102102D01*
X101477019Y-103844686D01*
X101549132Y-103575554D01*
X101585500Y-103299313D01*
X101585500Y-103020687D01*
X101563713Y-102855201D01*
X101574478Y-102786167D01*
X101620858Y-102733911D01*
X101688127Y-102715026D01*
X101754928Y-102735506D01*
X101774333Y-102751336D01*
X101805074Y-102782077D01*
X101805092Y-102782093D01*
X102016986Y-102940714D01*
X102016994Y-102940719D01*
X102249305Y-103067571D01*
X102249309Y-103067573D01*
X102249311Y-103067574D01*
X102497322Y-103160077D01*
X102497325Y-103160077D01*
X102497326Y-103160078D01*
X102627186Y-103188327D01*
X102755974Y-103216343D01*
X102999660Y-103233772D01*
X103019999Y-103235227D01*
X103020000Y-103235227D01*
X103020001Y-103235227D01*
X103038885Y-103233876D01*
X103284026Y-103216343D01*
X103542678Y-103160077D01*
X103790689Y-103067574D01*
X104023011Y-102940716D01*
X104234915Y-102782087D01*
X104422087Y-102594915D01*
X104580716Y-102383011D01*
X104707574Y-102150689D01*
X104800077Y-101902678D01*
X104856343Y-101644026D01*
X104875227Y-101380000D01*
X104856343Y-101115974D01*
X104800077Y-100857322D01*
X104707574Y-100609311D01*
X104661536Y-100525000D01*
X104580719Y-100376994D01*
X104580714Y-100376986D01*
X104422093Y-100165092D01*
X104422077Y-100165074D01*
X104234925Y-99977922D01*
X104234907Y-99977906D01*
X104023013Y-99819285D01*
X104023005Y-99819280D01*
X103790694Y-99692428D01*
X103790690Y-99692426D01*
X103542673Y-99599921D01*
X103284034Y-99543658D01*
X103284027Y-99543657D01*
X103020001Y-99524773D01*
X103019999Y-99524773D01*
X102755972Y-99543657D01*
X102755965Y-99543658D01*
X102497326Y-99599921D01*
X102249309Y-99692426D01*
X102249305Y-99692428D01*
X102016994Y-99819280D01*
X102016986Y-99819285D01*
X101805092Y-99977906D01*
X101805074Y-99977922D01*
X101617922Y-100165074D01*
X101617906Y-100165092D01*
X101459285Y-100376986D01*
X101459280Y-100376994D01*
X101332428Y-100609305D01*
X101332426Y-100609309D01*
X101239921Y-100857326D01*
X101183658Y-101115965D01*
X101183657Y-101115972D01*
X101164773Y-101379998D01*
X101164773Y-101380001D01*
X101177943Y-101564138D01*
X101163091Y-101632411D01*
X101113686Y-101681816D01*
X101045413Y-101696668D01*
X100979949Y-101672251D01*
X100966578Y-101660665D01*
X100864452Y-101558539D01*
X100864445Y-101558533D01*
X100643406Y-101388925D01*
X100643404Y-101388923D01*
X100643398Y-101388919D01*
X100643393Y-101388916D01*
X100643390Y-101388914D01*
X100402109Y-101249609D01*
X100402098Y-101249604D01*
X100144695Y-101142984D01*
X100144688Y-101142982D01*
X100144686Y-101142981D01*
X99875554Y-101070868D01*
X99875548Y-101070867D01*
X99875543Y-101070866D01*
X99599322Y-101034501D01*
X99599319Y-101034500D01*
X99599313Y-101034500D01*
X99320687Y-101034500D01*
X99320681Y-101034500D01*
X99320677Y-101034501D01*
X99044456Y-101070866D01*
X99044449Y-101070867D01*
X99044446Y-101070868D01*
X98822809Y-101130255D01*
X98775314Y-101142981D01*
X98775304Y-101142984D01*
X98517901Y-101249604D01*
X98517890Y-101249609D01*
X98276609Y-101388914D01*
X98276593Y-101388925D01*
X98055554Y-101558533D01*
X98055547Y-101558539D01*
X97858539Y-101755547D01*
X97858533Y-101755554D01*
X97688925Y-101976593D01*
X97688914Y-101976609D01*
X97549609Y-102217890D01*
X97549604Y-102217901D01*
X97442984Y-102475304D01*
X97442981Y-102475314D01*
X97373264Y-102735506D01*
X97370869Y-102744443D01*
X97370866Y-102744456D01*
X97334501Y-103020677D01*
X97334500Y-103020693D01*
X97334500Y-103299306D01*
X95000500Y-103299306D01*
X95000500Y-98121288D01*
X96149500Y-98121288D01*
X96181161Y-98361785D01*
X96243947Y-98596104D01*
X96336773Y-98820205D01*
X96336777Y-98820214D01*
X96358974Y-98858661D01*
X96458064Y-99030289D01*
X96458066Y-99030292D01*
X96458067Y-99030293D01*
X96605733Y-99222736D01*
X96605739Y-99222743D01*
X96777256Y-99394260D01*
X96777263Y-99394266D01*
X96849892Y-99449996D01*
X96969711Y-99541936D01*
X97179788Y-99663224D01*
X97403900Y-99756054D01*
X97638211Y-99818838D01*
X97818586Y-99842584D01*
X97878711Y-99850500D01*
X97878712Y-99850500D01*
X98121289Y-99850500D01*
X98169388Y-99844167D01*
X98361789Y-99818838D01*
X98596100Y-99756054D01*
X98820212Y-99663224D01*
X99030289Y-99541936D01*
X99150099Y-99450003D01*
X113894435Y-99450003D01*
X113914630Y-99629249D01*
X113914631Y-99629254D01*
X113974211Y-99799523D01*
X114070184Y-99952262D01*
X114197738Y-100079816D01*
X114286664Y-100135692D01*
X114333442Y-100165085D01*
X114350478Y-100175789D01*
X114520745Y-100235368D01*
X114520750Y-100235369D01*
X114699996Y-100255565D01*
X114700000Y-100255565D01*
X114700004Y-100255565D01*
X114879249Y-100235369D01*
X114879252Y-100235368D01*
X114879255Y-100235368D01*
X115049522Y-100175789D01*
X115135276Y-100121905D01*
X115201248Y-100102900D01*
X115378197Y-100102900D01*
X115445236Y-100122585D01*
X115465878Y-100139219D01*
X115760781Y-100434121D01*
X115794266Y-100495444D01*
X115797100Y-100521802D01*
X115797100Y-107701151D01*
X115778094Y-107767122D01*
X115724209Y-107852879D01*
X115664633Y-108023137D01*
X115664630Y-108023150D01*
X115644435Y-108202396D01*
X115644435Y-108202403D01*
X115664630Y-108381649D01*
X115664631Y-108381654D01*
X115724211Y-108551923D01*
X115801892Y-108675550D01*
X115820184Y-108704662D01*
X115947738Y-108832216D01*
X116100478Y-108928189D01*
X116197330Y-108962079D01*
X116270745Y-108987768D01*
X116270750Y-108987769D01*
X116326250Y-108994022D01*
X116390664Y-109021088D01*
X116429410Y-109076288D01*
X116474210Y-109204321D01*
X116485027Y-109221536D01*
X116570184Y-109357062D01*
X116697738Y-109484616D01*
X116850478Y-109580589D01*
X117005070Y-109634683D01*
X117020745Y-109640168D01*
X117020750Y-109640169D01*
X117199996Y-109660365D01*
X117200000Y-109660365D01*
X117200004Y-109660365D01*
X117379249Y-109640169D01*
X117379252Y-109640168D01*
X117379255Y-109640168D01*
X117549522Y-109580589D01*
X117702262Y-109484616D01*
X117829816Y-109357062D01*
X117925789Y-109204322D01*
X117985368Y-109034055D01*
X117986829Y-109021088D01*
X118005565Y-108854803D01*
X118005565Y-108854796D01*
X117985369Y-108675550D01*
X117985366Y-108675537D01*
X117925790Y-108505279D01*
X117871906Y-108419522D01*
X117852900Y-108353551D01*
X117852900Y-107965458D01*
X117827810Y-107839327D01*
X117827809Y-107839326D01*
X117827809Y-107839322D01*
X117778592Y-107720502D01*
X117777359Y-107718656D01*
X117764985Y-107700137D01*
X117764985Y-107700138D01*
X117707140Y-107613566D01*
X117684574Y-107591000D01*
X117674333Y-107580758D01*
X117640850Y-107519434D01*
X117638017Y-107493079D01*
X117638017Y-105312094D01*
X117657702Y-105245055D01*
X117710506Y-105199300D01*
X117748130Y-105188874D01*
X117779255Y-105185368D01*
X117949522Y-105125789D01*
X118102262Y-105029816D01*
X118229816Y-104902262D01*
X118325789Y-104749522D01*
X118385368Y-104579255D01*
X118387036Y-104564452D01*
X118405565Y-104400003D01*
X118405565Y-104399996D01*
X118385369Y-104220750D01*
X118385368Y-104220745D01*
X118356207Y-104137408D01*
X118325789Y-104050478D01*
X118229816Y-103897738D01*
X118102262Y-103770184D01*
X118070607Y-103750294D01*
X117949523Y-103674211D01*
X117779254Y-103614631D01*
X117779249Y-103614630D01*
X117600004Y-103594435D01*
X117599996Y-103594435D01*
X117420750Y-103614630D01*
X117420742Y-103614632D01*
X117267854Y-103668130D01*
X117198075Y-103671691D01*
X117137448Y-103636962D01*
X117105221Y-103574969D01*
X117102900Y-103551088D01*
X117102900Y-100135692D01*
X117077810Y-100009561D01*
X117077809Y-100009560D01*
X117077809Y-100009556D01*
X117028592Y-99890736D01*
X117024445Y-99884530D01*
X116957140Y-99783800D01*
X116957138Y-99783797D01*
X116159132Y-98985791D01*
X116159127Y-98985787D01*
X116116201Y-98942860D01*
X116116200Y-98942859D01*
X116009264Y-98871408D01*
X115890444Y-98822191D01*
X115890440Y-98822190D01*
X115885399Y-98821187D01*
X115880357Y-98820184D01*
X115880354Y-98820183D01*
X115880354Y-98820184D01*
X115764307Y-98797100D01*
X115764305Y-98797100D01*
X115201248Y-98797100D01*
X115135276Y-98778094D01*
X115049522Y-98724211D01*
X114879254Y-98664631D01*
X114879249Y-98664630D01*
X114700004Y-98644435D01*
X114699996Y-98644435D01*
X114520750Y-98664630D01*
X114520745Y-98664631D01*
X114350476Y-98724211D01*
X114197737Y-98820184D01*
X114070184Y-98947737D01*
X113974211Y-99100476D01*
X113914631Y-99270745D01*
X113914630Y-99270750D01*
X113894435Y-99449996D01*
X113894435Y-99450003D01*
X99150099Y-99450003D01*
X99222738Y-99394265D01*
X99394265Y-99222738D01*
X99541936Y-99030289D01*
X99663224Y-98820212D01*
X99756054Y-98596100D01*
X99818838Y-98361789D01*
X99850500Y-98121288D01*
X99850500Y-98050003D01*
X124994435Y-98050003D01*
X125014630Y-98229249D01*
X125014631Y-98229254D01*
X125074211Y-98399523D01*
X125170184Y-98552262D01*
X125297738Y-98679816D01*
X125309419Y-98687155D01*
X125331126Y-98704467D01*
X125683797Y-99057138D01*
X125683800Y-99057140D01*
X125790736Y-99128592D01*
X125909556Y-99177809D01*
X125909560Y-99177809D01*
X125909561Y-99177810D01*
X126035692Y-99202900D01*
X126035695Y-99202900D01*
X128728197Y-99202900D01*
X128795236Y-99222585D01*
X128815873Y-99239214D01*
X128951182Y-99374522D01*
X128984666Y-99435843D01*
X128987500Y-99462202D01*
X128987500Y-102804705D01*
X128987500Y-102804707D01*
X128987499Y-102804707D01*
X129011876Y-102927251D01*
X129012590Y-102930843D01*
X129061805Y-103049660D01*
X129133262Y-103156604D01*
X129133263Y-103156605D01*
X129993394Y-104016735D01*
X129993397Y-104016738D01*
X130059023Y-104060588D01*
X130061592Y-104062304D01*
X130100336Y-104088192D01*
X130219156Y-104137409D01*
X130219160Y-104137409D01*
X130219161Y-104137410D01*
X130345292Y-104162500D01*
X130345295Y-104162500D01*
X131359602Y-104162500D01*
X131426641Y-104182185D01*
X131472396Y-104234989D01*
X131482340Y-104304147D01*
X131464596Y-104352472D01*
X131451709Y-104372981D01*
X131392133Y-104543237D01*
X131392130Y-104543250D01*
X131371935Y-104722496D01*
X131371935Y-104722503D01*
X131392130Y-104901749D01*
X131392131Y-104901754D01*
X131451711Y-105072023D01*
X131517684Y-105177018D01*
X131547684Y-105224762D01*
X131675238Y-105352316D01*
X131827978Y-105448289D01*
X131920218Y-105480565D01*
X131998245Y-105507868D01*
X131998250Y-105507869D01*
X132177496Y-105528065D01*
X132177500Y-105528065D01*
X132177504Y-105528065D01*
X132356749Y-105507869D01*
X132356752Y-105507868D01*
X132356755Y-105507868D01*
X132527022Y-105448289D01*
X132679762Y-105352316D01*
X132738477Y-105293600D01*
X132799796Y-105260118D01*
X132869488Y-105265102D01*
X132892127Y-105276290D01*
X132897737Y-105279815D01*
X132897738Y-105279816D01*
X133050478Y-105375789D01*
X133220745Y-105435368D01*
X133220750Y-105435369D01*
X133399996Y-105455565D01*
X133400000Y-105455565D01*
X133400004Y-105455565D01*
X133579249Y-105435369D01*
X133579252Y-105435368D01*
X133579255Y-105435368D01*
X133749522Y-105375789D01*
X133902262Y-105279816D01*
X134029816Y-105152262D01*
X134074653Y-105080905D01*
X134126985Y-105034615D01*
X134196038Y-105023966D01*
X134259887Y-105052341D01*
X134284638Y-105080905D01*
X134345182Y-105177260D01*
X134345184Y-105177262D01*
X134472738Y-105304816D01*
X134625478Y-105400789D01*
X134761225Y-105448289D01*
X134795745Y-105460368D01*
X134795750Y-105460369D01*
X134974996Y-105480565D01*
X134975000Y-105480565D01*
X134975004Y-105480565D01*
X135154249Y-105460369D01*
X135154252Y-105460368D01*
X135154255Y-105460368D01*
X135324522Y-105400789D01*
X135477262Y-105304816D01*
X135604816Y-105177262D01*
X135700789Y-105024522D01*
X135760368Y-104854255D01*
X135763185Y-104829255D01*
X135780565Y-104675003D01*
X135780565Y-104674996D01*
X135760369Y-104495750D01*
X135760366Y-104495737D01*
X135700790Y-104325479D01*
X135646906Y-104239722D01*
X135627900Y-104173751D01*
X135627900Y-103010692D01*
X135602810Y-102884561D01*
X135602809Y-102884560D01*
X135602809Y-102884556D01*
X135553592Y-102765736D01*
X135543970Y-102751336D01*
X135540416Y-102746016D01*
X135482139Y-102658798D01*
X135482136Y-102658795D01*
X134816205Y-101992863D01*
X134816204Y-101992862D01*
X134816200Y-101992859D01*
X134709264Y-101921408D01*
X134590444Y-101872191D01*
X134590438Y-101872189D01*
X134464307Y-101847100D01*
X134464305Y-101847100D01*
X131721802Y-101847100D01*
X131654763Y-101827415D01*
X131634121Y-101810781D01*
X131339219Y-101515878D01*
X131305734Y-101454555D01*
X131302900Y-101428197D01*
X131302900Y-98121288D01*
X135649500Y-98121288D01*
X135681161Y-98361785D01*
X135743947Y-98596104D01*
X135836773Y-98820205D01*
X135836777Y-98820214D01*
X135858974Y-98858661D01*
X135958064Y-99030289D01*
X135958066Y-99030292D01*
X135958067Y-99030293D01*
X136105733Y-99222736D01*
X136105739Y-99222743D01*
X136277256Y-99394260D01*
X136277263Y-99394266D01*
X136349892Y-99449996D01*
X136469711Y-99541936D01*
X136679788Y-99663224D01*
X136903900Y-99756054D01*
X137138211Y-99818838D01*
X137318586Y-99842584D01*
X137378711Y-99850500D01*
X137378712Y-99850500D01*
X137621289Y-99850500D01*
X137669388Y-99844167D01*
X137861789Y-99818838D01*
X138096100Y-99756054D01*
X138320212Y-99663224D01*
X138530289Y-99541936D01*
X138722738Y-99394265D01*
X138894265Y-99222738D01*
X139041936Y-99030289D01*
X139163224Y-98820212D01*
X139256054Y-98596100D01*
X139318838Y-98361789D01*
X139350500Y-98121288D01*
X139350500Y-97878712D01*
X139318838Y-97638211D01*
X139256054Y-97403900D01*
X139163224Y-97179788D01*
X139041936Y-96969711D01*
X138894265Y-96777262D01*
X138894260Y-96777256D01*
X138722743Y-96605739D01*
X138722736Y-96605733D01*
X138530293Y-96458067D01*
X138530292Y-96458066D01*
X138530289Y-96458064D01*
X138323068Y-96338425D01*
X138320214Y-96336777D01*
X138320205Y-96336773D01*
X138096104Y-96243947D01*
X137861785Y-96181161D01*
X137621289Y-96149500D01*
X137621288Y-96149500D01*
X137378712Y-96149500D01*
X137378711Y-96149500D01*
X137138214Y-96181161D01*
X136903895Y-96243947D01*
X136679794Y-96336773D01*
X136679785Y-96336777D01*
X136469706Y-96458067D01*
X136277263Y-96605733D01*
X136277256Y-96605739D01*
X136105739Y-96777256D01*
X136105733Y-96777263D01*
X135958067Y-96969706D01*
X135836777Y-97179785D01*
X135836773Y-97179794D01*
X135743947Y-97403895D01*
X135681161Y-97638214D01*
X135649500Y-97878711D01*
X135649500Y-98121288D01*
X131302900Y-98121288D01*
X131302900Y-96651248D01*
X131321906Y-96585276D01*
X131375789Y-96499522D01*
X131435368Y-96329255D01*
X131435369Y-96329249D01*
X131455565Y-96150003D01*
X131455565Y-96149996D01*
X131435369Y-95970750D01*
X131435368Y-95970745D01*
X131375788Y-95800476D01*
X131336582Y-95738080D01*
X131279816Y-95647738D01*
X131152262Y-95520184D01*
X131036709Y-95447577D01*
X130999523Y-95424211D01*
X130829254Y-95364631D01*
X130829249Y-95364630D01*
X130650004Y-95344435D01*
X130649996Y-95344435D01*
X130470750Y-95364630D01*
X130470745Y-95364631D01*
X130300476Y-95424211D01*
X130147737Y-95520184D01*
X130020184Y-95647737D01*
X129924211Y-95800476D01*
X129864631Y-95970745D01*
X129864630Y-95970750D01*
X129844435Y-96149996D01*
X129844435Y-96150003D01*
X129864630Y-96329249D01*
X129864631Y-96329254D01*
X129924211Y-96499522D01*
X129978094Y-96585276D01*
X129997100Y-96651248D01*
X129997100Y-97073366D01*
X129977415Y-97140405D01*
X129924611Y-97186160D01*
X129870397Y-97195196D01*
X129870397Y-97197100D01*
X129851248Y-97197100D01*
X129785276Y-97178094D01*
X129699522Y-97124211D01*
X129529254Y-97064631D01*
X129529249Y-97064630D01*
X129350004Y-97044435D01*
X129349996Y-97044435D01*
X129170750Y-97064630D01*
X129170745Y-97064631D01*
X129000476Y-97124211D01*
X128847737Y-97220184D01*
X128720184Y-97347737D01*
X128624211Y-97500476D01*
X128564631Y-97670745D01*
X128564630Y-97670750D01*
X128551535Y-97786983D01*
X128524469Y-97851397D01*
X128466874Y-97890952D01*
X128428315Y-97897100D01*
X126682573Y-97897100D01*
X126615534Y-97877415D01*
X126569779Y-97824611D01*
X126565531Y-97814054D01*
X126525789Y-97700478D01*
X126429815Y-97547737D01*
X126302262Y-97420184D01*
X126149523Y-97324211D01*
X125979254Y-97264631D01*
X125979249Y-97264630D01*
X125800004Y-97244435D01*
X125799996Y-97244435D01*
X125620750Y-97264630D01*
X125620745Y-97264631D01*
X125450476Y-97324211D01*
X125297737Y-97420184D01*
X125170184Y-97547737D01*
X125074211Y-97700476D01*
X125014631Y-97870745D01*
X125014630Y-97870750D01*
X124994435Y-98049996D01*
X124994435Y-98050003D01*
X99850500Y-98050003D01*
X99850500Y-97878712D01*
X99818838Y-97638211D01*
X99756054Y-97403900D01*
X99663224Y-97179788D01*
X99541936Y-96969711D01*
X99394265Y-96777262D01*
X99394260Y-96777256D01*
X99222743Y-96605739D01*
X99222736Y-96605733D01*
X99030293Y-96458067D01*
X99030292Y-96458066D01*
X99030289Y-96458064D01*
X98823068Y-96338425D01*
X98820214Y-96336777D01*
X98820205Y-96336773D01*
X98596104Y-96243947D01*
X98361785Y-96181161D01*
X98121289Y-96149500D01*
X98121288Y-96149500D01*
X97878712Y-96149500D01*
X97878711Y-96149500D01*
X97638214Y-96181161D01*
X97403895Y-96243947D01*
X97179794Y-96336773D01*
X97179785Y-96336777D01*
X96969706Y-96458067D01*
X96777263Y-96605733D01*
X96777256Y-96605739D01*
X96605739Y-96777256D01*
X96605733Y-96777263D01*
X96458067Y-96969706D01*
X96336777Y-97179785D01*
X96336773Y-97179794D01*
X96243947Y-97403895D01*
X96181161Y-97638214D01*
X96149500Y-97878711D01*
X96149500Y-98121288D01*
X95000500Y-98121288D01*
X95000500Y-97503750D01*
X95000726Y-97496263D01*
X95017304Y-97222191D01*
X95018271Y-97206201D01*
X95020076Y-97191340D01*
X95021026Y-97186160D01*
X95071780Y-96909197D01*
X95075364Y-96894663D01*
X95160696Y-96620822D01*
X95165998Y-96606841D01*
X95283731Y-96345249D01*
X95290676Y-96332016D01*
X95439080Y-96086526D01*
X95447567Y-96074230D01*
X95624480Y-95848417D01*
X95634395Y-95837226D01*
X95837226Y-95634395D01*
X95848417Y-95624480D01*
X96074230Y-95447567D01*
X96086526Y-95439080D01*
X96332016Y-95290676D01*
X96345249Y-95283731D01*
X96606841Y-95165998D01*
X96620822Y-95160696D01*
X96894668Y-95075362D01*
X96909197Y-95071780D01*
X97191344Y-95020075D01*
X97206201Y-95018271D01*
X97496264Y-95000726D01*
X97503751Y-95000500D01*
X97565892Y-95000500D01*
X146934110Y-95000500D01*
X146996251Y-95000500D01*
X147003738Y-95000726D01*
G37*
G04 #@! TD.AperFunction*
M02*
