G04 #@! TF.GenerationSoftware,KiCad,Pcbnew,8.0.0*
G04 #@! TF.CreationDate,2024-03-12T12:46:25+03:00*
G04 #@! TF.ProjectId,Maxxfan_ethernet_controller,4d617878-6661-46e5-9f65-746865726e65,rev?*
G04 #@! TF.SameCoordinates,Original*
G04 #@! TF.FileFunction,Soldermask,Top*
G04 #@! TF.FilePolarity,Negative*
%FSLAX46Y46*%
G04 Gerber Fmt 4.6, Leading zero omitted, Abs format (unit mm)*
G04 Created by KiCad (PCBNEW 8.0.0) date 2024-03-12 12:46:25*
%MOMM*%
%LPD*%
G01*
G04 APERTURE LIST*
G04 Aperture macros list*
%AMRoundRect*
0 Rectangle with rounded corners*
0 $1 Rounding radius*
0 $2 $3 $4 $5 $6 $7 $8 $9 X,Y pos of 4 corners*
0 Add a 4 corners polygon primitive as box body*
4,1,4,$2,$3,$4,$5,$6,$7,$8,$9,$2,$3,0*
0 Add four circle primitives for the rounded corners*
1,1,$1+$1,$2,$3*
1,1,$1+$1,$4,$5*
1,1,$1+$1,$6,$7*
1,1,$1+$1,$8,$9*
0 Add four rect primitives between the rounded corners*
20,1,$1+$1,$2,$3,$4,$5,0*
20,1,$1+$1,$4,$5,$6,$7,0*
20,1,$1+$1,$6,$7,$8,$9,0*
20,1,$1+$1,$8,$9,$2,$3,0*%
%AMFreePoly0*
4,1,19,0.000000,0.744911,0.071157,0.744911,0.207708,0.704816,0.327430,0.627875,0.420627,0.520320,0.479746,0.390866,0.500000,0.250000,0.500000,-0.250000,0.479746,-0.390866,0.420627,-0.520320,0.327430,-0.627875,0.207708,-0.704816,0.071157,-0.744911,0.000000,-0.744911,0.000000,-0.750000,-0.500000,-0.750000,-0.500000,0.750000,0.000000,0.750000,0.000000,0.744911,0.000000,0.744911,
$1*%
%AMFreePoly1*
4,1,19,0.500000,-0.750000,0.000000,-0.750000,0.000000,-0.744911,-0.071157,-0.744911,-0.207708,-0.704816,-0.327430,-0.627875,-0.420627,-0.520320,-0.479746,-0.390866,-0.500000,-0.250000,-0.500000,0.250000,-0.479746,0.390866,-0.420627,0.520320,-0.327430,0.627875,-0.207708,0.704816,-0.071157,0.744911,0.000000,0.744911,0.000000,0.750000,0.500000,0.750000,0.500000,-0.750000,0.500000,-0.750000,
$1*%
G04 Aperture macros list end*
%ADD10RoundRect,0.250000X0.625000X-0.350000X0.625000X0.350000X-0.625000X0.350000X-0.625000X-0.350000X0*%
%ADD11O,1.750000X1.200000*%
%ADD12FreePoly0,180.000000*%
%ADD13FreePoly1,180.000000*%
%ADD14FreePoly0,0.000000*%
%ADD15FreePoly1,0.000000*%
%ADD16RoundRect,0.150000X-0.587500X-0.150000X0.587500X-0.150000X0.587500X0.150000X-0.587500X0.150000X0*%
%ADD17RoundRect,0.200000X0.275000X-0.200000X0.275000X0.200000X-0.275000X0.200000X-0.275000X-0.200000X0*%
%ADD18RoundRect,0.200000X0.200000X0.275000X-0.200000X0.275000X-0.200000X-0.275000X0.200000X-0.275000X0*%
%ADD19C,3.200000*%
%ADD20RoundRect,0.200000X-0.275000X0.200000X-0.275000X-0.200000X0.275000X-0.200000X0.275000X0.200000X0*%
%ADD21C,1.400000*%
%ADD22C,1.625000*%
%ADD23C,2.700000*%
%ADD24R,0.600000X2.000000*%
%ADD25RoundRect,0.225000X-0.225000X-0.250000X0.225000X-0.250000X0.225000X0.250000X-0.225000X0.250000X0*%
G04 APERTURE END LIST*
D10*
X144600000Y-118450000D03*
D11*
X144600000Y-116450000D03*
X144600000Y-114450000D03*
X144600000Y-112450000D03*
X144600000Y-100900000D03*
X144600000Y-102900000D03*
X144600000Y-104900000D03*
D10*
X144600000Y-106900000D03*
D12*
X130600000Y-98000000D03*
D13*
X131900000Y-98000000D03*
D14*
X124900000Y-98000000D03*
D15*
X123600000Y-98000000D03*
D16*
X121175000Y-118350000D03*
X121175000Y-120250000D03*
X123050000Y-119300000D03*
D17*
X135312500Y-103650000D03*
X135312500Y-102000000D03*
D18*
X113525000Y-99450000D03*
X111875000Y-99450000D03*
D14*
X128350000Y-98000000D03*
D15*
X127050000Y-98000000D03*
D16*
X121200000Y-101850000D03*
X121200000Y-103750000D03*
X123075000Y-102800000D03*
D18*
X113475000Y-114250000D03*
X111825000Y-114250000D03*
D16*
X111900000Y-117600000D03*
X111900000Y-119500000D03*
X113775000Y-118550000D03*
D19*
X137500000Y-121000000D03*
X137500000Y-98000000D03*
D20*
X138400000Y-111325000D03*
X138400000Y-112975000D03*
D16*
X111850000Y-103050000D03*
X111850000Y-104950000D03*
X113725000Y-104000000D03*
D21*
X103780000Y-105940000D03*
X102000000Y-106960000D03*
X103780000Y-107980000D03*
X102000000Y-109000000D03*
X103780000Y-110020000D03*
X102000000Y-111040000D03*
X103780000Y-112060000D03*
X102000000Y-113080000D03*
X108590000Y-102650000D03*
X108590000Y-104940000D03*
X108590000Y-114080000D03*
X108590000Y-116370000D03*
D22*
X99460000Y-103160000D03*
X99460000Y-115860000D03*
D23*
X103020000Y-101380000D03*
X103020000Y-117640000D03*
D20*
X117650000Y-118375000D03*
X117650000Y-120025000D03*
D18*
X113525000Y-108650000D03*
X111875000Y-108650000D03*
D17*
X119362500Y-103425000D03*
X119362500Y-101775000D03*
D20*
X138450000Y-106600000D03*
X138450000Y-108250000D03*
X131962500Y-102000000D03*
X131962500Y-103650000D03*
D18*
X113475000Y-115800000D03*
X111825000Y-115800000D03*
D19*
X98000000Y-121000000D03*
D17*
X117812500Y-103450000D03*
X117812500Y-101800000D03*
D18*
X113525000Y-101050000D03*
X111875000Y-101050000D03*
D24*
X118207500Y-115475000D03*
X119477500Y-115475000D03*
X120747500Y-115475000D03*
X122017500Y-115475000D03*
X123287500Y-115475000D03*
X124557500Y-115475000D03*
X125827500Y-115475000D03*
X127097500Y-115475000D03*
X128367500Y-115475000D03*
X129637500Y-115475000D03*
X130907500Y-115475000D03*
X132177500Y-115475000D03*
X133447500Y-115475000D03*
X134717500Y-115475000D03*
X134717500Y-106075000D03*
X133447500Y-106075000D03*
X132177500Y-106075000D03*
X130907500Y-106075000D03*
X129637500Y-106075000D03*
X128367500Y-106075000D03*
X127097500Y-106075000D03*
X125827500Y-106075000D03*
X124557500Y-106075000D03*
X123287500Y-106075000D03*
X122017500Y-106075000D03*
X120747500Y-106075000D03*
X119477500Y-106075000D03*
X118207500Y-106075000D03*
D19*
X98000000Y-98000000D03*
D20*
X130312500Y-102000000D03*
X130312500Y-103650000D03*
D18*
X113525000Y-107100000D03*
X111875000Y-107100000D03*
D16*
X111875000Y-110450000D03*
X111875000Y-112350000D03*
X113750000Y-111400000D03*
D20*
X133562500Y-102000000D03*
X133562500Y-103650000D03*
D17*
X119312500Y-120025000D03*
X119312500Y-118375000D03*
D25*
X128187500Y-117575000D03*
X129737500Y-117575000D03*
M02*
