G04 #@! TF.GenerationSoftware,KiCad,Pcbnew,8.0.0*
G04 #@! TF.CreationDate,2024-03-12T12:46:25+03:00*
G04 #@! TF.ProjectId,Maxxfan_ethernet_controller,4d617878-6661-46e5-9f65-746865726e65,rev?*
G04 #@! TF.SameCoordinates,Original*
G04 #@! TF.FileFunction,Legend,Top*
G04 #@! TF.FilePolarity,Positive*
%FSLAX46Y46*%
G04 Gerber Fmt 4.6, Leading zero omitted, Abs format (unit mm)*
G04 Created by KiCad (PCBNEW 8.0.0) date 2024-03-12 12:46:25*
%MOMM*%
%LPD*%
G01*
G04 APERTURE LIST*
%ADD10C,0.087500*%
%ADD11C,0.093750*%
%ADD12C,0.150000*%
%ADD13C,0.120000*%
%ADD14C,0.100000*%
%ADD15C,0.200000*%
%ADD16C,1.625000*%
G04 APERTURE END LIST*
D10*
G36*
X141146632Y-116940258D02*
G01*
X141109527Y-116938334D01*
X141073863Y-116932564D01*
X141050889Y-116926580D01*
X141015204Y-116913210D01*
X140981493Y-116895325D01*
X140966601Y-116885547D01*
X140935608Y-116860865D01*
X140906252Y-116831669D01*
X140893255Y-116816671D01*
X140954291Y-116709448D01*
X140982746Y-116740592D01*
X141013099Y-116765847D01*
X141042341Y-116783698D01*
X141076340Y-116797743D01*
X141112278Y-116805958D01*
X141146632Y-116808367D01*
X141182525Y-116805863D01*
X141217770Y-116797062D01*
X141250555Y-116779850D01*
X141264431Y-116768311D01*
X141289956Y-116733415D01*
X141304314Y-116685068D01*
X141306318Y-116654494D01*
X141306318Y-116653761D01*
X141300962Y-116604552D01*
X141287341Y-116571207D01*
X141259278Y-116539035D01*
X141238272Y-116525778D01*
X141203822Y-116511550D01*
X141169411Y-116500980D01*
X141160652Y-116498667D01*
X141157404Y-116497934D01*
X141154326Y-116497201D01*
X141147145Y-116495247D01*
X141109771Y-116485164D01*
X141073066Y-116473191D01*
X141038553Y-116459083D01*
X141032937Y-116456413D01*
X141001762Y-116435095D01*
X140974145Y-116403748D01*
X140957711Y-116377278D01*
X140939897Y-116332103D01*
X140930120Y-116281117D01*
X140926545Y-116227154D01*
X140926423Y-116214124D01*
X140926423Y-116213635D01*
X140928722Y-116163592D01*
X140936670Y-116113064D01*
X140950294Y-116067879D01*
X140955488Y-116055366D01*
X140978719Y-116013890D01*
X141005273Y-115982597D01*
X141037002Y-115957409D01*
X141040460Y-115955226D01*
X141073597Y-115938579D01*
X141110304Y-115927380D01*
X141145930Y-115921999D01*
X141174501Y-115920788D01*
X141209463Y-115923364D01*
X141243824Y-115931092D01*
X141248360Y-115932512D01*
X141282237Y-115945971D01*
X141315589Y-115964368D01*
X141319996Y-115967194D01*
X141350734Y-115989621D01*
X141381014Y-116016722D01*
X141389581Y-116025324D01*
X141333674Y-116136699D01*
X141303821Y-116108145D01*
X141271534Y-116083879D01*
X141254173Y-116073684D01*
X141219400Y-116059325D01*
X141184497Y-116053007D01*
X141174501Y-116052679D01*
X141136734Y-116055925D01*
X141100703Y-116067145D01*
X141068282Y-116088743D01*
X141063199Y-116093712D01*
X141039028Y-116129112D01*
X141025432Y-116178314D01*
X141023534Y-116209483D01*
X141023534Y-116209972D01*
X141029276Y-116258524D01*
X141043879Y-116291060D01*
X141071799Y-116320730D01*
X141095000Y-116334780D01*
X141128875Y-116348221D01*
X141163440Y-116359207D01*
X141179801Y-116363845D01*
X141183391Y-116365066D01*
X141187152Y-116366043D01*
X141192281Y-116367508D01*
X141197581Y-116368729D01*
X141231694Y-116379712D01*
X141265694Y-116393183D01*
X141298350Y-116409545D01*
X141303754Y-116412693D01*
X141336029Y-116438491D01*
X141361715Y-116471464D01*
X141374877Y-116494759D01*
X141391133Y-116538622D01*
X141400056Y-116587012D01*
X141403318Y-116637498D01*
X141403429Y-116649609D01*
X141403429Y-116651074D01*
X141401036Y-116700370D01*
X141392761Y-116750249D01*
X141378576Y-116794976D01*
X141373168Y-116807390D01*
X141349151Y-116848390D01*
X141321742Y-116879302D01*
X141289024Y-116904156D01*
X141285460Y-116906308D01*
X141251253Y-116922719D01*
X141217668Y-116932798D01*
X141181092Y-116938633D01*
X141146632Y-116940258D01*
G37*
G36*
X141768621Y-116940258D02*
G01*
X141733391Y-116937388D01*
X141696388Y-116927299D01*
X141662170Y-116909945D01*
X141640907Y-116894340D01*
X141611901Y-116865341D01*
X141586817Y-116830275D01*
X141565655Y-116789143D01*
X141555593Y-116763670D01*
X141540964Y-116714028D01*
X141531980Y-116666367D01*
X141526779Y-116615377D01*
X141525331Y-116568032D01*
X141525331Y-116293991D01*
X141527222Y-116239983D01*
X141532896Y-116189333D01*
X141542353Y-116142042D01*
X141555593Y-116098108D01*
X141574576Y-116053587D01*
X141597481Y-116015093D01*
X141624308Y-115982626D01*
X141640907Y-115967194D01*
X141673267Y-115944762D01*
X141708412Y-115929670D01*
X141746344Y-115921921D01*
X141768621Y-115920788D01*
X141805283Y-115924390D01*
X141840041Y-115935195D01*
X141872896Y-115953203D01*
X141879239Y-115957669D01*
X141909142Y-115983572D01*
X141935806Y-116015486D01*
X141959231Y-116053410D01*
X141963527Y-116061716D01*
X141982638Y-116105899D01*
X141997441Y-116154185D01*
X142007080Y-116201150D01*
X142009518Y-116217543D01*
X141908988Y-116217543D01*
X141895886Y-116170803D01*
X141878555Y-116134256D01*
X141853725Y-116099896D01*
X141828290Y-116077592D01*
X141795189Y-116061398D01*
X141768621Y-116057564D01*
X141733218Y-116063221D01*
X141699716Y-116081836D01*
X141693565Y-116087117D01*
X141666588Y-116120029D01*
X141645921Y-116163353D01*
X141643642Y-116169916D01*
X141632130Y-116216080D01*
X141626486Y-116268048D01*
X141625861Y-116293991D01*
X141625861Y-116568032D01*
X141628362Y-116618269D01*
X141636714Y-116667422D01*
X141643642Y-116691618D01*
X141661949Y-116733793D01*
X141687665Y-116768709D01*
X141693565Y-116774417D01*
X141726151Y-116795279D01*
X141760699Y-116803226D01*
X141768621Y-116803482D01*
X141802954Y-116797686D01*
X141828461Y-116785163D01*
X141858448Y-116758639D01*
X141878555Y-116730209D01*
X141897788Y-116687491D01*
X141908988Y-116643503D01*
X142009518Y-116643503D01*
X142001028Y-116691693D01*
X141987471Y-116741295D01*
X141969572Y-116786747D01*
X141963356Y-116799574D01*
X141940399Y-116838595D01*
X141914269Y-116871702D01*
X141884967Y-116898893D01*
X141878726Y-116903621D01*
X141846302Y-116922941D01*
X141812074Y-116935106D01*
X141776044Y-116940115D01*
X141768621Y-116940258D01*
G37*
G36*
X142145610Y-115931290D02*
G01*
X142243747Y-115931290D01*
X142243747Y-116930000D01*
X142145610Y-116930000D01*
X142145610Y-115931290D01*
G37*
G36*
X142194678Y-116796643D02*
G01*
X142594748Y-116796643D01*
X142594748Y-116930000D01*
X142194678Y-116930000D01*
X142194678Y-116796643D01*
G37*
D11*
G36*
X141202864Y-119040258D02*
G01*
X141167565Y-119037276D01*
X141131860Y-119027109D01*
X141099427Y-119009727D01*
X141068412Y-118982983D01*
X141042302Y-118948545D01*
X141027620Y-118921311D01*
X141010045Y-118874382D01*
X140998876Y-118825511D01*
X140993255Y-118781360D01*
X141093272Y-118781360D01*
X141102555Y-118828663D01*
X141111908Y-118851458D01*
X141138323Y-118884660D01*
X141149180Y-118892247D01*
X141182636Y-118904093D01*
X141202864Y-118905680D01*
X141238732Y-118899553D01*
X141271212Y-118877256D01*
X141278262Y-118868555D01*
X141297651Y-118827149D01*
X141305038Y-118776593D01*
X141305275Y-118764263D01*
X141305275Y-118733977D01*
X141301693Y-118682549D01*
X141288458Y-118634704D01*
X141279801Y-118618206D01*
X141251298Y-118588929D01*
X141216357Y-118577776D01*
X141207822Y-118577418D01*
X141158241Y-118577418D01*
X141158241Y-118444061D01*
X141207822Y-118444061D01*
X141242111Y-118436387D01*
X141271252Y-118409134D01*
X141288861Y-118363631D01*
X141293798Y-118313943D01*
X141293820Y-118309972D01*
X141293820Y-118279197D01*
X141288598Y-118229688D01*
X141270055Y-118187850D01*
X141239160Y-118162694D01*
X141205238Y-118155642D01*
X141202522Y-118155610D01*
X141167901Y-118163166D01*
X141157728Y-118169043D01*
X141129615Y-118200150D01*
X141124218Y-118210076D01*
X141108967Y-118255057D01*
X141104385Y-118279930D01*
X141004881Y-118279930D01*
X141012534Y-118231081D01*
X141024810Y-118182637D01*
X141041127Y-118139734D01*
X141063126Y-118099904D01*
X141089116Y-118067973D01*
X141108660Y-118051074D01*
X141141013Y-118032619D01*
X141176781Y-118022681D01*
X141202522Y-118020788D01*
X141240069Y-118024049D01*
X141273722Y-118033831D01*
X141307414Y-118052997D01*
X141336019Y-118080680D01*
X141342376Y-118088932D01*
X141366343Y-118131550D01*
X141381063Y-118176860D01*
X141389584Y-118229163D01*
X141391957Y-118280662D01*
X141391957Y-118297027D01*
X141388603Y-118346297D01*
X141377295Y-118394846D01*
X141363576Y-118427697D01*
X141338972Y-118465054D01*
X141307733Y-118493963D01*
X141283220Y-118508541D01*
X141316496Y-118524049D01*
X141347275Y-118551192D01*
X141371953Y-118588897D01*
X141389864Y-118635953D01*
X141399695Y-118685794D01*
X141403289Y-118736401D01*
X141403412Y-118748387D01*
X141403412Y-118764752D01*
X141401108Y-118816897D01*
X141393251Y-118868471D01*
X141379818Y-118913984D01*
X141359222Y-118956173D01*
X141332566Y-118990051D01*
X141311430Y-119008018D01*
X141278314Y-119026373D01*
X141244388Y-119036448D01*
X141206821Y-119040226D01*
X141202864Y-119040258D01*
G37*
G36*
X141482058Y-118031290D02*
G01*
X141588914Y-118031290D01*
X141756636Y-118814333D01*
X141924528Y-118031290D01*
X142031214Y-118031290D01*
X141803311Y-119030000D01*
X141710132Y-119030000D01*
X141482058Y-118031290D01*
G37*
G36*
X142295704Y-119040258D02*
G01*
X142260405Y-119037276D01*
X142224700Y-119027109D01*
X142192267Y-119009727D01*
X142161252Y-118982983D01*
X142135142Y-118948545D01*
X142120460Y-118921311D01*
X142102885Y-118874382D01*
X142091717Y-118825511D01*
X142086095Y-118781360D01*
X142186113Y-118781360D01*
X142195396Y-118828663D01*
X142204748Y-118851458D01*
X142231163Y-118884660D01*
X142242020Y-118892247D01*
X142275476Y-118904093D01*
X142295704Y-118905680D01*
X142331572Y-118899553D01*
X142364052Y-118877256D01*
X142371102Y-118868555D01*
X142390491Y-118827149D01*
X142397878Y-118776593D01*
X142398115Y-118764263D01*
X142398115Y-118733977D01*
X142394533Y-118682549D01*
X142381298Y-118634704D01*
X142372641Y-118618206D01*
X142344138Y-118588929D01*
X142309197Y-118577776D01*
X142300662Y-118577418D01*
X142251081Y-118577418D01*
X142251081Y-118444061D01*
X142300662Y-118444061D01*
X142334951Y-118436387D01*
X142364092Y-118409134D01*
X142381702Y-118363631D01*
X142386638Y-118313943D01*
X142386660Y-118309972D01*
X142386660Y-118279197D01*
X142381439Y-118229688D01*
X142362896Y-118187850D01*
X142332000Y-118162694D01*
X142298078Y-118155642D01*
X142295362Y-118155610D01*
X142260741Y-118163166D01*
X142250568Y-118169043D01*
X142222456Y-118200150D01*
X142217058Y-118210076D01*
X142201807Y-118255057D01*
X142197226Y-118279930D01*
X142097721Y-118279930D01*
X142105375Y-118231081D01*
X142117650Y-118182637D01*
X142133967Y-118139734D01*
X142155966Y-118099904D01*
X142181956Y-118067973D01*
X142201500Y-118051074D01*
X142233853Y-118032619D01*
X142269621Y-118022681D01*
X142295362Y-118020788D01*
X142332909Y-118024049D01*
X142366562Y-118033831D01*
X142400254Y-118052997D01*
X142428859Y-118080680D01*
X142435216Y-118088932D01*
X142459183Y-118131550D01*
X142473903Y-118176860D01*
X142482425Y-118229163D01*
X142484797Y-118280662D01*
X142484797Y-118297027D01*
X142481444Y-118346297D01*
X142470135Y-118394846D01*
X142456416Y-118427697D01*
X142431812Y-118465054D01*
X142400573Y-118493963D01*
X142376060Y-118508541D01*
X142409336Y-118524049D01*
X142440115Y-118551192D01*
X142464794Y-118588897D01*
X142482704Y-118635953D01*
X142492535Y-118685794D01*
X142496129Y-118736401D01*
X142496252Y-118748387D01*
X142496252Y-118764752D01*
X142493948Y-118816897D01*
X142486091Y-118868471D01*
X142472658Y-118913984D01*
X142452062Y-118956173D01*
X142425406Y-118990051D01*
X142404270Y-119008018D01*
X142371155Y-119026373D01*
X142337228Y-119036448D01*
X142299661Y-119040226D01*
X142295704Y-119040258D01*
G37*
D10*
G36*
X141046632Y-114940258D02*
G01*
X141009527Y-114938334D01*
X140973863Y-114932564D01*
X140950889Y-114926580D01*
X140915204Y-114913210D01*
X140881493Y-114895325D01*
X140866601Y-114885547D01*
X140835608Y-114860865D01*
X140806252Y-114831669D01*
X140793255Y-114816671D01*
X140854291Y-114709448D01*
X140882746Y-114740592D01*
X140913099Y-114765847D01*
X140942341Y-114783698D01*
X140976340Y-114797743D01*
X141012278Y-114805958D01*
X141046632Y-114808367D01*
X141082525Y-114805863D01*
X141117770Y-114797062D01*
X141150555Y-114779850D01*
X141164431Y-114768311D01*
X141189956Y-114733415D01*
X141204314Y-114685068D01*
X141206318Y-114654494D01*
X141206318Y-114653761D01*
X141200962Y-114604552D01*
X141187341Y-114571207D01*
X141159278Y-114539035D01*
X141138272Y-114525778D01*
X141103822Y-114511550D01*
X141069411Y-114500980D01*
X141060652Y-114498667D01*
X141057404Y-114497934D01*
X141054326Y-114497201D01*
X141047145Y-114495247D01*
X141009771Y-114485164D01*
X140973066Y-114473191D01*
X140938553Y-114459083D01*
X140932937Y-114456413D01*
X140901762Y-114435095D01*
X140874145Y-114403748D01*
X140857711Y-114377278D01*
X140839897Y-114332103D01*
X140830120Y-114281117D01*
X140826545Y-114227154D01*
X140826423Y-114214124D01*
X140826423Y-114213635D01*
X140828722Y-114163592D01*
X140836670Y-114113064D01*
X140850294Y-114067879D01*
X140855488Y-114055366D01*
X140878719Y-114013890D01*
X140905273Y-113982597D01*
X140937002Y-113957409D01*
X140940460Y-113955226D01*
X140973597Y-113938579D01*
X141010304Y-113927380D01*
X141045930Y-113921999D01*
X141074501Y-113920788D01*
X141109463Y-113923364D01*
X141143824Y-113931092D01*
X141148360Y-113932512D01*
X141182237Y-113945971D01*
X141215589Y-113964368D01*
X141219996Y-113967194D01*
X141250734Y-113989621D01*
X141281014Y-114016722D01*
X141289581Y-114025324D01*
X141233674Y-114136699D01*
X141203821Y-114108145D01*
X141171534Y-114083879D01*
X141154173Y-114073684D01*
X141119400Y-114059325D01*
X141084497Y-114053007D01*
X141074501Y-114052679D01*
X141036734Y-114055925D01*
X141000703Y-114067145D01*
X140968282Y-114088743D01*
X140963199Y-114093712D01*
X140939028Y-114129112D01*
X140925432Y-114178314D01*
X140923534Y-114209483D01*
X140923534Y-114209972D01*
X140929276Y-114258524D01*
X140943879Y-114291060D01*
X140971799Y-114320730D01*
X140995000Y-114334780D01*
X141028875Y-114348221D01*
X141063440Y-114359207D01*
X141079801Y-114363845D01*
X141083391Y-114365066D01*
X141087152Y-114366043D01*
X141092281Y-114367508D01*
X141097581Y-114368729D01*
X141131694Y-114379712D01*
X141165694Y-114393183D01*
X141198350Y-114409545D01*
X141203754Y-114412693D01*
X141236029Y-114438491D01*
X141261715Y-114471464D01*
X141274877Y-114494759D01*
X141291133Y-114538622D01*
X141300056Y-114587012D01*
X141303318Y-114637498D01*
X141303429Y-114649609D01*
X141303429Y-114651074D01*
X141301036Y-114700370D01*
X141292761Y-114750249D01*
X141278576Y-114794976D01*
X141273168Y-114807390D01*
X141249151Y-114848390D01*
X141221742Y-114879302D01*
X141189024Y-114904156D01*
X141185460Y-114906308D01*
X141151253Y-114922719D01*
X141117668Y-114932798D01*
X141081092Y-114938633D01*
X141046632Y-114940258D01*
G37*
G36*
X141506029Y-114796643D02*
G01*
X141664347Y-114796643D01*
X141700881Y-114793071D01*
X141736745Y-114780513D01*
X141770091Y-114755955D01*
X141784197Y-114739490D01*
X141806647Y-114699014D01*
X141820782Y-114649330D01*
X141826394Y-114596743D01*
X141826769Y-114577557D01*
X141826769Y-114283489D01*
X141824108Y-114234274D01*
X141814754Y-114185914D01*
X141796461Y-114140881D01*
X141784197Y-114121800D01*
X141754274Y-114091532D01*
X141721490Y-114073876D01*
X141687694Y-114065804D01*
X141664347Y-114064403D01*
X141506029Y-114064403D01*
X141506029Y-113931290D01*
X141661441Y-113931290D01*
X141697072Y-113933301D01*
X141734928Y-113940521D01*
X141769729Y-113952993D01*
X141805226Y-113973300D01*
X141836531Y-113999846D01*
X141863319Y-114032497D01*
X141885590Y-114071253D01*
X141896011Y-114095422D01*
X141911136Y-114143230D01*
X141921310Y-114196255D01*
X141926199Y-114247767D01*
X141927299Y-114289106D01*
X141927299Y-114572184D01*
X141925343Y-114626787D01*
X141919477Y-114677269D01*
X141908202Y-114729135D01*
X141896011Y-114765868D01*
X141876223Y-114808035D01*
X141851863Y-114844136D01*
X141822932Y-114874170D01*
X141804884Y-114888234D01*
X141769304Y-114908423D01*
X141734453Y-114920823D01*
X141696567Y-114928001D01*
X141660928Y-114930000D01*
X141506029Y-114930000D01*
X141506029Y-114796643D01*
G37*
G36*
X141439692Y-113931290D02*
G01*
X141537829Y-113931290D01*
X141537829Y-114930000D01*
X141439692Y-114930000D01*
X141439692Y-113931290D01*
G37*
G36*
X142258639Y-113931290D02*
G01*
X142342243Y-113931290D01*
X142600066Y-114930000D01*
X142494235Y-114930000D01*
X142300526Y-114124242D01*
X142106646Y-114930000D01*
X142000987Y-114930000D01*
X142258639Y-113931290D01*
G37*
G36*
X142119640Y-114577557D02*
G01*
X142487568Y-114577557D01*
X142487568Y-114710914D01*
X142119640Y-114710914D01*
X142119640Y-114577557D01*
G37*
D11*
G36*
X141314542Y-112492177D02*
G01*
X141314542Y-112666566D01*
X141312651Y-112720590D01*
X141306977Y-112771285D01*
X141297520Y-112818653D01*
X141284281Y-112862693D01*
X141265257Y-112907333D01*
X141242230Y-112945906D01*
X141215200Y-112978413D01*
X141198454Y-112993852D01*
X141165805Y-113016284D01*
X141130371Y-113031375D01*
X141096535Y-113038626D01*
X141069713Y-113040258D01*
X141033820Y-113037540D01*
X140996123Y-113027988D01*
X140961266Y-113011557D01*
X140939605Y-112996782D01*
X140910145Y-112969350D01*
X140884662Y-112936238D01*
X140863154Y-112897446D01*
X140852923Y-112873440D01*
X140838047Y-112826524D01*
X140828039Y-112775629D01*
X140823231Y-112727048D01*
X140822149Y-112688548D01*
X140822149Y-112393991D01*
X140824040Y-112339983D01*
X140829714Y-112289333D01*
X140839171Y-112242042D01*
X140852411Y-112198108D01*
X140871434Y-112153587D01*
X140894461Y-112115093D01*
X140921491Y-112082626D01*
X140938237Y-112067194D01*
X140970872Y-112044762D01*
X141006266Y-112029670D01*
X141044419Y-112021921D01*
X141066807Y-112020788D01*
X141103485Y-112024390D01*
X141138294Y-112035195D01*
X141171232Y-112053203D01*
X141177595Y-112057669D01*
X141207712Y-112083572D01*
X141234590Y-112115486D01*
X141258229Y-112153410D01*
X141262568Y-112161716D01*
X141281768Y-112205899D01*
X141296628Y-112254185D01*
X141306290Y-112301150D01*
X141308729Y-112317543D01*
X141202557Y-112317543D01*
X141190846Y-112271015D01*
X141173150Y-112231570D01*
X141147605Y-112196390D01*
X141124595Y-112176615D01*
X141090778Y-112160708D01*
X141066807Y-112157564D01*
X141030987Y-112163221D01*
X140997112Y-112181836D01*
X140990896Y-112187117D01*
X140963550Y-112220029D01*
X140943925Y-112260141D01*
X140940460Y-112269916D01*
X140928948Y-112316080D01*
X140923304Y-112368048D01*
X140922679Y-112393991D01*
X140922679Y-112688548D01*
X140925670Y-112738436D01*
X140935581Y-112786120D01*
X140940802Y-112801632D01*
X140961258Y-112842247D01*
X140988326Y-112873417D01*
X140992435Y-112876859D01*
X141026105Y-112895968D01*
X141061597Y-112903248D01*
X141069713Y-112903482D01*
X141105533Y-112898199D01*
X141139408Y-112880815D01*
X141145624Y-112875882D01*
X141173093Y-112844305D01*
X141193950Y-112801779D01*
X141196231Y-112795282D01*
X141207744Y-112748914D01*
X141213161Y-112700244D01*
X141214012Y-112669253D01*
X141214012Y-112626022D01*
X141072107Y-112626022D01*
X141072107Y-112492177D01*
X141314542Y-112492177D01*
G37*
G36*
X141469783Y-112031290D02*
G01*
X141558859Y-112031290D01*
X141900628Y-112803342D01*
X141889173Y-112821172D01*
X141889173Y-112031290D01*
X141986284Y-112031290D01*
X141986284Y-113029267D01*
X141896353Y-113029267D01*
X141555439Y-112268939D01*
X141566894Y-112251109D01*
X141566894Y-113029267D01*
X141469783Y-113029267D01*
X141469783Y-112031290D01*
G37*
G36*
X142222051Y-112896643D02*
G01*
X142380369Y-112896643D01*
X142416904Y-112893071D01*
X142452768Y-112880513D01*
X142486113Y-112855955D01*
X142500219Y-112839490D01*
X142522669Y-112799014D01*
X142536804Y-112749330D01*
X142542417Y-112696743D01*
X142542791Y-112677557D01*
X142542791Y-112383489D01*
X142540130Y-112334274D01*
X142530776Y-112285914D01*
X142512484Y-112240881D01*
X142500219Y-112221800D01*
X142470296Y-112191532D01*
X142437513Y-112173876D01*
X142403717Y-112165804D01*
X142380369Y-112164403D01*
X142222051Y-112164403D01*
X142222051Y-112031290D01*
X142377463Y-112031290D01*
X142413094Y-112033301D01*
X142450951Y-112040521D01*
X142485751Y-112052993D01*
X142521249Y-112073300D01*
X142552554Y-112099846D01*
X142579342Y-112132497D01*
X142601613Y-112171253D01*
X142612034Y-112195422D01*
X142627158Y-112243230D01*
X142637333Y-112296255D01*
X142642221Y-112347767D01*
X142643321Y-112389106D01*
X142643321Y-112672184D01*
X142641366Y-112726787D01*
X142635499Y-112777269D01*
X142624225Y-112829135D01*
X142612034Y-112865868D01*
X142592245Y-112908035D01*
X142567885Y-112944136D01*
X142538955Y-112974170D01*
X142520907Y-112988234D01*
X142485327Y-113008423D01*
X142450475Y-113020823D01*
X142412590Y-113028001D01*
X142376950Y-113030000D01*
X142222051Y-113030000D01*
X142222051Y-112896643D01*
G37*
G36*
X142155715Y-112031290D02*
G01*
X142253852Y-112031290D01*
X142253852Y-113030000D01*
X142155715Y-113030000D01*
X142155715Y-112031290D01*
G37*
D10*
G36*
X141196632Y-105440258D02*
G01*
X141159527Y-105438334D01*
X141123863Y-105432564D01*
X141100889Y-105426580D01*
X141065204Y-105413210D01*
X141031493Y-105395325D01*
X141016601Y-105385547D01*
X140985608Y-105360865D01*
X140956252Y-105331669D01*
X140943255Y-105316671D01*
X141004291Y-105209448D01*
X141032746Y-105240592D01*
X141063099Y-105265847D01*
X141092341Y-105283698D01*
X141126340Y-105297743D01*
X141162278Y-105305958D01*
X141196632Y-105308367D01*
X141232525Y-105305863D01*
X141267770Y-105297062D01*
X141300555Y-105279850D01*
X141314431Y-105268311D01*
X141339956Y-105233415D01*
X141354314Y-105185068D01*
X141356318Y-105154494D01*
X141356318Y-105153761D01*
X141350962Y-105104552D01*
X141337341Y-105071207D01*
X141309278Y-105039035D01*
X141288272Y-105025778D01*
X141253822Y-105011550D01*
X141219411Y-105000980D01*
X141210652Y-104998667D01*
X141207404Y-104997934D01*
X141204326Y-104997201D01*
X141197145Y-104995247D01*
X141159771Y-104985164D01*
X141123066Y-104973191D01*
X141088553Y-104959083D01*
X141082937Y-104956413D01*
X141051762Y-104935095D01*
X141024145Y-104903748D01*
X141007711Y-104877278D01*
X140989897Y-104832103D01*
X140980120Y-104781117D01*
X140976545Y-104727154D01*
X140976423Y-104714124D01*
X140976423Y-104713635D01*
X140978722Y-104663592D01*
X140986670Y-104613064D01*
X141000294Y-104567879D01*
X141005488Y-104555366D01*
X141028719Y-104513890D01*
X141055273Y-104482597D01*
X141087002Y-104457409D01*
X141090460Y-104455226D01*
X141123597Y-104438579D01*
X141160304Y-104427380D01*
X141195930Y-104421999D01*
X141224501Y-104420788D01*
X141259463Y-104423364D01*
X141293824Y-104431092D01*
X141298360Y-104432512D01*
X141332237Y-104445971D01*
X141365589Y-104464368D01*
X141369996Y-104467194D01*
X141400734Y-104489621D01*
X141431014Y-104516722D01*
X141439581Y-104525324D01*
X141383674Y-104636699D01*
X141353821Y-104608145D01*
X141321534Y-104583879D01*
X141304173Y-104573684D01*
X141269400Y-104559325D01*
X141234497Y-104553007D01*
X141224501Y-104552679D01*
X141186734Y-104555925D01*
X141150703Y-104567145D01*
X141118282Y-104588743D01*
X141113199Y-104593712D01*
X141089028Y-104629112D01*
X141075432Y-104678314D01*
X141073534Y-104709483D01*
X141073534Y-104709972D01*
X141079276Y-104758524D01*
X141093879Y-104791060D01*
X141121799Y-104820730D01*
X141145000Y-104834780D01*
X141178875Y-104848221D01*
X141213440Y-104859207D01*
X141229801Y-104863845D01*
X141233391Y-104865066D01*
X141237152Y-104866043D01*
X141242281Y-104867508D01*
X141247581Y-104868729D01*
X141281694Y-104879712D01*
X141315694Y-104893183D01*
X141348350Y-104909545D01*
X141353754Y-104912693D01*
X141386029Y-104938491D01*
X141411715Y-104971464D01*
X141424877Y-104994759D01*
X141441133Y-105038622D01*
X141450056Y-105087012D01*
X141453318Y-105137498D01*
X141453429Y-105149609D01*
X141453429Y-105151074D01*
X141451036Y-105200370D01*
X141442761Y-105250249D01*
X141428576Y-105294976D01*
X141423168Y-105307390D01*
X141399151Y-105348390D01*
X141371742Y-105379302D01*
X141339024Y-105404156D01*
X141335460Y-105406308D01*
X141301253Y-105422719D01*
X141267668Y-105432798D01*
X141231092Y-105438633D01*
X141196632Y-105440258D01*
G37*
G36*
X141818621Y-105440258D02*
G01*
X141783391Y-105437388D01*
X141746388Y-105427299D01*
X141712170Y-105409945D01*
X141690907Y-105394340D01*
X141661901Y-105365341D01*
X141636817Y-105330275D01*
X141615655Y-105289143D01*
X141605593Y-105263670D01*
X141590964Y-105214028D01*
X141581980Y-105166367D01*
X141576779Y-105115377D01*
X141575331Y-105068032D01*
X141575331Y-104793991D01*
X141577222Y-104739983D01*
X141582896Y-104689333D01*
X141592353Y-104642042D01*
X141605593Y-104598108D01*
X141624576Y-104553587D01*
X141647481Y-104515093D01*
X141674308Y-104482626D01*
X141690907Y-104467194D01*
X141723267Y-104444762D01*
X141758412Y-104429670D01*
X141796344Y-104421921D01*
X141818621Y-104420788D01*
X141855283Y-104424390D01*
X141890041Y-104435195D01*
X141922896Y-104453203D01*
X141929239Y-104457669D01*
X141959142Y-104483572D01*
X141985806Y-104515486D01*
X142009231Y-104553410D01*
X142013527Y-104561716D01*
X142032638Y-104605899D01*
X142047441Y-104654185D01*
X142057080Y-104701150D01*
X142059518Y-104717543D01*
X141958988Y-104717543D01*
X141945886Y-104670803D01*
X141928555Y-104634256D01*
X141903725Y-104599896D01*
X141878290Y-104577592D01*
X141845189Y-104561398D01*
X141818621Y-104557564D01*
X141783218Y-104563221D01*
X141749716Y-104581836D01*
X141743565Y-104587117D01*
X141716588Y-104620029D01*
X141695921Y-104663353D01*
X141693642Y-104669916D01*
X141682130Y-104716080D01*
X141676486Y-104768048D01*
X141675861Y-104793991D01*
X141675861Y-105068032D01*
X141678362Y-105118269D01*
X141686714Y-105167422D01*
X141693642Y-105191618D01*
X141711949Y-105233793D01*
X141737665Y-105268709D01*
X141743565Y-105274417D01*
X141776151Y-105295279D01*
X141810699Y-105303226D01*
X141818621Y-105303482D01*
X141852954Y-105297686D01*
X141878461Y-105285163D01*
X141908448Y-105258639D01*
X141928555Y-105230209D01*
X141947788Y-105187491D01*
X141958988Y-105143503D01*
X142059518Y-105143503D01*
X142051028Y-105191693D01*
X142037471Y-105241295D01*
X142019572Y-105286747D01*
X142013356Y-105299574D01*
X141990399Y-105338595D01*
X141964269Y-105371702D01*
X141934967Y-105398893D01*
X141928726Y-105403621D01*
X141896302Y-105422941D01*
X141862074Y-105435106D01*
X141826044Y-105440115D01*
X141818621Y-105440258D01*
G37*
G36*
X142195610Y-104431290D02*
G01*
X142293747Y-104431290D01*
X142293747Y-105430000D01*
X142195610Y-105430000D01*
X142195610Y-104431290D01*
G37*
G36*
X142244678Y-105296643D02*
G01*
X142644748Y-105296643D01*
X142644748Y-105430000D01*
X142244678Y-105430000D01*
X142244678Y-105296643D01*
G37*
D11*
G36*
X141364542Y-100992177D02*
G01*
X141364542Y-101166566D01*
X141362651Y-101220590D01*
X141356977Y-101271285D01*
X141347520Y-101318653D01*
X141334281Y-101362693D01*
X141315257Y-101407333D01*
X141292230Y-101445906D01*
X141265200Y-101478413D01*
X141248454Y-101493852D01*
X141215805Y-101516284D01*
X141180371Y-101531375D01*
X141146535Y-101538626D01*
X141119713Y-101540258D01*
X141083820Y-101537540D01*
X141046123Y-101527988D01*
X141011266Y-101511557D01*
X140989605Y-101496782D01*
X140960145Y-101469350D01*
X140934662Y-101436238D01*
X140913154Y-101397446D01*
X140902923Y-101373440D01*
X140888047Y-101326524D01*
X140878039Y-101275629D01*
X140873231Y-101227048D01*
X140872149Y-101188548D01*
X140872149Y-100893991D01*
X140874040Y-100839983D01*
X140879714Y-100789333D01*
X140889171Y-100742042D01*
X140902411Y-100698108D01*
X140921434Y-100653587D01*
X140944461Y-100615093D01*
X140971491Y-100582626D01*
X140988237Y-100567194D01*
X141020872Y-100544762D01*
X141056266Y-100529670D01*
X141094419Y-100521921D01*
X141116807Y-100520788D01*
X141153485Y-100524390D01*
X141188294Y-100535195D01*
X141221232Y-100553203D01*
X141227595Y-100557669D01*
X141257712Y-100583572D01*
X141284590Y-100615486D01*
X141308229Y-100653410D01*
X141312568Y-100661716D01*
X141331768Y-100705899D01*
X141346628Y-100754185D01*
X141356290Y-100801150D01*
X141358729Y-100817543D01*
X141252557Y-100817543D01*
X141240846Y-100771015D01*
X141223150Y-100731570D01*
X141197605Y-100696390D01*
X141174595Y-100676615D01*
X141140778Y-100660708D01*
X141116807Y-100657564D01*
X141080987Y-100663221D01*
X141047112Y-100681836D01*
X141040896Y-100687117D01*
X141013550Y-100720029D01*
X140993925Y-100760141D01*
X140990460Y-100769916D01*
X140978948Y-100816080D01*
X140973304Y-100868048D01*
X140972679Y-100893991D01*
X140972679Y-101188548D01*
X140975670Y-101238436D01*
X140985581Y-101286120D01*
X140990802Y-101301632D01*
X141011258Y-101342247D01*
X141038326Y-101373417D01*
X141042435Y-101376859D01*
X141076105Y-101395968D01*
X141111597Y-101403248D01*
X141119713Y-101403482D01*
X141155533Y-101398199D01*
X141189408Y-101380815D01*
X141195624Y-101375882D01*
X141223093Y-101344305D01*
X141243950Y-101301779D01*
X141246231Y-101295282D01*
X141257744Y-101248914D01*
X141263161Y-101200244D01*
X141264012Y-101169253D01*
X141264012Y-101126022D01*
X141122107Y-101126022D01*
X141122107Y-100992177D01*
X141364542Y-100992177D01*
G37*
G36*
X141519783Y-100531290D02*
G01*
X141608859Y-100531290D01*
X141950628Y-101303342D01*
X141939173Y-101321172D01*
X141939173Y-100531290D01*
X142036284Y-100531290D01*
X142036284Y-101529267D01*
X141946353Y-101529267D01*
X141605439Y-100768939D01*
X141616894Y-100751109D01*
X141616894Y-101529267D01*
X141519783Y-101529267D01*
X141519783Y-100531290D01*
G37*
G36*
X142272051Y-101396643D02*
G01*
X142430369Y-101396643D01*
X142466904Y-101393071D01*
X142502768Y-101380513D01*
X142536113Y-101355955D01*
X142550219Y-101339490D01*
X142572669Y-101299014D01*
X142586804Y-101249330D01*
X142592417Y-101196743D01*
X142592791Y-101177557D01*
X142592791Y-100883489D01*
X142590130Y-100834274D01*
X142580776Y-100785914D01*
X142562484Y-100740881D01*
X142550219Y-100721800D01*
X142520296Y-100691532D01*
X142487513Y-100673876D01*
X142453717Y-100665804D01*
X142430369Y-100664403D01*
X142272051Y-100664403D01*
X142272051Y-100531290D01*
X142427463Y-100531290D01*
X142463094Y-100533301D01*
X142500951Y-100540521D01*
X142535751Y-100552993D01*
X142571249Y-100573300D01*
X142602554Y-100599846D01*
X142629342Y-100632497D01*
X142651613Y-100671253D01*
X142662034Y-100695422D01*
X142677158Y-100743230D01*
X142687333Y-100796255D01*
X142692221Y-100847767D01*
X142693321Y-100889106D01*
X142693321Y-101172184D01*
X142691366Y-101226787D01*
X142685499Y-101277269D01*
X142674225Y-101329135D01*
X142662034Y-101365868D01*
X142642245Y-101408035D01*
X142617885Y-101444136D01*
X142588955Y-101474170D01*
X142570907Y-101488234D01*
X142535327Y-101508423D01*
X142500475Y-101520823D01*
X142462590Y-101528001D01*
X142426950Y-101530000D01*
X142272051Y-101530000D01*
X142272051Y-101396643D01*
G37*
G36*
X142205715Y-100531290D02*
G01*
X142303852Y-100531290D01*
X142303852Y-101530000D01*
X142205715Y-101530000D01*
X142205715Y-100531290D01*
G37*
D12*
G36*
X127234255Y-95306290D02*
G01*
X127323831Y-95306290D01*
X127610327Y-96305000D01*
X127458286Y-96305000D01*
X127279134Y-95622829D01*
X127099799Y-96305000D01*
X126947758Y-96305000D01*
X127234255Y-95306290D01*
G37*
G36*
X127085327Y-95963548D02*
G01*
X127479535Y-95963548D01*
X127479535Y-96145020D01*
X127085327Y-96145020D01*
X127085327Y-95963548D01*
G37*
G36*
X127885101Y-96305000D02*
G01*
X127744050Y-96305000D01*
X127744050Y-95527330D01*
X127652826Y-95573492D01*
X127652826Y-95373457D01*
X127764567Y-95306290D01*
X127885101Y-95306290D01*
X127885101Y-96305000D01*
G37*
G36*
X130984255Y-95356290D02*
G01*
X131073831Y-95356290D01*
X131360327Y-96355000D01*
X131208286Y-96355000D01*
X131029134Y-95672829D01*
X130849799Y-96355000D01*
X130697758Y-96355000D01*
X130984255Y-95356290D01*
G37*
G36*
X130835327Y-96013548D02*
G01*
X131229535Y-96013548D01*
X131229535Y-96195020D01*
X130835327Y-96195020D01*
X130835327Y-96013548D01*
G37*
G36*
X131681727Y-95346444D02*
G01*
X131722904Y-95356088D01*
X131759049Y-95372838D01*
X131794197Y-95400682D01*
X131809307Y-95418084D01*
X131834391Y-95458934D01*
X131852309Y-95507477D01*
X131862108Y-95556263D01*
X131866419Y-95610940D01*
X131866643Y-95627644D01*
X131866643Y-96081692D01*
X131863891Y-96137694D01*
X131855633Y-96187947D01*
X131839456Y-96238337D01*
X131816089Y-96281217D01*
X131809124Y-96290764D01*
X131777136Y-96323355D01*
X131743849Y-96344233D01*
X131705619Y-96357983D01*
X131668915Y-96364094D01*
X131642428Y-96365258D01*
X131603129Y-96362613D01*
X131561952Y-96352842D01*
X131525807Y-96335872D01*
X131490659Y-96307662D01*
X131475549Y-96290031D01*
X131450545Y-96248800D01*
X131432684Y-96200333D01*
X131422917Y-96151989D01*
X131418619Y-96098105D01*
X131418396Y-96081692D01*
X131418396Y-96033576D01*
X131559446Y-96033576D01*
X131562280Y-96083390D01*
X131573792Y-96132230D01*
X131579596Y-96145195D01*
X131609394Y-96176596D01*
X131642428Y-96184030D01*
X131679568Y-96174321D01*
X131705259Y-96145195D01*
X131720372Y-96097873D01*
X131725232Y-96046925D01*
X131725409Y-96033576D01*
X131725409Y-95675516D01*
X131722576Y-95625702D01*
X131711064Y-95576862D01*
X131705259Y-95563897D01*
X131675552Y-95532495D01*
X131642428Y-95525062D01*
X131605379Y-95534771D01*
X131579596Y-95563897D01*
X131564484Y-95611219D01*
X131559624Y-95662167D01*
X131559446Y-95675516D01*
X131559446Y-96033576D01*
X131418396Y-96033576D01*
X131418396Y-95627644D01*
X131421140Y-95571546D01*
X131429371Y-95521222D01*
X131445496Y-95470778D01*
X131468789Y-95427876D01*
X131475732Y-95418328D01*
X131507720Y-95385737D01*
X131541007Y-95364858D01*
X131579237Y-95351109D01*
X131615941Y-95344998D01*
X131642428Y-95343834D01*
X131681727Y-95346444D01*
G37*
G36*
X123684255Y-95306290D02*
G01*
X123773831Y-95306290D01*
X124060327Y-96305000D01*
X123908286Y-96305000D01*
X123729134Y-95622829D01*
X123549799Y-96305000D01*
X123397758Y-96305000D01*
X123684255Y-95306290D01*
G37*
G36*
X123535327Y-95963548D02*
G01*
X123929535Y-95963548D01*
X123929535Y-96145020D01*
X123535327Y-96145020D01*
X123535327Y-95963548D01*
G37*
G36*
X124122426Y-96135251D02*
G01*
X124379431Y-95684623D01*
X124399801Y-95642392D01*
X124406542Y-95622585D01*
X124415732Y-95573494D01*
X124416067Y-95562990D01*
X124416067Y-95561769D01*
X124405942Y-95513075D01*
X124396467Y-95499242D01*
X124361724Y-95479407D01*
X124340779Y-95477260D01*
X124303946Y-95488024D01*
X124284176Y-95507791D01*
X124265191Y-95550329D01*
X124257798Y-95594741D01*
X124257798Y-95595474D01*
X124113084Y-95595474D01*
X124113084Y-95594741D01*
X124117602Y-95544209D01*
X124127176Y-95492956D01*
X124141544Y-95446855D01*
X124146789Y-95434030D01*
X124169216Y-95391465D01*
X124196448Y-95356462D01*
X124225375Y-95331203D01*
X124261218Y-95311040D01*
X124296995Y-95299973D01*
X124335814Y-95295823D01*
X124339863Y-95295788D01*
X124377616Y-95298222D01*
X124415791Y-95306637D01*
X124453197Y-95322836D01*
X124459481Y-95326563D01*
X124493502Y-95353376D01*
X124520824Y-95388020D01*
X124535319Y-95415467D01*
X124551170Y-95462614D01*
X124559273Y-95511745D01*
X124561331Y-95556151D01*
X124561331Y-95556884D01*
X124558832Y-95607820D01*
X124551336Y-95658412D01*
X124543562Y-95691950D01*
X124528252Y-95740356D01*
X124508975Y-95785190D01*
X124493920Y-95813094D01*
X124309455Y-96123527D01*
X124565544Y-96123527D01*
X124565544Y-96305000D01*
X124122426Y-96305000D01*
X124122426Y-96135251D01*
G37*
D10*
G36*
X141096632Y-103440258D02*
G01*
X141059527Y-103438334D01*
X141023863Y-103432564D01*
X141000889Y-103426580D01*
X140965204Y-103413210D01*
X140931493Y-103395325D01*
X140916601Y-103385547D01*
X140885608Y-103360865D01*
X140856252Y-103331669D01*
X140843255Y-103316671D01*
X140904291Y-103209448D01*
X140932746Y-103240592D01*
X140963099Y-103265847D01*
X140992341Y-103283698D01*
X141026340Y-103297743D01*
X141062278Y-103305958D01*
X141096632Y-103308367D01*
X141132525Y-103305863D01*
X141167770Y-103297062D01*
X141200555Y-103279850D01*
X141214431Y-103268311D01*
X141239956Y-103233415D01*
X141254314Y-103185068D01*
X141256318Y-103154494D01*
X141256318Y-103153761D01*
X141250962Y-103104552D01*
X141237341Y-103071207D01*
X141209278Y-103039035D01*
X141188272Y-103025778D01*
X141153822Y-103011550D01*
X141119411Y-103000980D01*
X141110652Y-102998667D01*
X141107404Y-102997934D01*
X141104326Y-102997201D01*
X141097145Y-102995247D01*
X141059771Y-102985164D01*
X141023066Y-102973191D01*
X140988553Y-102959083D01*
X140982937Y-102956413D01*
X140951762Y-102935095D01*
X140924145Y-102903748D01*
X140907711Y-102877278D01*
X140889897Y-102832103D01*
X140880120Y-102781117D01*
X140876545Y-102727154D01*
X140876423Y-102714124D01*
X140876423Y-102713635D01*
X140878722Y-102663592D01*
X140886670Y-102613064D01*
X140900294Y-102567879D01*
X140905488Y-102555366D01*
X140928719Y-102513890D01*
X140955273Y-102482597D01*
X140987002Y-102457409D01*
X140990460Y-102455226D01*
X141023597Y-102438579D01*
X141060304Y-102427380D01*
X141095930Y-102421999D01*
X141124501Y-102420788D01*
X141159463Y-102423364D01*
X141193824Y-102431092D01*
X141198360Y-102432512D01*
X141232237Y-102445971D01*
X141265589Y-102464368D01*
X141269996Y-102467194D01*
X141300734Y-102489621D01*
X141331014Y-102516722D01*
X141339581Y-102525324D01*
X141283674Y-102636699D01*
X141253821Y-102608145D01*
X141221534Y-102583879D01*
X141204173Y-102573684D01*
X141169400Y-102559325D01*
X141134497Y-102553007D01*
X141124501Y-102552679D01*
X141086734Y-102555925D01*
X141050703Y-102567145D01*
X141018282Y-102588743D01*
X141013199Y-102593712D01*
X140989028Y-102629112D01*
X140975432Y-102678314D01*
X140973534Y-102709483D01*
X140973534Y-102709972D01*
X140979276Y-102758524D01*
X140993879Y-102791060D01*
X141021799Y-102820730D01*
X141045000Y-102834780D01*
X141078875Y-102848221D01*
X141113440Y-102859207D01*
X141129801Y-102863845D01*
X141133391Y-102865066D01*
X141137152Y-102866043D01*
X141142281Y-102867508D01*
X141147581Y-102868729D01*
X141181694Y-102879712D01*
X141215694Y-102893183D01*
X141248350Y-102909545D01*
X141253754Y-102912693D01*
X141286029Y-102938491D01*
X141311715Y-102971464D01*
X141324877Y-102994759D01*
X141341133Y-103038622D01*
X141350056Y-103087012D01*
X141353318Y-103137498D01*
X141353429Y-103149609D01*
X141353429Y-103151074D01*
X141351036Y-103200370D01*
X141342761Y-103250249D01*
X141328576Y-103294976D01*
X141323168Y-103307390D01*
X141299151Y-103348390D01*
X141271742Y-103379302D01*
X141239024Y-103404156D01*
X141235460Y-103406308D01*
X141201253Y-103422719D01*
X141167668Y-103432798D01*
X141131092Y-103438633D01*
X141096632Y-103440258D01*
G37*
G36*
X141556029Y-103296643D02*
G01*
X141714347Y-103296643D01*
X141750881Y-103293071D01*
X141786745Y-103280513D01*
X141820091Y-103255955D01*
X141834197Y-103239490D01*
X141856647Y-103199014D01*
X141870782Y-103149330D01*
X141876394Y-103096743D01*
X141876769Y-103077557D01*
X141876769Y-102783489D01*
X141874108Y-102734274D01*
X141864754Y-102685914D01*
X141846461Y-102640881D01*
X141834197Y-102621800D01*
X141804274Y-102591532D01*
X141771490Y-102573876D01*
X141737694Y-102565804D01*
X141714347Y-102564403D01*
X141556029Y-102564403D01*
X141556029Y-102431290D01*
X141711441Y-102431290D01*
X141747072Y-102433301D01*
X141784928Y-102440521D01*
X141819729Y-102452993D01*
X141855226Y-102473300D01*
X141886531Y-102499846D01*
X141913319Y-102532497D01*
X141935590Y-102571253D01*
X141946011Y-102595422D01*
X141961136Y-102643230D01*
X141971310Y-102696255D01*
X141976199Y-102747767D01*
X141977299Y-102789106D01*
X141977299Y-103072184D01*
X141975343Y-103126787D01*
X141969477Y-103177269D01*
X141958202Y-103229135D01*
X141946011Y-103265868D01*
X141926223Y-103308035D01*
X141901863Y-103344136D01*
X141872932Y-103374170D01*
X141854884Y-103388234D01*
X141819304Y-103408423D01*
X141784453Y-103420823D01*
X141746567Y-103428001D01*
X141710928Y-103430000D01*
X141556029Y-103430000D01*
X141556029Y-103296643D01*
G37*
G36*
X141489692Y-102431290D02*
G01*
X141587829Y-102431290D01*
X141587829Y-103430000D01*
X141489692Y-103430000D01*
X141489692Y-102431290D01*
G37*
G36*
X142308639Y-102431290D02*
G01*
X142392243Y-102431290D01*
X142650066Y-103430000D01*
X142544235Y-103430000D01*
X142350526Y-102624242D01*
X142156646Y-103430000D01*
X142050987Y-103430000D01*
X142308639Y-102431290D01*
G37*
G36*
X142169640Y-103077557D02*
G01*
X142537568Y-103077557D01*
X142537568Y-103210914D01*
X142169640Y-103210914D01*
X142169640Y-103077557D01*
G37*
D11*
G36*
X141252864Y-107540258D02*
G01*
X141217565Y-107537276D01*
X141181860Y-107527109D01*
X141149427Y-107509727D01*
X141118412Y-107482983D01*
X141092302Y-107448545D01*
X141077620Y-107421311D01*
X141060045Y-107374382D01*
X141048876Y-107325511D01*
X141043255Y-107281360D01*
X141143272Y-107281360D01*
X141152555Y-107328663D01*
X141161908Y-107351458D01*
X141188323Y-107384660D01*
X141199180Y-107392247D01*
X141232636Y-107404093D01*
X141252864Y-107405680D01*
X141288732Y-107399553D01*
X141321212Y-107377256D01*
X141328262Y-107368555D01*
X141347651Y-107327149D01*
X141355038Y-107276593D01*
X141355275Y-107264263D01*
X141355275Y-107233977D01*
X141351693Y-107182549D01*
X141338458Y-107134704D01*
X141329801Y-107118206D01*
X141301298Y-107088929D01*
X141266357Y-107077776D01*
X141257822Y-107077418D01*
X141208241Y-107077418D01*
X141208241Y-106944061D01*
X141257822Y-106944061D01*
X141292111Y-106936387D01*
X141321252Y-106909134D01*
X141338861Y-106863631D01*
X141343798Y-106813943D01*
X141343820Y-106809972D01*
X141343820Y-106779197D01*
X141338598Y-106729688D01*
X141320055Y-106687850D01*
X141289160Y-106662694D01*
X141255238Y-106655642D01*
X141252522Y-106655610D01*
X141217901Y-106663166D01*
X141207728Y-106669043D01*
X141179615Y-106700150D01*
X141174218Y-106710076D01*
X141158967Y-106755057D01*
X141154385Y-106779930D01*
X141054881Y-106779930D01*
X141062534Y-106731081D01*
X141074810Y-106682637D01*
X141091127Y-106639734D01*
X141113126Y-106599904D01*
X141139116Y-106567973D01*
X141158660Y-106551074D01*
X141191013Y-106532619D01*
X141226781Y-106522681D01*
X141252522Y-106520788D01*
X141290069Y-106524049D01*
X141323722Y-106533831D01*
X141357414Y-106552997D01*
X141386019Y-106580680D01*
X141392376Y-106588932D01*
X141416343Y-106631550D01*
X141431063Y-106676860D01*
X141439584Y-106729163D01*
X141441957Y-106780662D01*
X141441957Y-106797027D01*
X141438603Y-106846297D01*
X141427295Y-106894846D01*
X141413576Y-106927697D01*
X141388972Y-106965054D01*
X141357733Y-106993963D01*
X141333220Y-107008541D01*
X141366496Y-107024049D01*
X141397275Y-107051192D01*
X141421953Y-107088897D01*
X141439864Y-107135953D01*
X141449695Y-107185794D01*
X141453289Y-107236401D01*
X141453412Y-107248387D01*
X141453412Y-107264752D01*
X141451108Y-107316897D01*
X141443251Y-107368471D01*
X141429818Y-107413984D01*
X141409222Y-107456173D01*
X141382566Y-107490051D01*
X141361430Y-107508018D01*
X141328314Y-107526373D01*
X141294388Y-107536448D01*
X141256821Y-107540226D01*
X141252864Y-107540258D01*
G37*
G36*
X141532058Y-106531290D02*
G01*
X141638914Y-106531290D01*
X141806636Y-107314333D01*
X141974528Y-106531290D01*
X142081214Y-106531290D01*
X141853311Y-107530000D01*
X141760132Y-107530000D01*
X141532058Y-106531290D01*
G37*
G36*
X142345704Y-107540258D02*
G01*
X142310405Y-107537276D01*
X142274700Y-107527109D01*
X142242267Y-107509727D01*
X142211252Y-107482983D01*
X142185142Y-107448545D01*
X142170460Y-107421311D01*
X142152885Y-107374382D01*
X142141717Y-107325511D01*
X142136095Y-107281360D01*
X142236113Y-107281360D01*
X142245396Y-107328663D01*
X142254748Y-107351458D01*
X142281163Y-107384660D01*
X142292020Y-107392247D01*
X142325476Y-107404093D01*
X142345704Y-107405680D01*
X142381572Y-107399553D01*
X142414052Y-107377256D01*
X142421102Y-107368555D01*
X142440491Y-107327149D01*
X142447878Y-107276593D01*
X142448115Y-107264263D01*
X142448115Y-107233977D01*
X142444533Y-107182549D01*
X142431298Y-107134704D01*
X142422641Y-107118206D01*
X142394138Y-107088929D01*
X142359197Y-107077776D01*
X142350662Y-107077418D01*
X142301081Y-107077418D01*
X142301081Y-106944061D01*
X142350662Y-106944061D01*
X142384951Y-106936387D01*
X142414092Y-106909134D01*
X142431702Y-106863631D01*
X142436638Y-106813943D01*
X142436660Y-106809972D01*
X142436660Y-106779197D01*
X142431439Y-106729688D01*
X142412896Y-106687850D01*
X142382000Y-106662694D01*
X142348078Y-106655642D01*
X142345362Y-106655610D01*
X142310741Y-106663166D01*
X142300568Y-106669043D01*
X142272456Y-106700150D01*
X142267058Y-106710076D01*
X142251807Y-106755057D01*
X142247226Y-106779930D01*
X142147721Y-106779930D01*
X142155375Y-106731081D01*
X142167650Y-106682637D01*
X142183967Y-106639734D01*
X142205966Y-106599904D01*
X142231956Y-106567973D01*
X142251500Y-106551074D01*
X142283853Y-106532619D01*
X142319621Y-106522681D01*
X142345362Y-106520788D01*
X142382909Y-106524049D01*
X142416562Y-106533831D01*
X142450254Y-106552997D01*
X142478859Y-106580680D01*
X142485216Y-106588932D01*
X142509183Y-106631550D01*
X142523903Y-106676860D01*
X142532425Y-106729163D01*
X142534797Y-106780662D01*
X142534797Y-106797027D01*
X142531444Y-106846297D01*
X142520135Y-106894846D01*
X142506416Y-106927697D01*
X142481812Y-106965054D01*
X142450573Y-106993963D01*
X142426060Y-107008541D01*
X142459336Y-107024049D01*
X142490115Y-107051192D01*
X142514794Y-107088897D01*
X142532704Y-107135953D01*
X142542535Y-107185794D01*
X142546129Y-107236401D01*
X142546252Y-107248387D01*
X142546252Y-107264752D01*
X142543948Y-107316897D01*
X142536091Y-107368471D01*
X142522658Y-107413984D01*
X142502062Y-107456173D01*
X142475406Y-107490051D01*
X142454270Y-107508018D01*
X142421155Y-107526373D01*
X142387228Y-107536448D01*
X142349661Y-107540226D01*
X142345704Y-107540258D01*
G37*
D12*
X143666666Y-121204819D02*
X143666666Y-121919104D01*
X143666666Y-121919104D02*
X143633333Y-122061961D01*
X143633333Y-122061961D02*
X143566666Y-122157200D01*
X143566666Y-122157200D02*
X143466666Y-122204819D01*
X143466666Y-122204819D02*
X143400000Y-122204819D01*
X143933333Y-121204819D02*
X144366666Y-121204819D01*
X144366666Y-121204819D02*
X144133333Y-121585771D01*
X144133333Y-121585771D02*
X144233333Y-121585771D01*
X144233333Y-121585771D02*
X144299999Y-121633390D01*
X144299999Y-121633390D02*
X144333333Y-121681009D01*
X144333333Y-121681009D02*
X144366666Y-121776247D01*
X144366666Y-121776247D02*
X144366666Y-122014342D01*
X144366666Y-122014342D02*
X144333333Y-122109580D01*
X144333333Y-122109580D02*
X144299999Y-122157200D01*
X144299999Y-122157200D02*
X144233333Y-122204819D01*
X144233333Y-122204819D02*
X144033333Y-122204819D01*
X144033333Y-122204819D02*
X143966666Y-122157200D01*
X143966666Y-122157200D02*
X143933333Y-122109580D01*
X143466666Y-97154819D02*
X143466666Y-97869104D01*
X143466666Y-97869104D02*
X143433333Y-98011961D01*
X143433333Y-98011961D02*
X143366666Y-98107200D01*
X143366666Y-98107200D02*
X143266666Y-98154819D01*
X143266666Y-98154819D02*
X143200000Y-98154819D01*
X144166666Y-98154819D02*
X143766666Y-98154819D01*
X143966666Y-98154819D02*
X143966666Y-97154819D01*
X143966666Y-97154819D02*
X143899999Y-97297676D01*
X143899999Y-97297676D02*
X143833333Y-97392914D01*
X143833333Y-97392914D02*
X143766666Y-97440533D01*
X123595833Y-118700057D02*
X123529166Y-118652438D01*
X123529166Y-118652438D02*
X123462500Y-118557200D01*
X123462500Y-118557200D02*
X123362500Y-118414342D01*
X123362500Y-118414342D02*
X123295833Y-118366723D01*
X123295833Y-118366723D02*
X123229166Y-118366723D01*
X123262500Y-118604819D02*
X123195833Y-118557200D01*
X123195833Y-118557200D02*
X123129166Y-118461961D01*
X123129166Y-118461961D02*
X123095833Y-118271485D01*
X123095833Y-118271485D02*
X123095833Y-117938152D01*
X123095833Y-117938152D02*
X123129166Y-117747676D01*
X123129166Y-117747676D02*
X123195833Y-117652438D01*
X123195833Y-117652438D02*
X123262500Y-117604819D01*
X123262500Y-117604819D02*
X123395833Y-117604819D01*
X123395833Y-117604819D02*
X123462500Y-117652438D01*
X123462500Y-117652438D02*
X123529166Y-117747676D01*
X123529166Y-117747676D02*
X123562500Y-117938152D01*
X123562500Y-117938152D02*
X123562500Y-118271485D01*
X123562500Y-118271485D02*
X123529166Y-118461961D01*
X123529166Y-118461961D02*
X123462500Y-118557200D01*
X123462500Y-118557200D02*
X123395833Y-118604819D01*
X123395833Y-118604819D02*
X123262500Y-118604819D01*
X124229166Y-118604819D02*
X123829166Y-118604819D01*
X124029166Y-118604819D02*
X124029166Y-117604819D01*
X124029166Y-117604819D02*
X123962499Y-117747676D01*
X123962499Y-117747676D02*
X123895833Y-117842914D01*
X123895833Y-117842914D02*
X123829166Y-117890533D01*
X135095833Y-101229819D02*
X134862500Y-100753628D01*
X134695833Y-101229819D02*
X134695833Y-100229819D01*
X134695833Y-100229819D02*
X134962500Y-100229819D01*
X134962500Y-100229819D02*
X135029167Y-100277438D01*
X135029167Y-100277438D02*
X135062500Y-100325057D01*
X135062500Y-100325057D02*
X135095833Y-100420295D01*
X135095833Y-100420295D02*
X135095833Y-100563152D01*
X135095833Y-100563152D02*
X135062500Y-100658390D01*
X135062500Y-100658390D02*
X135029167Y-100706009D01*
X135029167Y-100706009D02*
X134962500Y-100753628D01*
X134962500Y-100753628D02*
X134695833Y-100753628D01*
X135729167Y-100229819D02*
X135395833Y-100229819D01*
X135395833Y-100229819D02*
X135362500Y-100706009D01*
X135362500Y-100706009D02*
X135395833Y-100658390D01*
X135395833Y-100658390D02*
X135462500Y-100610771D01*
X135462500Y-100610771D02*
X135629167Y-100610771D01*
X135629167Y-100610771D02*
X135695833Y-100658390D01*
X135695833Y-100658390D02*
X135729167Y-100706009D01*
X135729167Y-100706009D02*
X135762500Y-100801247D01*
X135762500Y-100801247D02*
X135762500Y-101039342D01*
X135762500Y-101039342D02*
X135729167Y-101134580D01*
X135729167Y-101134580D02*
X135695833Y-101182200D01*
X135695833Y-101182200D02*
X135629167Y-101229819D01*
X135629167Y-101229819D02*
X135462500Y-101229819D01*
X135462500Y-101229819D02*
X135395833Y-101182200D01*
X135395833Y-101182200D02*
X135362500Y-101134580D01*
X114724999Y-99954819D02*
X114491666Y-99478628D01*
X114324999Y-99954819D02*
X114324999Y-98954819D01*
X114324999Y-98954819D02*
X114591666Y-98954819D01*
X114591666Y-98954819D02*
X114658333Y-99002438D01*
X114658333Y-99002438D02*
X114691666Y-99050057D01*
X114691666Y-99050057D02*
X114724999Y-99145295D01*
X114724999Y-99145295D02*
X114724999Y-99288152D01*
X114724999Y-99288152D02*
X114691666Y-99383390D01*
X114691666Y-99383390D02*
X114658333Y-99431009D01*
X114658333Y-99431009D02*
X114591666Y-99478628D01*
X114591666Y-99478628D02*
X114324999Y-99478628D01*
X115391666Y-99954819D02*
X114991666Y-99954819D01*
X115191666Y-99954819D02*
X115191666Y-98954819D01*
X115191666Y-98954819D02*
X115124999Y-99097676D01*
X115124999Y-99097676D02*
X115058333Y-99192914D01*
X115058333Y-99192914D02*
X114991666Y-99240533D01*
X116058333Y-99954819D02*
X115658333Y-99954819D01*
X115858333Y-99954819D02*
X115858333Y-98954819D01*
X115858333Y-98954819D02*
X115791666Y-99097676D01*
X115791666Y-99097676D02*
X115725000Y-99192914D01*
X115725000Y-99192914D02*
X115658333Y-99240533D01*
X122070833Y-100950057D02*
X122004166Y-100902438D01*
X122004166Y-100902438D02*
X121937500Y-100807200D01*
X121937500Y-100807200D02*
X121837500Y-100664342D01*
X121837500Y-100664342D02*
X121770833Y-100616723D01*
X121770833Y-100616723D02*
X121704166Y-100616723D01*
X121737500Y-100854819D02*
X121670833Y-100807200D01*
X121670833Y-100807200D02*
X121604166Y-100711961D01*
X121604166Y-100711961D02*
X121570833Y-100521485D01*
X121570833Y-100521485D02*
X121570833Y-100188152D01*
X121570833Y-100188152D02*
X121604166Y-99997676D01*
X121604166Y-99997676D02*
X121670833Y-99902438D01*
X121670833Y-99902438D02*
X121737500Y-99854819D01*
X121737500Y-99854819D02*
X121870833Y-99854819D01*
X121870833Y-99854819D02*
X121937500Y-99902438D01*
X121937500Y-99902438D02*
X122004166Y-99997676D01*
X122004166Y-99997676D02*
X122037500Y-100188152D01*
X122037500Y-100188152D02*
X122037500Y-100521485D01*
X122037500Y-100521485D02*
X122004166Y-100711961D01*
X122004166Y-100711961D02*
X121937500Y-100807200D01*
X121937500Y-100807200D02*
X121870833Y-100854819D01*
X121870833Y-100854819D02*
X121737500Y-100854819D01*
X122304166Y-99950057D02*
X122337499Y-99902438D01*
X122337499Y-99902438D02*
X122404166Y-99854819D01*
X122404166Y-99854819D02*
X122570833Y-99854819D01*
X122570833Y-99854819D02*
X122637499Y-99902438D01*
X122637499Y-99902438D02*
X122670833Y-99950057D01*
X122670833Y-99950057D02*
X122704166Y-100045295D01*
X122704166Y-100045295D02*
X122704166Y-100140533D01*
X122704166Y-100140533D02*
X122670833Y-100283390D01*
X122670833Y-100283390D02*
X122270833Y-100854819D01*
X122270833Y-100854819D02*
X122704166Y-100854819D01*
X114699999Y-114604819D02*
X114466666Y-114128628D01*
X114299999Y-114604819D02*
X114299999Y-113604819D01*
X114299999Y-113604819D02*
X114566666Y-113604819D01*
X114566666Y-113604819D02*
X114633333Y-113652438D01*
X114633333Y-113652438D02*
X114666666Y-113700057D01*
X114666666Y-113700057D02*
X114699999Y-113795295D01*
X114699999Y-113795295D02*
X114699999Y-113938152D01*
X114699999Y-113938152D02*
X114666666Y-114033390D01*
X114666666Y-114033390D02*
X114633333Y-114081009D01*
X114633333Y-114081009D02*
X114566666Y-114128628D01*
X114566666Y-114128628D02*
X114299999Y-114128628D01*
X115366666Y-114604819D02*
X114966666Y-114604819D01*
X115166666Y-114604819D02*
X115166666Y-113604819D01*
X115166666Y-113604819D02*
X115099999Y-113747676D01*
X115099999Y-113747676D02*
X115033333Y-113842914D01*
X115033333Y-113842914D02*
X114966666Y-113890533D01*
X115966666Y-113604819D02*
X115833333Y-113604819D01*
X115833333Y-113604819D02*
X115766666Y-113652438D01*
X115766666Y-113652438D02*
X115733333Y-113700057D01*
X115733333Y-113700057D02*
X115666666Y-113842914D01*
X115666666Y-113842914D02*
X115633333Y-114033390D01*
X115633333Y-114033390D02*
X115633333Y-114414342D01*
X115633333Y-114414342D02*
X115666666Y-114509580D01*
X115666666Y-114509580D02*
X115700000Y-114557200D01*
X115700000Y-114557200D02*
X115766666Y-114604819D01*
X115766666Y-114604819D02*
X115900000Y-114604819D01*
X115900000Y-114604819D02*
X115966666Y-114557200D01*
X115966666Y-114557200D02*
X116000000Y-114509580D01*
X116000000Y-114509580D02*
X116033333Y-114414342D01*
X116033333Y-114414342D02*
X116033333Y-114176247D01*
X116033333Y-114176247D02*
X116000000Y-114081009D01*
X116000000Y-114081009D02*
X115966666Y-114033390D01*
X115966666Y-114033390D02*
X115900000Y-113985771D01*
X115900000Y-113985771D02*
X115766666Y-113985771D01*
X115766666Y-113985771D02*
X115700000Y-114033390D01*
X115700000Y-114033390D02*
X115666666Y-114081009D01*
X115666666Y-114081009D02*
X115633333Y-114176247D01*
X114283333Y-117900057D02*
X114216666Y-117852438D01*
X114216666Y-117852438D02*
X114150000Y-117757200D01*
X114150000Y-117757200D02*
X114050000Y-117614342D01*
X114050000Y-117614342D02*
X113983333Y-117566723D01*
X113983333Y-117566723D02*
X113916666Y-117566723D01*
X113950000Y-117804819D02*
X113883333Y-117757200D01*
X113883333Y-117757200D02*
X113816666Y-117661961D01*
X113816666Y-117661961D02*
X113783333Y-117471485D01*
X113783333Y-117471485D02*
X113783333Y-117138152D01*
X113783333Y-117138152D02*
X113816666Y-116947676D01*
X113816666Y-116947676D02*
X113883333Y-116852438D01*
X113883333Y-116852438D02*
X113950000Y-116804819D01*
X113950000Y-116804819D02*
X114083333Y-116804819D01*
X114083333Y-116804819D02*
X114150000Y-116852438D01*
X114150000Y-116852438D02*
X114216666Y-116947676D01*
X114216666Y-116947676D02*
X114250000Y-117138152D01*
X114250000Y-117138152D02*
X114250000Y-117471485D01*
X114250000Y-117471485D02*
X114216666Y-117661961D01*
X114216666Y-117661961D02*
X114150000Y-117757200D01*
X114150000Y-117757200D02*
X114083333Y-117804819D01*
X114083333Y-117804819D02*
X113950000Y-117804819D01*
X114883333Y-116804819D02*
X114549999Y-116804819D01*
X114549999Y-116804819D02*
X114516666Y-117281009D01*
X114516666Y-117281009D02*
X114549999Y-117233390D01*
X114549999Y-117233390D02*
X114616666Y-117185771D01*
X114616666Y-117185771D02*
X114783333Y-117185771D01*
X114783333Y-117185771D02*
X114849999Y-117233390D01*
X114849999Y-117233390D02*
X114883333Y-117281009D01*
X114883333Y-117281009D02*
X114916666Y-117376247D01*
X114916666Y-117376247D02*
X114916666Y-117614342D01*
X114916666Y-117614342D02*
X114883333Y-117709580D01*
X114883333Y-117709580D02*
X114849999Y-117757200D01*
X114849999Y-117757200D02*
X114783333Y-117804819D01*
X114783333Y-117804819D02*
X114616666Y-117804819D01*
X114616666Y-117804819D02*
X114549999Y-117757200D01*
X114549999Y-117757200D02*
X114516666Y-117709580D01*
X138483333Y-110304819D02*
X138250000Y-109828628D01*
X138083333Y-110304819D02*
X138083333Y-109304819D01*
X138083333Y-109304819D02*
X138350000Y-109304819D01*
X138350000Y-109304819D02*
X138416667Y-109352438D01*
X138416667Y-109352438D02*
X138450000Y-109400057D01*
X138450000Y-109400057D02*
X138483333Y-109495295D01*
X138483333Y-109495295D02*
X138483333Y-109638152D01*
X138483333Y-109638152D02*
X138450000Y-109733390D01*
X138450000Y-109733390D02*
X138416667Y-109781009D01*
X138416667Y-109781009D02*
X138350000Y-109828628D01*
X138350000Y-109828628D02*
X138083333Y-109828628D01*
X138750000Y-109400057D02*
X138783333Y-109352438D01*
X138783333Y-109352438D02*
X138850000Y-109304819D01*
X138850000Y-109304819D02*
X139016667Y-109304819D01*
X139016667Y-109304819D02*
X139083333Y-109352438D01*
X139083333Y-109352438D02*
X139116667Y-109400057D01*
X139116667Y-109400057D02*
X139150000Y-109495295D01*
X139150000Y-109495295D02*
X139150000Y-109590533D01*
X139150000Y-109590533D02*
X139116667Y-109733390D01*
X139116667Y-109733390D02*
X138716667Y-110304819D01*
X138716667Y-110304819D02*
X139150000Y-110304819D01*
X114283333Y-103350057D02*
X114216666Y-103302438D01*
X114216666Y-103302438D02*
X114150000Y-103207200D01*
X114150000Y-103207200D02*
X114050000Y-103064342D01*
X114050000Y-103064342D02*
X113983333Y-103016723D01*
X113983333Y-103016723D02*
X113916666Y-103016723D01*
X113950000Y-103254819D02*
X113883333Y-103207200D01*
X113883333Y-103207200D02*
X113816666Y-103111961D01*
X113816666Y-103111961D02*
X113783333Y-102921485D01*
X113783333Y-102921485D02*
X113783333Y-102588152D01*
X113783333Y-102588152D02*
X113816666Y-102397676D01*
X113816666Y-102397676D02*
X113883333Y-102302438D01*
X113883333Y-102302438D02*
X113950000Y-102254819D01*
X113950000Y-102254819D02*
X114083333Y-102254819D01*
X114083333Y-102254819D02*
X114150000Y-102302438D01*
X114150000Y-102302438D02*
X114216666Y-102397676D01*
X114216666Y-102397676D02*
X114250000Y-102588152D01*
X114250000Y-102588152D02*
X114250000Y-102921485D01*
X114250000Y-102921485D02*
X114216666Y-103111961D01*
X114216666Y-103111961D02*
X114150000Y-103207200D01*
X114150000Y-103207200D02*
X114083333Y-103254819D01*
X114083333Y-103254819D02*
X113950000Y-103254819D01*
X114483333Y-102254819D02*
X114916666Y-102254819D01*
X114916666Y-102254819D02*
X114683333Y-102635771D01*
X114683333Y-102635771D02*
X114783333Y-102635771D01*
X114783333Y-102635771D02*
X114849999Y-102683390D01*
X114849999Y-102683390D02*
X114883333Y-102731009D01*
X114883333Y-102731009D02*
X114916666Y-102826247D01*
X114916666Y-102826247D02*
X114916666Y-103064342D01*
X114916666Y-103064342D02*
X114883333Y-103159580D01*
X114883333Y-103159580D02*
X114849999Y-103207200D01*
X114849999Y-103207200D02*
X114783333Y-103254819D01*
X114783333Y-103254819D02*
X114583333Y-103254819D01*
X114583333Y-103254819D02*
X114516666Y-103207200D01*
X114516666Y-103207200D02*
X114483333Y-103159580D01*
X105924819Y-100603333D02*
X106639104Y-100603333D01*
X106639104Y-100603333D02*
X106781961Y-100636666D01*
X106781961Y-100636666D02*
X106877200Y-100703333D01*
X106877200Y-100703333D02*
X106924819Y-100803333D01*
X106924819Y-100803333D02*
X106924819Y-100870000D01*
X106020057Y-100303333D02*
X105972438Y-100270000D01*
X105972438Y-100270000D02*
X105924819Y-100203333D01*
X105924819Y-100203333D02*
X105924819Y-100036667D01*
X105924819Y-100036667D02*
X105972438Y-99970000D01*
X105972438Y-99970000D02*
X106020057Y-99936667D01*
X106020057Y-99936667D02*
X106115295Y-99903333D01*
X106115295Y-99903333D02*
X106210533Y-99903333D01*
X106210533Y-99903333D02*
X106353390Y-99936667D01*
X106353390Y-99936667D02*
X106924819Y-100336667D01*
X106924819Y-100336667D02*
X106924819Y-99903333D01*
X117533334Y-121804818D02*
X117300001Y-121328627D01*
X117133334Y-121804818D02*
X117133334Y-120804818D01*
X117133334Y-120804818D02*
X117400001Y-120804818D01*
X117400001Y-120804818D02*
X117466668Y-120852437D01*
X117466668Y-120852437D02*
X117500001Y-120900056D01*
X117500001Y-120900056D02*
X117533334Y-120995294D01*
X117533334Y-120995294D02*
X117533334Y-121138151D01*
X117533334Y-121138151D02*
X117500001Y-121233389D01*
X117500001Y-121233389D02*
X117466668Y-121281008D01*
X117466668Y-121281008D02*
X117400001Y-121328627D01*
X117400001Y-121328627D02*
X117133334Y-121328627D01*
X117766668Y-120804818D02*
X118233334Y-120804818D01*
X118233334Y-120804818D02*
X117933334Y-121804818D01*
X114749999Y-109154819D02*
X114516666Y-108678628D01*
X114349999Y-109154819D02*
X114349999Y-108154819D01*
X114349999Y-108154819D02*
X114616666Y-108154819D01*
X114616666Y-108154819D02*
X114683333Y-108202438D01*
X114683333Y-108202438D02*
X114716666Y-108250057D01*
X114716666Y-108250057D02*
X114749999Y-108345295D01*
X114749999Y-108345295D02*
X114749999Y-108488152D01*
X114749999Y-108488152D02*
X114716666Y-108583390D01*
X114716666Y-108583390D02*
X114683333Y-108631009D01*
X114683333Y-108631009D02*
X114616666Y-108678628D01*
X114616666Y-108678628D02*
X114349999Y-108678628D01*
X115416666Y-109154819D02*
X115016666Y-109154819D01*
X115216666Y-109154819D02*
X115216666Y-108154819D01*
X115216666Y-108154819D02*
X115149999Y-108297676D01*
X115149999Y-108297676D02*
X115083333Y-108392914D01*
X115083333Y-108392914D02*
X115016666Y-108440533D01*
X116050000Y-108154819D02*
X115716666Y-108154819D01*
X115716666Y-108154819D02*
X115683333Y-108631009D01*
X115683333Y-108631009D02*
X115716666Y-108583390D01*
X115716666Y-108583390D02*
X115783333Y-108535771D01*
X115783333Y-108535771D02*
X115950000Y-108535771D01*
X115950000Y-108535771D02*
X116016666Y-108583390D01*
X116016666Y-108583390D02*
X116050000Y-108631009D01*
X116050000Y-108631009D02*
X116083333Y-108726247D01*
X116083333Y-108726247D02*
X116083333Y-108964342D01*
X116083333Y-108964342D02*
X116050000Y-109059580D01*
X116050000Y-109059580D02*
X116016666Y-109107200D01*
X116016666Y-109107200D02*
X115950000Y-109154819D01*
X115950000Y-109154819D02*
X115783333Y-109154819D01*
X115783333Y-109154819D02*
X115716666Y-109107200D01*
X115716666Y-109107200D02*
X115683333Y-109059580D01*
X119742319Y-100550000D02*
X119266128Y-100783333D01*
X119742319Y-100950000D02*
X118742319Y-100950000D01*
X118742319Y-100950000D02*
X118742319Y-100683333D01*
X118742319Y-100683333D02*
X118789938Y-100616667D01*
X118789938Y-100616667D02*
X118837557Y-100583333D01*
X118837557Y-100583333D02*
X118932795Y-100550000D01*
X118932795Y-100550000D02*
X119075652Y-100550000D01*
X119075652Y-100550000D02*
X119170890Y-100583333D01*
X119170890Y-100583333D02*
X119218509Y-100616667D01*
X119218509Y-100616667D02*
X119266128Y-100683333D01*
X119266128Y-100683333D02*
X119266128Y-100950000D01*
X119742319Y-99883333D02*
X119742319Y-100283333D01*
X119742319Y-100083333D02*
X118742319Y-100083333D01*
X118742319Y-100083333D02*
X118885176Y-100150000D01*
X118885176Y-100150000D02*
X118980414Y-100216667D01*
X118980414Y-100216667D02*
X119028033Y-100283333D01*
X118742319Y-99450000D02*
X118742319Y-99383333D01*
X118742319Y-99383333D02*
X118789938Y-99316666D01*
X118789938Y-99316666D02*
X118837557Y-99283333D01*
X118837557Y-99283333D02*
X118932795Y-99250000D01*
X118932795Y-99250000D02*
X119123271Y-99216666D01*
X119123271Y-99216666D02*
X119361366Y-99216666D01*
X119361366Y-99216666D02*
X119551842Y-99250000D01*
X119551842Y-99250000D02*
X119647080Y-99283333D01*
X119647080Y-99283333D02*
X119694700Y-99316666D01*
X119694700Y-99316666D02*
X119742319Y-99383333D01*
X119742319Y-99383333D02*
X119742319Y-99450000D01*
X119742319Y-99450000D02*
X119694700Y-99516666D01*
X119694700Y-99516666D02*
X119647080Y-99550000D01*
X119647080Y-99550000D02*
X119551842Y-99583333D01*
X119551842Y-99583333D02*
X119361366Y-99616666D01*
X119361366Y-99616666D02*
X119123271Y-99616666D01*
X119123271Y-99616666D02*
X118932795Y-99583333D01*
X118932795Y-99583333D02*
X118837557Y-99550000D01*
X118837557Y-99550000D02*
X118789938Y-99516666D01*
X118789938Y-99516666D02*
X118742319Y-99450000D01*
X138408334Y-105754818D02*
X138175001Y-105278627D01*
X138008334Y-105754818D02*
X138008334Y-104754818D01*
X138008334Y-104754818D02*
X138275001Y-104754818D01*
X138275001Y-104754818D02*
X138341668Y-104802437D01*
X138341668Y-104802437D02*
X138375001Y-104850056D01*
X138375001Y-104850056D02*
X138408334Y-104945294D01*
X138408334Y-104945294D02*
X138408334Y-105088151D01*
X138408334Y-105088151D02*
X138375001Y-105183389D01*
X138375001Y-105183389D02*
X138341668Y-105231008D01*
X138341668Y-105231008D02*
X138275001Y-105278627D01*
X138275001Y-105278627D02*
X138008334Y-105278627D01*
X139075001Y-105754818D02*
X138675001Y-105754818D01*
X138875001Y-105754818D02*
X138875001Y-104754818D01*
X138875001Y-104754818D02*
X138808334Y-104897675D01*
X138808334Y-104897675D02*
X138741668Y-104992913D01*
X138741668Y-104992913D02*
X138675001Y-105040532D01*
X131845833Y-101179819D02*
X131612500Y-100703628D01*
X131445833Y-101179819D02*
X131445833Y-100179819D01*
X131445833Y-100179819D02*
X131712500Y-100179819D01*
X131712500Y-100179819D02*
X131779167Y-100227438D01*
X131779167Y-100227438D02*
X131812500Y-100275057D01*
X131812500Y-100275057D02*
X131845833Y-100370295D01*
X131845833Y-100370295D02*
X131845833Y-100513152D01*
X131845833Y-100513152D02*
X131812500Y-100608390D01*
X131812500Y-100608390D02*
X131779167Y-100656009D01*
X131779167Y-100656009D02*
X131712500Y-100703628D01*
X131712500Y-100703628D02*
X131445833Y-100703628D01*
X132079167Y-100179819D02*
X132512500Y-100179819D01*
X132512500Y-100179819D02*
X132279167Y-100560771D01*
X132279167Y-100560771D02*
X132379167Y-100560771D01*
X132379167Y-100560771D02*
X132445833Y-100608390D01*
X132445833Y-100608390D02*
X132479167Y-100656009D01*
X132479167Y-100656009D02*
X132512500Y-100751247D01*
X132512500Y-100751247D02*
X132512500Y-100989342D01*
X132512500Y-100989342D02*
X132479167Y-101084580D01*
X132479167Y-101084580D02*
X132445833Y-101132200D01*
X132445833Y-101132200D02*
X132379167Y-101179819D01*
X132379167Y-101179819D02*
X132179167Y-101179819D01*
X132179167Y-101179819D02*
X132112500Y-101132200D01*
X132112500Y-101132200D02*
X132079167Y-101084580D01*
X114799999Y-116254819D02*
X114566666Y-115778628D01*
X114399999Y-116254819D02*
X114399999Y-115254819D01*
X114399999Y-115254819D02*
X114666666Y-115254819D01*
X114666666Y-115254819D02*
X114733333Y-115302438D01*
X114733333Y-115302438D02*
X114766666Y-115350057D01*
X114766666Y-115350057D02*
X114799999Y-115445295D01*
X114799999Y-115445295D02*
X114799999Y-115588152D01*
X114799999Y-115588152D02*
X114766666Y-115683390D01*
X114766666Y-115683390D02*
X114733333Y-115731009D01*
X114733333Y-115731009D02*
X114666666Y-115778628D01*
X114666666Y-115778628D02*
X114399999Y-115778628D01*
X115466666Y-116254819D02*
X115066666Y-116254819D01*
X115266666Y-116254819D02*
X115266666Y-115254819D01*
X115266666Y-115254819D02*
X115199999Y-115397676D01*
X115199999Y-115397676D02*
X115133333Y-115492914D01*
X115133333Y-115492914D02*
X115066666Y-115540533D01*
X115700000Y-115254819D02*
X116133333Y-115254819D01*
X116133333Y-115254819D02*
X115900000Y-115635771D01*
X115900000Y-115635771D02*
X116000000Y-115635771D01*
X116000000Y-115635771D02*
X116066666Y-115683390D01*
X116066666Y-115683390D02*
X116100000Y-115731009D01*
X116100000Y-115731009D02*
X116133333Y-115826247D01*
X116133333Y-115826247D02*
X116133333Y-116064342D01*
X116133333Y-116064342D02*
X116100000Y-116159580D01*
X116100000Y-116159580D02*
X116066666Y-116207200D01*
X116066666Y-116207200D02*
X116000000Y-116254819D01*
X116000000Y-116254819D02*
X115800000Y-116254819D01*
X115800000Y-116254819D02*
X115733333Y-116207200D01*
X115733333Y-116207200D02*
X115700000Y-116159580D01*
X118367319Y-100591666D02*
X117891128Y-100824999D01*
X118367319Y-100991666D02*
X117367319Y-100991666D01*
X117367319Y-100991666D02*
X117367319Y-100724999D01*
X117367319Y-100724999D02*
X117414938Y-100658333D01*
X117414938Y-100658333D02*
X117462557Y-100624999D01*
X117462557Y-100624999D02*
X117557795Y-100591666D01*
X117557795Y-100591666D02*
X117700652Y-100591666D01*
X117700652Y-100591666D02*
X117795890Y-100624999D01*
X117795890Y-100624999D02*
X117843509Y-100658333D01*
X117843509Y-100658333D02*
X117891128Y-100724999D01*
X117891128Y-100724999D02*
X117891128Y-100991666D01*
X117795890Y-100191666D02*
X117748271Y-100258333D01*
X117748271Y-100258333D02*
X117700652Y-100291666D01*
X117700652Y-100291666D02*
X117605414Y-100324999D01*
X117605414Y-100324999D02*
X117557795Y-100324999D01*
X117557795Y-100324999D02*
X117462557Y-100291666D01*
X117462557Y-100291666D02*
X117414938Y-100258333D01*
X117414938Y-100258333D02*
X117367319Y-100191666D01*
X117367319Y-100191666D02*
X117367319Y-100058333D01*
X117367319Y-100058333D02*
X117414938Y-99991666D01*
X117414938Y-99991666D02*
X117462557Y-99958333D01*
X117462557Y-99958333D02*
X117557795Y-99924999D01*
X117557795Y-99924999D02*
X117605414Y-99924999D01*
X117605414Y-99924999D02*
X117700652Y-99958333D01*
X117700652Y-99958333D02*
X117748271Y-99991666D01*
X117748271Y-99991666D02*
X117795890Y-100058333D01*
X117795890Y-100058333D02*
X117795890Y-100191666D01*
X117795890Y-100191666D02*
X117843509Y-100258333D01*
X117843509Y-100258333D02*
X117891128Y-100291666D01*
X117891128Y-100291666D02*
X117986366Y-100324999D01*
X117986366Y-100324999D02*
X118176842Y-100324999D01*
X118176842Y-100324999D02*
X118272080Y-100291666D01*
X118272080Y-100291666D02*
X118319700Y-100258333D01*
X118319700Y-100258333D02*
X118367319Y-100191666D01*
X118367319Y-100191666D02*
X118367319Y-100058333D01*
X118367319Y-100058333D02*
X118319700Y-99991666D01*
X118319700Y-99991666D02*
X118272080Y-99958333D01*
X118272080Y-99958333D02*
X118176842Y-99924999D01*
X118176842Y-99924999D02*
X117986366Y-99924999D01*
X117986366Y-99924999D02*
X117891128Y-99958333D01*
X117891128Y-99958333D02*
X117843509Y-99991666D01*
X117843509Y-99991666D02*
X117795890Y-100058333D01*
X114799999Y-101454819D02*
X114566666Y-100978628D01*
X114399999Y-101454819D02*
X114399999Y-100454819D01*
X114399999Y-100454819D02*
X114666666Y-100454819D01*
X114666666Y-100454819D02*
X114733333Y-100502438D01*
X114733333Y-100502438D02*
X114766666Y-100550057D01*
X114766666Y-100550057D02*
X114799999Y-100645295D01*
X114799999Y-100645295D02*
X114799999Y-100788152D01*
X114799999Y-100788152D02*
X114766666Y-100883390D01*
X114766666Y-100883390D02*
X114733333Y-100931009D01*
X114733333Y-100931009D02*
X114666666Y-100978628D01*
X114666666Y-100978628D02*
X114399999Y-100978628D01*
X115466666Y-101454819D02*
X115066666Y-101454819D01*
X115266666Y-101454819D02*
X115266666Y-100454819D01*
X115266666Y-100454819D02*
X115199999Y-100597676D01*
X115199999Y-100597676D02*
X115133333Y-100692914D01*
X115133333Y-100692914D02*
X115066666Y-100740533D01*
X116066666Y-100788152D02*
X116066666Y-101454819D01*
X115900000Y-100407200D02*
X115733333Y-101121485D01*
X115733333Y-101121485D02*
X116166666Y-101121485D01*
X116054166Y-110554819D02*
X116054166Y-111364342D01*
X116054166Y-111364342D02*
X116087500Y-111459580D01*
X116087500Y-111459580D02*
X116120833Y-111507200D01*
X116120833Y-111507200D02*
X116187500Y-111554819D01*
X116187500Y-111554819D02*
X116320833Y-111554819D01*
X116320833Y-111554819D02*
X116387500Y-111507200D01*
X116387500Y-111507200D02*
X116420833Y-111459580D01*
X116420833Y-111459580D02*
X116454166Y-111364342D01*
X116454166Y-111364342D02*
X116454166Y-110554819D01*
X117154166Y-111554819D02*
X116754166Y-111554819D01*
X116954166Y-111554819D02*
X116954166Y-110554819D01*
X116954166Y-110554819D02*
X116887499Y-110697676D01*
X116887499Y-110697676D02*
X116820833Y-110792914D01*
X116820833Y-110792914D02*
X116754166Y-110840533D01*
X130145834Y-101229819D02*
X129912501Y-100753628D01*
X129745834Y-101229819D02*
X129745834Y-100229819D01*
X129745834Y-100229819D02*
X130012501Y-100229819D01*
X130012501Y-100229819D02*
X130079168Y-100277438D01*
X130079168Y-100277438D02*
X130112501Y-100325057D01*
X130112501Y-100325057D02*
X130145834Y-100420295D01*
X130145834Y-100420295D02*
X130145834Y-100563152D01*
X130145834Y-100563152D02*
X130112501Y-100658390D01*
X130112501Y-100658390D02*
X130079168Y-100706009D01*
X130079168Y-100706009D02*
X130012501Y-100753628D01*
X130012501Y-100753628D02*
X129745834Y-100753628D01*
X130745834Y-100229819D02*
X130612501Y-100229819D01*
X130612501Y-100229819D02*
X130545834Y-100277438D01*
X130545834Y-100277438D02*
X130512501Y-100325057D01*
X130512501Y-100325057D02*
X130445834Y-100467914D01*
X130445834Y-100467914D02*
X130412501Y-100658390D01*
X130412501Y-100658390D02*
X130412501Y-101039342D01*
X130412501Y-101039342D02*
X130445834Y-101134580D01*
X130445834Y-101134580D02*
X130479168Y-101182200D01*
X130479168Y-101182200D02*
X130545834Y-101229819D01*
X130545834Y-101229819D02*
X130679168Y-101229819D01*
X130679168Y-101229819D02*
X130745834Y-101182200D01*
X130745834Y-101182200D02*
X130779168Y-101134580D01*
X130779168Y-101134580D02*
X130812501Y-101039342D01*
X130812501Y-101039342D02*
X130812501Y-100801247D01*
X130812501Y-100801247D02*
X130779168Y-100706009D01*
X130779168Y-100706009D02*
X130745834Y-100658390D01*
X130745834Y-100658390D02*
X130679168Y-100610771D01*
X130679168Y-100610771D02*
X130545834Y-100610771D01*
X130545834Y-100610771D02*
X130479168Y-100658390D01*
X130479168Y-100658390D02*
X130445834Y-100706009D01*
X130445834Y-100706009D02*
X130412501Y-100801247D01*
X114774999Y-107554819D02*
X114541666Y-107078628D01*
X114374999Y-107554819D02*
X114374999Y-106554819D01*
X114374999Y-106554819D02*
X114641666Y-106554819D01*
X114641666Y-106554819D02*
X114708333Y-106602438D01*
X114708333Y-106602438D02*
X114741666Y-106650057D01*
X114741666Y-106650057D02*
X114774999Y-106745295D01*
X114774999Y-106745295D02*
X114774999Y-106888152D01*
X114774999Y-106888152D02*
X114741666Y-106983390D01*
X114741666Y-106983390D02*
X114708333Y-107031009D01*
X114708333Y-107031009D02*
X114641666Y-107078628D01*
X114641666Y-107078628D02*
X114374999Y-107078628D01*
X115441666Y-107554819D02*
X115041666Y-107554819D01*
X115241666Y-107554819D02*
X115241666Y-106554819D01*
X115241666Y-106554819D02*
X115174999Y-106697676D01*
X115174999Y-106697676D02*
X115108333Y-106792914D01*
X115108333Y-106792914D02*
X115041666Y-106840533D01*
X115708333Y-106650057D02*
X115741666Y-106602438D01*
X115741666Y-106602438D02*
X115808333Y-106554819D01*
X115808333Y-106554819D02*
X115975000Y-106554819D01*
X115975000Y-106554819D02*
X116041666Y-106602438D01*
X116041666Y-106602438D02*
X116075000Y-106650057D01*
X116075000Y-106650057D02*
X116108333Y-106745295D01*
X116108333Y-106745295D02*
X116108333Y-106840533D01*
X116108333Y-106840533D02*
X116075000Y-106983390D01*
X116075000Y-106983390D02*
X115675000Y-107554819D01*
X115675000Y-107554819D02*
X116108333Y-107554819D01*
X114283333Y-110700057D02*
X114216666Y-110652438D01*
X114216666Y-110652438D02*
X114150000Y-110557200D01*
X114150000Y-110557200D02*
X114050000Y-110414342D01*
X114050000Y-110414342D02*
X113983333Y-110366723D01*
X113983333Y-110366723D02*
X113916666Y-110366723D01*
X113950000Y-110604819D02*
X113883333Y-110557200D01*
X113883333Y-110557200D02*
X113816666Y-110461961D01*
X113816666Y-110461961D02*
X113783333Y-110271485D01*
X113783333Y-110271485D02*
X113783333Y-109938152D01*
X113783333Y-109938152D02*
X113816666Y-109747676D01*
X113816666Y-109747676D02*
X113883333Y-109652438D01*
X113883333Y-109652438D02*
X113950000Y-109604819D01*
X113950000Y-109604819D02*
X114083333Y-109604819D01*
X114083333Y-109604819D02*
X114150000Y-109652438D01*
X114150000Y-109652438D02*
X114216666Y-109747676D01*
X114216666Y-109747676D02*
X114250000Y-109938152D01*
X114250000Y-109938152D02*
X114250000Y-110271485D01*
X114250000Y-110271485D02*
X114216666Y-110461961D01*
X114216666Y-110461961D02*
X114150000Y-110557200D01*
X114150000Y-110557200D02*
X114083333Y-110604819D01*
X114083333Y-110604819D02*
X113950000Y-110604819D01*
X114849999Y-109938152D02*
X114849999Y-110604819D01*
X114683333Y-109557200D02*
X114516666Y-110271485D01*
X114516666Y-110271485D02*
X114949999Y-110271485D01*
X133545833Y-101229819D02*
X133312500Y-100753628D01*
X133145833Y-101229819D02*
X133145833Y-100229819D01*
X133145833Y-100229819D02*
X133412500Y-100229819D01*
X133412500Y-100229819D02*
X133479167Y-100277438D01*
X133479167Y-100277438D02*
X133512500Y-100325057D01*
X133512500Y-100325057D02*
X133545833Y-100420295D01*
X133545833Y-100420295D02*
X133545833Y-100563152D01*
X133545833Y-100563152D02*
X133512500Y-100658390D01*
X133512500Y-100658390D02*
X133479167Y-100706009D01*
X133479167Y-100706009D02*
X133412500Y-100753628D01*
X133412500Y-100753628D02*
X133145833Y-100753628D01*
X134145833Y-100563152D02*
X134145833Y-101229819D01*
X133979167Y-100182200D02*
X133812500Y-100896485D01*
X133812500Y-100896485D02*
X134245833Y-100896485D01*
X119120833Y-121804819D02*
X118887500Y-121328628D01*
X118720833Y-121804819D02*
X118720833Y-120804819D01*
X118720833Y-120804819D02*
X118987500Y-120804819D01*
X118987500Y-120804819D02*
X119054167Y-120852438D01*
X119054167Y-120852438D02*
X119087500Y-120900057D01*
X119087500Y-120900057D02*
X119120833Y-120995295D01*
X119120833Y-120995295D02*
X119120833Y-121138152D01*
X119120833Y-121138152D02*
X119087500Y-121233390D01*
X119087500Y-121233390D02*
X119054167Y-121281009D01*
X119054167Y-121281009D02*
X118987500Y-121328628D01*
X118987500Y-121328628D02*
X118720833Y-121328628D01*
X119454167Y-121804819D02*
X119587500Y-121804819D01*
X119587500Y-121804819D02*
X119654167Y-121757200D01*
X119654167Y-121757200D02*
X119687500Y-121709580D01*
X119687500Y-121709580D02*
X119754167Y-121566723D01*
X119754167Y-121566723D02*
X119787500Y-121376247D01*
X119787500Y-121376247D02*
X119787500Y-120995295D01*
X119787500Y-120995295D02*
X119754167Y-120900057D01*
X119754167Y-120900057D02*
X119720833Y-120852438D01*
X119720833Y-120852438D02*
X119654167Y-120804819D01*
X119654167Y-120804819D02*
X119520833Y-120804819D01*
X119520833Y-120804819D02*
X119454167Y-120852438D01*
X119454167Y-120852438D02*
X119420833Y-120900057D01*
X119420833Y-120900057D02*
X119387500Y-120995295D01*
X119387500Y-120995295D02*
X119387500Y-121233390D01*
X119387500Y-121233390D02*
X119420833Y-121328628D01*
X119420833Y-121328628D02*
X119454167Y-121376247D01*
X119454167Y-121376247D02*
X119520833Y-121423866D01*
X119520833Y-121423866D02*
X119654167Y-121423866D01*
X119654167Y-121423866D02*
X119720833Y-121376247D01*
X119720833Y-121376247D02*
X119754167Y-121328628D01*
X119754167Y-121328628D02*
X119787500Y-121233390D01*
X131095833Y-117984580D02*
X131062500Y-118032200D01*
X131062500Y-118032200D02*
X130962500Y-118079819D01*
X130962500Y-118079819D02*
X130895833Y-118079819D01*
X130895833Y-118079819D02*
X130795833Y-118032200D01*
X130795833Y-118032200D02*
X130729167Y-117936961D01*
X130729167Y-117936961D02*
X130695833Y-117841723D01*
X130695833Y-117841723D02*
X130662500Y-117651247D01*
X130662500Y-117651247D02*
X130662500Y-117508390D01*
X130662500Y-117508390D02*
X130695833Y-117317914D01*
X130695833Y-117317914D02*
X130729167Y-117222676D01*
X130729167Y-117222676D02*
X130795833Y-117127438D01*
X130795833Y-117127438D02*
X130895833Y-117079819D01*
X130895833Y-117079819D02*
X130962500Y-117079819D01*
X130962500Y-117079819D02*
X131062500Y-117127438D01*
X131062500Y-117127438D02*
X131095833Y-117175057D01*
X131762500Y-118079819D02*
X131362500Y-118079819D01*
X131562500Y-118079819D02*
X131562500Y-117079819D01*
X131562500Y-117079819D02*
X131495833Y-117222676D01*
X131495833Y-117222676D02*
X131429167Y-117317914D01*
X131429167Y-117317914D02*
X131362500Y-117365533D01*
D13*
X143140000Y-120510000D02*
X150960000Y-120510000D01*
X144740000Y-120510000D02*
X144740000Y-119590000D01*
X150960000Y-120510000D02*
X150960000Y-110390000D01*
X147100000Y-119750000D02*
X148700000Y-119750000D01*
X148700000Y-119750000D02*
X148700000Y-118750000D01*
X143140000Y-119590000D02*
X143140000Y-120510000D01*
X144740000Y-119590000D02*
X143140000Y-119590000D01*
X144740000Y-119310000D02*
X144740000Y-119590000D01*
X144740000Y-119310000D02*
X143525000Y-119310000D01*
X148700000Y-119250000D02*
X150960000Y-119250000D01*
X147100000Y-118750000D02*
X147100000Y-119750000D01*
X148700000Y-118750000D02*
X147100000Y-118750000D01*
X148700000Y-118750000D02*
X150960000Y-118750000D01*
X146600000Y-117950000D02*
X146600000Y-112950000D01*
X150960000Y-117950000D02*
X146600000Y-117950000D01*
X146600000Y-112950000D02*
X150960000Y-112950000D01*
X147100000Y-112150000D02*
X147100000Y-111150000D01*
X148700000Y-112150000D02*
X147100000Y-112150000D01*
X143140000Y-111310000D02*
X144740000Y-111310000D01*
X144740000Y-111310000D02*
X144740000Y-111590000D01*
X147100000Y-111150000D02*
X148700000Y-111150000D01*
X148700000Y-111150000D02*
X148700000Y-112150000D01*
X143140000Y-110390000D02*
X143140000Y-111310000D01*
X144740000Y-110390000D02*
X144740000Y-111310000D01*
X150960000Y-110390000D02*
X143140000Y-110390000D01*
X150960000Y-98840000D02*
X143140000Y-98840000D01*
X144740000Y-98840000D02*
X144740000Y-99760000D01*
X143140000Y-98840000D02*
X143140000Y-99760000D01*
X148700000Y-99600000D02*
X148700000Y-100600000D01*
X147100000Y-99600000D02*
X148700000Y-99600000D01*
X144740000Y-99760000D02*
X144740000Y-100040000D01*
X143140000Y-99760000D02*
X144740000Y-99760000D01*
X148700000Y-100600000D02*
X147100000Y-100600000D01*
X147100000Y-100600000D02*
X147100000Y-99600000D01*
X146600000Y-101400000D02*
X150960000Y-101400000D01*
X150960000Y-106400000D02*
X146600000Y-106400000D01*
X146600000Y-106400000D02*
X146600000Y-101400000D01*
X148700000Y-107200000D02*
X150960000Y-107200000D01*
X148700000Y-107200000D02*
X147100000Y-107200000D01*
X147100000Y-107200000D02*
X147100000Y-108200000D01*
X148700000Y-107700000D02*
X150960000Y-107700000D01*
X144740000Y-107760000D02*
X143525000Y-107760000D01*
X144740000Y-107760000D02*
X144740000Y-108040000D01*
X144740000Y-108040000D02*
X143140000Y-108040000D01*
X143140000Y-108040000D02*
X143140000Y-108960000D01*
X148700000Y-108200000D02*
X148700000Y-107200000D01*
X147100000Y-108200000D02*
X148700000Y-108200000D01*
X150960000Y-108960000D02*
X150960000Y-98840000D01*
X144740000Y-108960000D02*
X144740000Y-108040000D01*
X143140000Y-108960000D02*
X150960000Y-108960000D01*
X132650000Y-98300000D02*
G75*
G02*
X131950000Y-99000000I-699999J-1D01*
G01*
X131950000Y-97000000D02*
G75*
G02*
X132650000Y-97700000I1J-699999D01*
G01*
X130550000Y-99000000D02*
G75*
G02*
X129850000Y-98300000I0J700000D01*
G01*
X129850000Y-97700000D02*
G75*
G02*
X130550000Y-97000000I700000J0D01*
G01*
X132650000Y-97700000D02*
X132650000Y-98300000D01*
X131950000Y-99000000D02*
X130550000Y-99000000D01*
X130550000Y-97000000D02*
X131950000Y-97000000D01*
X129850000Y-98300000D02*
X129850000Y-97700000D01*
X125650000Y-98300000D02*
G75*
G02*
X124950000Y-99000000I-700000J0D01*
G01*
X124950000Y-97000000D02*
G75*
G02*
X125650000Y-97700000I0J-700000D01*
G01*
X123550000Y-99000000D02*
G75*
G02*
X122850000Y-98300000I-1J699999D01*
G01*
X122850000Y-97700000D02*
G75*
G02*
X123550000Y-97000000I699999J1D01*
G01*
X125650000Y-97700000D02*
X125650000Y-98300000D01*
X124950000Y-99000000D02*
X123550000Y-99000000D01*
X123550000Y-97000000D02*
X124950000Y-97000000D01*
X122850000Y-98300000D02*
X122850000Y-97700000D01*
X122112500Y-117740000D02*
X121462500Y-117740000D01*
X122112500Y-117740000D02*
X122762500Y-117740000D01*
X122112500Y-120860000D02*
X121462500Y-120860000D01*
X122112500Y-120860000D02*
X122762500Y-120860000D01*
X120950000Y-117790000D02*
X120710000Y-117460000D01*
X121190000Y-117460000D01*
X120950000Y-117790000D01*
G36*
X120950000Y-117790000D02*
G01*
X120710000Y-117460000D01*
X121190000Y-117460000D01*
X120950000Y-117790000D01*
G37*
X134790000Y-103062258D02*
X134790000Y-102587742D01*
X135835000Y-103062258D02*
X135835000Y-102587742D01*
X112937258Y-98927500D02*
X112462742Y-98927500D01*
X112937258Y-99972500D02*
X112462742Y-99972500D01*
X129100000Y-98300000D02*
G75*
G02*
X128400000Y-99000000I-700000J0D01*
G01*
X128400000Y-97000000D02*
G75*
G02*
X129100000Y-97700000I0J-700000D01*
G01*
X127000000Y-99000000D02*
G75*
G02*
X126300000Y-98300000I-1J699999D01*
G01*
X126300000Y-97700000D02*
G75*
G02*
X127000000Y-97000000I699999J1D01*
G01*
X129100000Y-97700000D02*
X129100000Y-98300000D01*
X128400000Y-99000000D02*
X127000000Y-99000000D01*
X127000000Y-97000000D02*
X128400000Y-97000000D01*
X126300000Y-98300000D02*
X126300000Y-97700000D01*
X122137500Y-101240000D02*
X121487500Y-101240000D01*
X122137500Y-101240000D02*
X122787500Y-101240000D01*
X122137500Y-104360000D02*
X121487500Y-104360000D01*
X122137500Y-104360000D02*
X122787500Y-104360000D01*
X120975000Y-101290000D02*
X120735000Y-100960000D01*
X121215000Y-100960000D01*
X120975000Y-101290000D01*
G36*
X120975000Y-101290000D02*
G01*
X120735000Y-100960000D01*
X121215000Y-100960000D01*
X120975000Y-101290000D01*
G37*
X112887258Y-113727500D02*
X112412742Y-113727500D01*
X112887258Y-114772500D02*
X112412742Y-114772500D01*
X112837500Y-116990000D02*
X112187500Y-116990000D01*
X112837500Y-116990000D02*
X113487500Y-116990000D01*
X112837500Y-120110000D02*
X112187500Y-120110000D01*
X112837500Y-120110000D02*
X113487500Y-120110000D01*
X111675000Y-117040000D02*
X111435000Y-116710000D01*
X111915000Y-116710000D01*
X111675000Y-117040000D01*
G36*
X111675000Y-117040000D02*
G01*
X111435000Y-116710000D01*
X111915000Y-116710000D01*
X111675000Y-117040000D01*
G37*
X138922500Y-111912742D02*
X138922500Y-112387258D01*
X137877500Y-111912742D02*
X137877500Y-112387258D01*
X112787500Y-102440000D02*
X112137500Y-102440000D01*
X112787500Y-102440000D02*
X113437500Y-102440000D01*
X112787500Y-105560000D02*
X112137500Y-105560000D01*
X112787500Y-105560000D02*
X113437500Y-105560000D01*
X111625000Y-102490000D02*
X111385000Y-102160000D01*
X111865000Y-102160000D01*
X111625000Y-102490000D01*
G36*
X111625000Y-102490000D02*
G01*
X111385000Y-102160000D01*
X111865000Y-102160000D01*
X111625000Y-102490000D01*
G37*
D14*
X94060000Y-101380000D02*
X94060000Y-101380000D01*
X94060000Y-101380000D02*
X94060000Y-101380000D01*
X94060000Y-101380000D02*
X94060000Y-117640000D01*
X94060000Y-101380000D02*
X97030000Y-101380000D01*
X94060000Y-117640000D02*
X94060000Y-101380000D01*
X94060000Y-117640000D02*
X94060000Y-117640000D01*
X94060000Y-117640000D02*
X94060000Y-117640000D01*
X94060000Y-117640000D02*
X97030000Y-117640000D01*
X97030000Y-101380000D02*
X94060000Y-101380000D01*
X97030000Y-101380000D02*
X97030000Y-101380000D01*
X97030000Y-117640000D02*
X94060000Y-117640000D01*
X97030000Y-117640000D02*
X97030000Y-117640000D01*
X105280000Y-101380000D02*
X105280000Y-101380000D01*
X105280000Y-101380000D02*
X109810000Y-101380000D01*
X105280000Y-117640000D02*
X105280000Y-117640000D01*
X105280000Y-117640000D02*
X109810000Y-117640000D01*
X109810000Y-101380000D02*
X105280000Y-101380000D01*
X109810000Y-101380000D02*
X109810000Y-101380000D01*
X109810000Y-101380000D02*
X109810000Y-101380000D01*
X109810000Y-101380000D02*
X109810000Y-117640000D01*
X109810000Y-117640000D02*
X105280000Y-117640000D01*
X109810000Y-117640000D02*
X109810000Y-101380000D01*
X109810000Y-117640000D02*
X109810000Y-117640000D01*
X109810000Y-117640000D02*
X109810000Y-117640000D01*
D15*
X110780000Y-105840000D02*
X110780000Y-105840000D01*
X110780000Y-105840000D02*
X110780000Y-105840000D01*
X110780000Y-105940000D02*
X110780000Y-105940000D01*
X110780000Y-105840000D02*
G75*
G02*
X110780000Y-105940000I0J-50000D01*
G01*
X110780000Y-105940000D02*
G75*
G02*
X110780000Y-105840000I0J50000D01*
G01*
X110780000Y-105940000D02*
G75*
G02*
X110780000Y-105840000I0J50000D01*
G01*
D13*
X117127500Y-118962742D02*
X117127500Y-119437258D01*
X118172500Y-118962742D02*
X118172500Y-119437258D01*
X112937258Y-108127500D02*
X112462742Y-108127500D01*
X112937258Y-109172500D02*
X112462742Y-109172500D01*
X118840000Y-102837258D02*
X118840000Y-102362742D01*
X119885000Y-102837258D02*
X119885000Y-102362742D01*
X137927500Y-107187742D02*
X137927500Y-107662258D01*
X138972500Y-107187742D02*
X138972500Y-107662258D01*
X131440000Y-102587742D02*
X131440000Y-103062258D01*
X132485000Y-102587742D02*
X132485000Y-103062258D01*
X112887258Y-115277500D02*
X112412742Y-115277500D01*
X112887258Y-116322500D02*
X112412742Y-116322500D01*
X117290000Y-102862258D02*
X117290000Y-102387742D01*
X118335000Y-102862258D02*
X118335000Y-102387742D01*
X112937258Y-100527500D02*
X112462742Y-100527500D01*
X112937258Y-101572500D02*
X112462742Y-101572500D01*
D14*
X117412500Y-106925000D02*
X117412500Y-107425000D01*
X117412500Y-106925000D02*
X117812500Y-106925000D01*
X117412500Y-114225000D02*
X117412500Y-113975000D01*
X117812500Y-114625000D02*
X117412500Y-114225000D01*
X117812500Y-114625000D02*
X117812500Y-116325000D01*
X135512500Y-106925000D02*
X135112500Y-106925000D01*
X135512500Y-106925000D02*
X135512500Y-107425000D01*
X135512500Y-114625000D02*
X135112500Y-114625000D01*
X135512500Y-114625000D02*
X135512500Y-114125000D01*
D13*
X129790000Y-102587742D02*
X129790000Y-103062258D01*
X130835000Y-102587742D02*
X130835000Y-103062258D01*
X112937258Y-106577500D02*
X112462742Y-106577500D01*
X112937258Y-107622500D02*
X112462742Y-107622500D01*
X112812500Y-109840000D02*
X112162500Y-109840000D01*
X112812500Y-109840000D02*
X113462500Y-109840000D01*
X112812500Y-112960000D02*
X112162500Y-112960000D01*
X112812500Y-112960000D02*
X113462500Y-112960000D01*
X111650000Y-109890000D02*
X111410000Y-109560000D01*
X111890000Y-109560000D01*
X111650000Y-109890000D01*
G36*
X111650000Y-109890000D02*
G01*
X111410000Y-109560000D01*
X111890000Y-109560000D01*
X111650000Y-109890000D01*
G37*
X133040000Y-102587742D02*
X133040000Y-103062258D01*
X134085000Y-102587742D02*
X134085000Y-103062258D01*
X118790000Y-119437258D02*
X118790000Y-118962742D01*
X119835000Y-119437258D02*
X119835000Y-118962742D01*
X128821920Y-117065000D02*
X129103080Y-117065000D01*
X128821920Y-118085000D02*
X129103080Y-118085000D01*
D16*
X99460000Y-103160000D03*
X99460000Y-115860000D03*
M02*
